<?xml version="1.0" encoding="utf-8"?>
<!-- Generator: Adobe Illustrator 23.0.2, SVG Export Plug-In . SVG Version: 6.00 Build 0)  -->
<svg version="1.1" id="Layer_1" xmlns="http://www.w3.org/2000/svg" xmlns:xlink="http://www.w3.org/1999/xlink" x="0px" y="0px"
	 viewBox="0 0 768 768" style="enable-background:new 0 0 768 768;" xml:space="preserve">
<style type="text/css">
	.st0{fill:#010101;}
	.st1{fill:#030303;}
	.st2{fill:#002060;}
	.st3{fill:#6F4F1D;}
	.st4{fill:#75AE2C;}
	.st5{fill:#959EA9;}
	.st6{fill:#D3D3D3;}
	.st7{fill:#0B0A08;}
</style>
<path class="st0" d="M517.2,339.4c-70.4,0-138.9,0-207.7,0c0-37.2,0-74.1,0-111.4c29.4,0,58.9,0,88.9,0c0,29.4,0,58.9,0,88.7
	c7.6,0,14.7,0,22.4,0c0-51.8,0-103.6,0-155.9c30,0,59.5,0,89.5,0c0,51.8,0,103.7,0,155.9c7.6,0,14.7,0,22.4,0c0-74.2,0-148.4,0-223
	c30,0,59.5,0,89.5,0c0,74.2,0,148.4,0,223c7.6,0,14.7,0,22.4,0c0-96.6,0-193.2,0-290.2c30,0,59.5,0,89.3,0c0,104.1,0,208.1,0,312.8
	c-46,0-92,0-138.1,0c1.5,6,3.4,11.3,3.9,16.7c1.2,13.2-3.1,24.8-12.5,34.3c-31.4,31.5-62.6,63.3-94.5,94.3
	c-36,35.1-87.6,43.4-133.2,22.5c-1.6-0.8-3.3-1.5-5.6-2.6c0,9.3,0,17.8,0,26.4c0,24.7,0,49.4,0,74.1c0,16.6-8.8,25.2-25.6,25.3
	c-6.1,0-12.1,0-19.2,0c0,14.9,0,29.7,0,44.5c0,14.7,0,29.3,0,44.5c-66.9,0-133.6,0-201.4,0c0-2,0-4.5,0-6.9
	c0-42.2-0.1-84.4,0.1-126.5c0-4.8-1.6-6.7-5.8-8.6c-38.9-17.9-59.8-48.4-61.3-91.3c-0.7-20.9-1.5-42.1,1-62.8
	c4.8-39.9,30.9-67.1,69.9-76.7c6.1-1.5,12.1-3,18.4-4.6c0-16.8,0.2-33.3-0.2-49.8c-0.1-2.1-2.5-4.6-4.4-6.3
	c-14.3-12.3-30.1-23.1-42.8-36.8c-28-30.2-41.6-66.8-42-108C40.4,117.4,51,99.6,71.3,87.3c2.5-1.5,4.8-4.3,5.8-7
	c12-32.5,41.8-53.8,76.6-54c32.9-0.2,65.7-0.1,98.6,0c24.3,0.1,44.7,14.1,53,36.2c8.3,22,2.5,44.9-15.4,61.7c-1.7,1.6-2.9,4.6-3.1,7
	c-1.8,23.8,5.9,43.9,23.9,59.9c0.9,0.8,1.6,1.7,3.1,3.2c-6.6,6.5-12.8,13.4-19.8,19.4c-5.9,5-7.8,10.6-7.4,18.2
	c0.6,12.8,0.9,25.7-0.2,38.4c-2.6,30.3-30.7,51.1-60.9,45.9c-1.8-0.3-3.6-0.4-5.6-0.6c0,8.5,0,16.5,0,25.1
	c13.8,1.8,27.6,3.6,41.3,5.5c29.7,4,55.4,16.8,77.7,36.6c12.4,11,24.9,21.8,37.3,32.7c21.4,18.8,46.6,18.1,66.7-1.9
	C467.2,389.3,491.6,364.9,517.2,339.4z M197.2,496c0-15.4-0.1-29.8,0-44.3c0.1-13.1,9.5-22.7,22.4-22.7c37.3-0.2,74.6-0.2,111.9,0
	c12.6,0.1,21.9,9.6,22.3,22.2c0.2,7.2,0.3,14.5-0.1,21.7c-0.2,4.1,1.4,6.2,4.7,8.3c35.9,22.8,84.1,19.4,115.4-9.6
	c22.2-20.6,43-42.7,64.4-64.1c0.3-0.3,0.2-0.9,0,0.1c-9.8-10-19-19.4-28.6-29.1c-16.8,16.8-33.9,34-51,51
	c-28,27.8-66.3,29.2-96.1,3.5c-15.4-13.2-30.3-26.9-46-39.8c-19-15.5-41.2-23.8-66.3-26.1c-3.8,18.6-7.5,36.9-11.4,55.8
	c-17.4-8.7-33.8-16.8-50.6-25.2c-12.1,12.2-24,24.2-36.3,36.7c-17.1-20.5-33.8-40.5-50.8-60.8c-19.9,10.4-34.3,25.8-36.3,47.7
	c-2.3,25.1-2.4,50.8-0.2,75.9c2.3,26.3,18.3,45.1,41.6,57.5c21.7,11.6,45.2,7.9,68.2,8.3c0-15.3,0-29.8,0-44.7
	c-11.4,0-22.3,0.1-33.3,0c-16.5-0.3-30.8-11.6-32.6-27.9c-1.5-12.8-0.3-25.9-0.3-38.7c7.5,0,14.6,0,21.9,0c0,10.9-0.1,21.4,0,31.9
	c0.1,7.3,3.9,12.2,10.6,12.3C159.3,496.2,177.9,496,197.2,496z M199.2,116c-25.3-1-46.1,18.3-46.7,43.2c-0.2,7.8,0,15.7,0,23.7
	c-3.5,0-6,0.1-8.6,0c-5.9-0.3-10.7,1.4-12.9,7.3c-2.2,5.8-0.7,10.9,3.8,15.2c4.6,4.3,9.3,8.6,13.2,13.4c2.2,2.8,4.2,6.7,4.3,10.1
	c0.3,36.8,0.2,73.6,0.3,110.5c0,2.4,0.3,5.7,1.8,6.9c9.4,7.5,19.1,14.5,29.3,22.2c4.9-8.2,11.5-15.1,13-22.9
	c2.2-11.2,0.6-23.1,0.6-34.8c-8.4-1.8-16.3-3.5-24.5-5.2c1.5-7.4,2.9-14.2,4.3-21.5c3.1,0.5,5.9,0.9,8.5,1.4
	c14.4,2.9,28.7,5.8,43.1,8.7c15.9,3.1,30.8-6.3,33.9-21.6c-15-0.6-30.4,2.2-44.1-6.8c-13.6-9-20.5-21.3-21.3-38c4.1,0,7.6,0,11.1,0
	c3.7,0,7.4,0,11,0c2.5,13.4,9.5,21.4,20.3,22.1c8.1,0.6,16.2,0.1,24.8,0.1c0-11.4-0.2-22.3,0.2-33.2c0.1-2.9,1.5-6.3,3.5-8.4
	c4.7-5,10.2-9.4,15.3-14c-13.6-17.8-19-36.7-19.1-56.2c-10.2,0-19.7-0.2-29.3,0.1C218.1,138.6,206.3,131.5,199.2,116z M241.7,93.3
	c-3.9,0-7.1-0.1-10.3,0c-7.1,0.3-11.8,4.7-11.8,11.1s4.6,11,11.7,11.2c6.8,0.2,13.5,0.1,20.3,0c20-0.1,35.2-14.8,35.1-33.9
	c-0.1-18.7-15.3-33.2-35-33.2c-32.4-0.1-64.8-0.1-97.1,0c-29,0.1-51.7,18.4-58.1,46.8c-1,4.4-2.7,7.1-7.4,8.7
	c-16.8,5.7-26.4,19.5-26.1,37.2c0.6,32.8,11.2,62,31.6,87.7c9.7,12.3,21.3,22.3,35.2,31.4c0.2-2.4,0.2-3.7,0.4-5.1
	c1.5-14.4-1.2-26.1-13.1-37c-16.6-15.3-11.4-42.5,8.3-53.6c3.5-2,4.8-4,5-7.9c1.5-33.9,29.6-61.8,63.6-63.3c4.1-0.2,6-1.7,7.9-5.1
	c7.7-14.2,24.1-20.7,40-16.3C241.7,78.8,241.7,85.5,241.7,93.3z M711.4,316.9c0-89.8,0-178.9,0-267.9c-15,0-29.5,0-43.9,0
	c0,89.5,0,178.6,0,267.9C682.3,316.9,696.6,316.9,711.4,316.9z M331,607.7c0-52.4,0-104.2,0-155.9c-37.4,0-74.2,0-111.1,0
	c0,14.9,0,29.3,0,43.4c5.5,1.4,10.8,2.1,15.7,4.1c5.1,2,9.7,5.3,14.5,8c17.3-13.6,33.1-14.8,46.6-3.5c12.3,10.2,16.2,27.1,8.6,41
	c-10.3,19-27.8,21.9-45.2,15.4c-8.5,15.8-21.9,24.6-40.1,25.8c0,7.4,0,14.5,0,21.8C257,607.7,293.8,607.7,331,607.7z M286.4,630.8
	c-52.4,0-104.2,0-155.8,0c0,22.5,0,44.5,0,66.3c22.4,0,44.2,0,66.7,0c0-14.9,0-29.4,0-43.9c7.8,0,14.9,0,22.6,0c0,15,0,29.5,0,43.9
	c22.5,0,44.4,0,66.5,0C286.4,674.9,286.4,653.1,286.4,630.8z M555.6,115.9c0,67.4,0,134.1,0,200.8c15,0,29.5,0,43.9,0
	c0-67.1,0-133.9,0-200.8C584.7,115.9,570.4,115.9,555.6,115.9z M443.6,316.5c15.3,0,29.8,0,43.9,0c0-44.9,0-89.2,0-133.4
	c-14.9,0-29.3,0-43.9,0C443.6,227.7,443.6,272.1,443.6,316.5z M331.8,250.1c0,22.6,0,44.6,0,66.5c15,0,29.5,0,43.9,0
	c0-22.4,0-44.4,0-66.5C361,250.1,346.6,250.1,331.8,250.1z M197.3,563.1c8.3,0,15.9,0.3,23.5-0.1c11.1-0.5,20.2-9.6,21-20.5
	c0.9-11.2-7-22.2-18.2-23.6c-8.6-1-17.4-0.2-26.3-0.2C197.3,533.6,197.3,548,197.3,563.1z M527,360.9c9.9,9.9,19.2,19.2,28.8,28.9
	c5.2-5.1,11-10.5,16.2-16.3c7.6-8.4,7.2-20.7-0.5-28.3c-7.7-7.6-19.8-7.9-28.3-0.2C537.6,350.2,532.3,355.7,527,360.9z M196.7,607.7
	c0-7.7,0-14.7,0-22.1c-22.3,0-44.1,0-66.3,0c0,7.3,0,14.6,0,22.1C152.6,607.7,174.4,607.7,196.7,607.7z M168.5,385.1
	c-6.9-5.2-14.1-9.7-20.1-15.4c-7.3-7-14.7-7.5-23.6-2.6c9.4,11.2,18.7,22.5,28,33.6C157.9,395.6,162.8,390.7,168.5,385.1z
	 M222.7,390c1.8-9.1,3.4-17,4.9-24.8c-12.8-4.6-14.9-3.3-24.8,14.8C209.1,383.2,215.4,386.4,222.7,390z M275.4,518.4
	c-6,0.1-11,5.1-11,11.1s4.9,11.1,11,11.2c6.3,0.1,11.6-5.2,11.4-11.5C286.5,523.3,281.4,518.4,275.4,518.4z"/>
<path class="st1" d="M465.9,540.8c49.1,0.1,89.3,40.3,89.3,89.4c0,49.4-40.3,89.7-89.7,89.7c-49.3-0.1-89.5-40.6-89.3-90.1
	C376.4,580.8,416.8,540.7,465.9,540.8z M528,653.3c16.5-36.1-11.8-85-51.1-88.5c0,18.7-0.1,37.3,0.1,55.9c0,1.6,1.4,3.9,2.9,4.8
	C495.7,634.8,511.6,643.9,528,653.3z M403.4,653.3c16.4-9.5,32.3-18.6,48.1-27.9c1.3-0.8,2.8-2.7,2.8-4.1
	c0.2-18.8,0.1-37.7,0.1-56.5C415.1,568.5,386.7,617.5,403.4,653.3z M414.6,672.8c24,32.5,80.1,32.3,102.1,0
	c-16.1-9.3-32.1-18.7-48.3-27.8c-1.5-0.9-4.5-0.4-6.3,0.6C446.3,654.4,430.7,663.5,414.6,672.8z"/>
<path d="M555.3,540.4c0-7.3,0-14.3,0-21.6c52,0,103.8,0,156.1,0c0,7,0,14.1,0,21.6C659.7,540.4,607.8,540.4,555.3,540.4z"/>
<path d="M711.7,474.1c0,7.3,0,14.3,0,21.6c-52,0-103.8,0-156.1,0c0-7,0-14.1,0-21.6C607.3,474.1,659.2,474.1,711.7,474.1z"/>
<path d="M622.5,585.2c0-7.3,0-14.3,0-21.6c37.1,0,74,0,111.3,0c0,7,0,14.1,0,21.6C697,585.2,660,585.2,622.5,585.2z"/>
<path d="M622.5,629.9c0-7.3,0-14.3,0-21.6c37.1,0,74,0,111.3,0c0,7,0,14.1,0,21.6C697,629.9,660,629.9,622.5,629.9z"/>
<path d="M622.5,719.4c0-7.3,0-14.3,0-21.6c37.1,0,74,0,111.3,0c0,7,0,14.1,0,21.6C697,719.4,660,719.4,622.5,719.4z"/>
<path d="M622.8,652.9c36.9,0,73.7,0,110.9,0c0,7,0,14.1,0,21.7c-36.6,0-73.5,0-110.9,0C622.8,667.8,622.8,660.8,622.8,652.9z"/>
<path d="M711.7,429.3c0,7.3,0,14.3,0,21.6c-22.2,0-44.2,0-66.6,0c0-7,0-14.1,0-21.6C667,429.3,689,429.3,711.7,429.3z"/>
<path d="M578,429.1c14.7,0,29.1,0,43.9,0c0,7.2,0,14.3,0,21.8c-14.4,0-28.9,0-43.9,0C578,444,578,436.9,578,429.1z"/>
<path d="M577.9,608.2c7.6,0,14.5,0,21.7,0c0,7.3,0,14.4,0,21.8c-7.2,0-14.3,0-21.7,0C577.9,622.7,577.9,615.7,577.9,608.2z"/>
<path d="M599.6,674.8c-7.6,0-14.6,0-21.8,0c0-7.3,0-14.4,0-21.8c7.3,0,14.4,0,21.8,0C599.6,660.3,599.6,667.4,599.6,674.8z"/>
<path d="M578,563.4c7.2,0,14.1,0,21.5,0c0,7.1,0,14.2,0,21.7c-6.8,0-13.9,0-21.5,0C578,578.3,578,571.2,578,563.4z"/>
<path d="M577.8,719.3c0-7,0-13.9,0-21.4c6.9,0,14,0,21.6,0c0,6.7,0,13.8,0,21.4C592.8,719.3,585.7,719.3,577.8,719.3z"/>
<path class="st2" d="M197.2,496c-19.3,0-37.9,0.2-56.5-0.1c-6.7-0.1-10.5-5-10.6-12.3c-0.1-10.5,0-20.9,0-31.9c-7.4,0-14.4,0-21.9,0
	c0,12.9-1.2,26,0.3,38.7c1.9,16.3,16.2,27.6,32.6,27.9c10.9,0.2,21.9,0,33.3,0c0,14.8,0,29.4,0,44.7c-23-0.4-46.4,3.3-68.2-8.3
	c-23.3-12.4-39.3-31.2-41.6-57.5c-2.2-25.1-2.1-50.8,0.2-75.9c2-21.9,16.4-37.3,36.3-47.7c17,20.3,33.6,40.3,50.8,60.8
	c12.3-12.5,24.3-24.5,36.3-36.7c16.8,8.4,33.2,16.5,50.6,25.2c3.9-18.9,7.6-37.1,11.4-55.8c25.1,2.3,47.2,10.5,66.3,26.1
	c15.7,12.8,30.6,26.5,46,39.8c29.9,25.7,68.1,24.3,96.1-3.5c17.2-17,34.2-34.2,51-51c9.6,9.8,18.8,19.1,28.6,29.1
	c0.2-0.9,0.3-0.4,0-0.1c-21.4,21.4-42.2,43.5-64.4,64.1c-31.2,29-79.5,32.4-115.4,9.6c-3.3-2.1-4.9-4.3-4.7-8.3
	c0.4-7.2,0.3-14.5,0.1-21.7c-0.3-12.6-9.7-22.2-22.3-22.2c-37.3-0.2-74.6-0.2-111.9,0c-12.9,0-22.3,9.7-22.4,22.7
	C197.1,466.2,197.2,480.6,197.2,496z"/>
<path class="st3" d="M199.2,116c7.1,15.5,18.9,22.6,35.6,22.1c9.5-0.3,19.1-0.1,29.3-0.1c0.1,19.5,5.5,38.4,19.1,56.2
	c-5.1,4.6-10.5,9-15.3,14c-2,2.1-3.4,5.5-3.5,8.4c-0.4,10.9-0.2,21.8-0.2,33.2c-8.6,0-16.8,0.5-24.8-0.1
	c-10.8-0.8-17.8-8.7-20.3-22.1c-3.6,0-7.3,0-11,0c-3.5,0-6.9,0-11.1,0c0.8,16.7,7.7,29,21.3,38c13.7,9,29.1,6.2,44.1,6.8
	c-3.1,15.3-18.1,24.8-33.9,21.6c-14.4-2.8-28.7-5.8-43.1-8.7c-2.7-0.5-5.4-0.9-8.5-1.4c-1.5,7.3-2.8,14.1-4.3,21.5
	c8.2,1.7,16,3.4,24.5,5.2c0,11.7,1.6,23.6-0.6,34.8c-1.5,7.9-8.2,14.8-13,22.9c-10.2-7.7-19.9-14.7-29.3-22.2
	c-1.5-1.2-1.8-4.5-1.8-6.9c-0.1-36.8,0-73.6-0.3-110.5c0-3.4-2-7.4-4.3-10.1c-3.9-4.9-8.7-9.1-13.2-13.4c-4.5-4.3-6-9.4-3.8-15.2
	c2.2-5.9,7.1-7.6,12.9-7.3c2.5,0.1,5.1,0,8.6,0c0-8-0.2-15.9,0-23.7C153.2,134.3,173.9,114.9,199.2,116z M241.9,171.4
	c-0.1-6.1-5.2-11-11.3-10.9c-6.3,0.1-11.4,5.4-11.1,11.8c0.3,6,5.6,10.8,11.6,10.6C237.2,182.6,242.1,177.4,241.9,171.4z"/>
<path class="st0" d="M241.7,93.3c0-7.8,0-14.5,0-21.2c-15.9-4.4-32.4,2.1-40,16.3c-1.9,3.5-3.8,4.9-7.9,5.1
	c-34.1,1.5-62.1,29.4-63.6,63.3c-0.2,4-1.4,5.9-5,7.9c-19.7,11.1-24.9,38.3-8.3,53.6c11.9,10.9,14.6,22.6,13.1,37
	c-0.1,1.3-0.2,2.6-0.4,5c-13.9-9-25.5-19.1-35.2-31.4c-20.3-25.7-31-54.9-31.5-87.7c-0.3-17.7,9.3-31.6,26.1-37.2
	c4.7-1.6,6.4-4.3,7.4-8.7c6.4-28.4,29.1-46.7,58.1-46.8c32.4-0.1,64.8-0.1,97.1,0c19.6,0,34.8,14.6,35,33.2
	c0.1,19-15.1,33.8-35.1,33.9c-6.8,0-13.5,0.2-20.3,0c-7.1-0.2-11.8-4.8-11.7-11.2c0-6.4,4.7-10.8,11.8-11.1
	C234.6,93.2,237.9,93.3,241.7,93.3z"/>
<path class="st4" d="M711.4,316.9c-14.8,0-29.1,0-43.9,0c0-89.3,0-178.4,0-267.9c14.4,0,29,0,43.9,0
	C711.4,138,711.4,227.1,711.4,316.9z"/>
<path class="st5" d="M331,607.7c-37.2,0-73.9,0-111,0c0-7.3,0-14.4,0-21.8c18.2-1.2,31.6-9.9,40.1-25.8c17.5,6.5,34.9,3.6,45.2-15.4
	c7.5-13.9,3.7-30.8-8.6-41c-13.6-11.3-29.3-10-46.6,3.5c-4.9-2.7-9.5-6-14.5-8c-4.9-2-10.2-2.7-15.7-4.1c0-14.1,0-28.5,0-43.4
	c36.9,0,73.8,0,111.1,0C331,503.5,331,555.3,331,607.7z"/>
<path class="st4" d="M286.4,630.8c0,22.3,0,44.1,0,66.3c-22.1,0-43.9,0-66.5,0c0-14.4,0-28.9,0-43.9c-7.8,0-14.8,0-22.6,0
	c0,14.5,0,29,0,43.9c-22.5,0-44.3,0-66.7,0c0-21.8,0-43.8,0-66.3C182.2,630.8,234,630.8,286.4,630.8z"/>
<path class="st4" d="M555.6,115.9c14.8,0,29.2,0,43.9,0c0,66.9,0,133.6,0,200.8c-14.4,0-29,0-43.9,0
	C555.6,250,555.6,183.3,555.6,115.9z"/>
<path class="st4" d="M443.6,316.5c0-44.5,0-88.8,0-133.4c14.7,0,29,0,43.9,0c0,44.2,0,88.6,0,133.4
	C473.4,316.5,458.9,316.5,443.6,316.5z"/>
<path class="st4" d="M331.8,250.1c14.8,0,29.1,0,43.9,0c0,22.1,0,44.1,0,66.5c-14.5,0-29,0-43.9,0
	C331.8,294.7,331.8,272.8,331.8,250.1z"/>
<path class="st3" d="M197.3,563.1c0-15.2,0-29.5,0-44.4c8.9,0,17.7-0.8,26.3,0.2c11.2,1.4,19.1,12.4,18.2,23.6
	c-0.8,10.9-9.9,20-21,20.5C213.3,563.4,205.6,563.1,197.3,563.1z"/>
<path class="st3" d="M527,360.9c5.3-5.2,10.5-10.8,16.2-15.9c8.5-7.7,20.6-7.5,28.3,0.2c7.7,7.6,8.2,19.9,0.5,28.3
	c-5.3,5.8-11.1,11.1-16.2,16.3C546.3,380.2,537,370.9,527,360.9z"/>
<path class="st2" d="M196.7,607.7c-22.3,0-44.1,0-66.3,0c0-7.5,0-14.8,0-22.1c22.2,0,44,0,66.3,0C196.7,593,196.7,600,196.7,607.7z"
	/>
<path class="st2" d="M168.5,385.1c-5.7,5.6-10.6,10.5-15.7,15.6c-9.3-11.1-18.6-22.4-28-33.6c8.9-4.8,16.3-4.4,23.6,2.6
	C154.3,375.4,161.6,379.9,168.5,385.1z"/>
<path class="st2" d="M222.7,390c-7.2-3.6-13.6-6.8-19.9-10c9.9-18.1,12-19.4,24.8-14.8C226,373.1,224.4,380.9,222.7,390z"/>
<path class="st2" d="M275.4,518.4c6-0.1,11.1,4.8,11.3,10.9c0.2,6.3-5.1,11.6-11.4,11.5c-6-0.1-11-5.2-11-11.2
	C264.4,523.5,269.3,518.5,275.4,518.4z"/>
<path class="st2" d="M528,653.3c-16.4-9.4-32.3-18.5-48.1-27.9c-1.4-0.8-2.9-3.1-2.9-4.8c-0.2-18.6-0.1-37.2-0.1-55.9
	C516.2,568.3,544.5,617.2,528,653.3z"/>
<path class="st6" d="M403.4,653.3c-16.7-35.8,11.7-84.9,51.1-88.5c0,18.9,0.1,37.7-0.1,56.5c0,1.4-1.5,3.3-2.8,4.1
	C435.7,634.7,419.8,643.9,403.4,653.3z"/>
<path class="st4" d="M414.6,672.8c16.1-9.3,31.8-18.4,47.6-27.3c1.7-1,4.7-1.4,6.3-0.6c16.2,9.1,32.2,18.5,48.3,27.8
	C494.6,705.1,438.5,705.3,414.6,672.8z"/>
<path class="st7" d="M241.9,171.4c0.1,6-4.7,11.2-10.8,11.4c-6,0.2-11.3-4.6-11.6-10.6c-0.3-6.3,4.8-11.7,11.1-11.8
	C236.7,160.4,241.8,165.3,241.9,171.4z"/>
</svg>
