<?xml version="1.0" encoding="utf-8"?>
<!-- Generator: Adobe Illustrator 23.0.2, SVG Export Plug-In . SVG Version: 6.00 Build 0)  -->
<svg version="1.1" id="Layer_1" xmlns="http://www.w3.org/2000/svg" xmlns:xlink="http://www.w3.org/1999/xlink" x="0px" y="0px"
	 viewBox="0 0 768 768" style="enable-background:new 0 0 768 768;" xml:space="preserve">
<style type="text/css">
	.st0{fill:#010101;}
	.st1{fill:#D3D3D3;}
	.st2{fill:#75AE2C;}
	.st3{fill:#6F4F1D;}
	.st4{fill:#002060;}
	.st5{fill:#A6AEB9;}
	.st6{fill:#030201;}
</style>
<path class="st0" d="M157.6,191.7c0-8.3,0.1-15.9,0-23.5c-0.1-9.7,3.2-18.1,9.8-24.9c31.3-32.3,62.7-64.7,94.1-97
	c6.8-7,15.1-10.3,24.8-10.3c110.6,0.1,221.3,0,332,0.1c20.5,0,34,14,34,35.2c0.1,45.5,0,91,0,136.5c0,2.5,0,5.1,0,6.1
	c7.7,0,15.3-1,22.5,0.2c19.5,3.1,33.2,14.6,39.4,34.1c6.2,19.3,1.9,36.6-11.7,51c-17.1,18.3-34.8,36-52.2,54
	c-1.6,1.6-3.5,2.9-2.9,4.5c8.6,23.4,18.8,46.3,25.3,70.3c5.9,21.8,8,44.8,11.3,67.3c3.4,23.5,5.8,47.1,9.3,70.5
	c4.3,28.9,9.3,57.8,14,86.7c0.2,1.3,0.2,2.7,0.3,4.4c-140.1,0-280.1,0-420.4,0c-0.6,7.3-0.5,14.5-1.7,21.4
	c-4.5,26.2-26.1,45.1-51.9,45.3c-43.4,0.3-86.9,0.3-130.4,0c-29.4-0.2-53-24.5-53.1-54.7c-0.2-119.6-0.4-239.3,0.1-358.9
	c0.2-59,46-110.4,102.8-117.3C154.4,192.3,155.6,192,157.6,191.7z M179.4,191.7c3.5,0.5,6.8,0.9,10,1.6
	c57.9,11.8,97.2,60.9,97.2,121.8c0.1,103.9,0,207.8,0,311.8c0,2.5,0,5,0,7.6c86.3,0,171.9,0,257.8,0c0-7.3,0-14.3,0-21.9
	c-78.8,0-157.3,0-236,0c0-96.3,0-192,0-288.2c2.7,0,5.1,0,7.5,0c47.7,0,95.4,0,143.1-0.1c2.8,0,6.3-1.1,8.2-3
	c13.2-12.8,28.7-19.1,46.8-19.1c14.1,0,28.2,0.2,42.3-0.2c3.1-0.1,6.9-1.7,9.1-4c20.6-20.9,41-41.9,61.3-63.2
	c2.2-2.3,3.8-6.2,3.8-9.4c0.2-50.6,0.2-101.2,0.2-151.7c0-12.1-3.3-15.4-15.3-15.4c-107.3,0-214.6,0-321.9,0c-2.2,0-4.3,0-7,0
	c0,25.5,0,50.4,0,75.3c0,21.6-13.5,35.5-34.4,35.6c-22.4,0.1-44.8,0-67.2,0c-1.9,0-3.8,0.2-5.6,0.3
	C179.4,177.1,179.4,184.2,179.4,191.7z M265.2,313.6c0.1-54.9-43.1-99.9-96.1-100.1c-53.6-0.2-97.3,44.4-97.4,99.4
	c-0.1,54.9,43.1,99.9,96.1,100.1C221.3,413.3,265,368.6,265.2,313.6z M69.7,387.9c0.7-0.9,1.3-1.7,1.9-2.6c0,0.9,0,1.8,0,2.8
	c0,92.8,0,185.7,0,278.5c0,20.6,13.8,34.6,34,34.6c41.4,0.1,82.9,0,124.3,0c21.9,0,35.2-13.7,35.2-36.2c0-91.5,0-182.9,0-274.4
	c0-1.9-0.2-3.8-0.3-6c-6.1,6.6-11.9,12.7-17.3,19.1c-1.9,2.4-3.7,5.8-3.8,8.7c-0.3,21.2-0.1,42.5-0.2,63.7
	c0,16.6-8.3,25.4-24.3,25.4c-34.1,0-68.1,0-102.2,0c-15.6,0-24.1-8.8-24.1-24.8c0-21.5,0.1-43-0.1-64.4c0-2.3-0.5-5.5-1.9-6.8
	C84.2,399.5,76.8,393.8,69.7,387.9z M662.8,504.3c-1.7-45.9-12.4-88.8-33.5-129.6c-21.2,21.9-41.2,43.3-62.1,63.8
	c-8.3,8.1-14,16.3-11.8,28.5c0.1,0.3-0.4,0.7-0.6,1c-6.9,0-13.7,0-20.8,0c0-2.7,0-5,0-7.3c0-23.1,0.1-46.2,0-69.3
	c-0.1-13.3-9.1-22.6-21.5-22.2c0,33.2,0,66.4,0,99.7c0,18.2,7,33.1,20.7,44.5c6.8,5.7,13.7,11.1,20.4,16.9c3,2.6,5.6,3.3,9.6,2.1
	c17.2-5.1,34.5-9.7,51.7-14.6C630.9,513.5,646.8,508.9,662.8,504.3z M555.7,420c6.6-7.1,11.8-12.8,17.2-18.4
	c37.5-38.7,75-77.5,112.7-116.1c7.5-7.7,11.5-16.5,9.2-27.4c-2.3-10.8-8.7-18.1-19-21.2c-10.7-3.3-19.8-0.2-27.6,7.8
	c-35,36.1-70,72.2-105,108.3c-1.1,1.1-2,2.4-3.4,4C559.8,373.1,554.9,396.2,555.7,420z M682.5,634.4c-5.8-36-11.5-71.6-17.4-107.7
	c-33.3,9.4-66.1,18.6-98.4,27.7c0,27.4,0,53.8,0,80C605.5,634.4,643.7,634.4,682.5,634.4z M329.9,390.6c40.2,0,79.8,0,117.9,0
	c0.7-14.8,1.3-29.3,2-43.6c-39.4,0-79.6,0-119.8,0C329.9,361.6,329.9,375.8,329.9,390.6z M221.9,422c-35.9,17.6-71.3,17.5-106.9,0.1
	c0,19.5,0,38.3,0,57.1c35.8,0,71.2,0,106.9,0C221.9,460.3,221.9,441.7,221.9,422z M454.2,413.4c-42.5,0-83.3,0-124.2,0
	c0,14.8,0,29.2,0,44c26.5,0,52.6,0,78.8-0.1c1.4,0,3.1-0.7,4.1-1.7C426.5,441.9,439.9,428.1,454.2,413.4z M491,411.8
	c-6.4,0.8-58.6,51.9-69.3,67c12.7,13.1,25.3,26.1,38.4,39.7c6.2-6.6,12.4-14.3,19.7-20.7c8.9-7.8,13-15.8,11.7-28.8
	C489.6,450.3,491,431.2,491,411.8z M329.9,590c36.1,0,71.6,0,107.1,0c0-11.4,0-22.3,0-34c-8.5,3.4-16.5,6.7-24.6,10
	c-9.7,3.9-19.2,3.2-27.2-3.5c-5-4.2-8.5-10.2-13.2-16c-13.1,0-27.5,0-42.1,0C329.9,561.1,329.9,575.4,329.9,590z M501.3,507.6
	c-2.1,1.8-3.4,2.9-4.7,4c-12.3,11.6-24.5,23.2-36.7,34.9c-0.7,0.7-1.1,2-1.1,3c-0.1,13.5,0,27,0,40.6c14.6,0,28.6,0,42.5,0
	C501.3,562.7,501.3,535.8,501.3,507.6z M196,146.9c19.6,0,39,0.1,58.4-0.1c5.9-0.1,10.4-3.6,10.5-9.5c0.5-20.6,0.2-41.2,0.2-61.8
	C242,99.4,219.1,122.9,196,146.9z M330,523.9c14.6,0,28.5,0.1,42.3-0.1c1.6,0,4.1-1.1,4.6-2.3c5.6-13.7,10.9-27.5,16.3-41.4
	c-21.6,0-42.5,0-63.2,0C330,494.8,330,509,330,523.9z M540.8,324.5c-12.3,0-22.7-1.2-32.6,0.4c-7.6,1.2-15.6,4.6-21.9,9.2
	c-16.1,11.8-18.4,29.6-16.3,48.3c0.6,5.5,5.1,8.7,10.8,8.4c5.9-0.3,9.5-4,10.1-10c0.5-4.3,0-8.8,0.2-13.1
	c0.5-10.5,8.3-20.7,18.3-20.5c9.1,0.2,13.7-4.8,18.9-10.3C531.9,333,535.7,329.5,540.8,324.5z M408.5,500.3
	c-4.6,11.8-9.2,23.2-13.4,34.8c-2.4,6.5,2.5,12.6,8.5,10.4c11.9-4.3,23.5-9.5,35-14.2C428.4,520.9,418.7,510.8,408.5,500.3z
	 M523.7,534c0,19.5,0,37.8,0,56c7.2,0,14,0,21.1,0c0-12.1,0.1-23.8-0.1-35.5c0-1.7-1.2-3.9-2.5-5.1
	C536.4,544.3,530.4,539.6,523.7,534z"/>
<path class="st1" d="M179.4,191.7c0-7.5,0-14.6,0-22.3c1.8-0.1,3.7-0.3,5.6-0.3c22.4,0,44.8,0,67.2,0c20.9-0.1,34.4-14,34.4-35.6
	c0-24.9,0-49.8,0-75.3c2.6,0,4.8,0,7,0c107.3,0,214.6,0,321.9,0c12,0,15.3,3.3,15.3,15.4c0,50.6,0.1,101.2-0.2,151.7
	c0,3.2-1.6,7.1-3.8,9.4c-20.2,21.3-40.7,42.3-61.3,63.2c-2.2,2.3-6,3.9-9.1,4c-14.1,0.4-28.2,0.2-42.3,0.2
	c-18.1,0-33.6,6.3-46.8,19.1c-2,1.9-5.4,3-8.2,3c-47.7,0.2-95.4,0.1-143.1,0.1c-2.4,0-4.8,0-7.5,0c0,96.2,0,191.9,0,288.2
	c78.7,0,157.2,0,236,0c0,7.6,0,14.6,0,21.9c-85.9,0-171.5,0-257.8,0c0-2.7,0-5.2,0-7.6c0-103.9,0-207.8,0-311.8
	c0-60.9-39.3-110-97.2-121.8C186.2,192.6,182.9,192.2,179.4,191.7z M308.4,146.5c100.6,0,200.6,0,300.5,0c0-22.2,0-44,0-65.7
	c-100.4,0-200.4,0-300.5,0C308.4,102.8,308.4,124.5,308.4,146.5z M609.1,169.5c-100.6,0-200.6,0-300.5,0c0,7.4,0,14.4,0,21.4
	c100.4,0,200.4,0,300.5,0C609.1,183.6,609.1,176.8,609.1,169.5z M308.4,235.1c100.7,0,200.7,0,300.4,0c0-7.5,0-14.6,0-21.2
	c-100.5,0-200.5,0-300.4,0C308.4,221.3,308.4,228.1,308.4,235.1z M308.7,258c0,7.8,0,14.8,0,21.4c57.5,0,114.5,0,171.1,0
	c0-7.5,0-14.6,0-21.4C422.4,258,365.6,258,308.7,258z"/>
<path class="st2" d="M265.2,313.6c-0.1,55-43.9,99.7-97.5,99.4c-53-0.3-96.2-45.3-96.1-100.1c0.1-55,43.9-99.7,97.4-99.4
	C222.1,213.7,265.3,258.7,265.2,313.6z M179.2,390.6c0-6.7-0.3-12.9,0.2-19c0.2-2.1,1.9-4.9,3.7-5.9c10.9-6.2,17.4-15.3,17.5-28.2
	c0.1-13.1-6-22.9-17.4-28.9c-6.4-3.4-12.8-6.6-19.1-9.9c-4.7-2.4-7.5-6.2-5.9-11.7c1.8-6.2,6.8-7.5,12.4-6.8c5.4,0.7,8.4,4,8.6,9.7
	c0.2,4,0,8.1,0,11.9c7.7,0,14.5,0,21.2,0c1.8-18.3-1.5-33.7-19.4-41.7c-1-0.5-1.6-3-1.7-4.7c-0.2-6.4-0.1-12.8-0.1-19.3
	c-7.4,0-14.3,0-21.5,0c0,6.5,0.3,12.8-0.2,18.9c-0.2,2.1-1.9,4.9-3.7,5.9c-10.8,6.3-17.4,15.3-17.5,28.2
	c-0.1,13.5,6.4,23.2,17.9,29.3c6.2,3.2,12.4,6.4,18.6,9.6c4.7,2.4,7.5,6.2,5.9,11.7c-1.8,6.2-6.8,7.5-12.4,6.8
	c-5.4-0.7-8.4-4.1-8.6-9.7c-0.2-4,0-8.1,0-11.9c-7.7,0-14.5,0-21.2,0c-1.9,18.4,1.6,33.6,19.5,41.7c1,0.5,1.6,3.1,1.6,4.7
	c0.2,6.4,0.1,12.8,0.1,19.4C164.9,390.6,171.6,390.6,179.2,390.6z"/>
<path class="st1" d="M69.7,387.9c7.2,5.9,14.5,11.5,21.4,17.7c1.5,1.3,1.9,4.5,1.9,6.8c0.1,21.5,0.1,43,0.1,64.4
	c0,16.1,8.5,24.8,24.1,24.8c34,0,68.1,0,102.2,0c15.9,0,24.3-8.7,24.3-25.4c0-21.3-0.1-42.5,0.2-63.7c0-3,1.8-6.4,3.8-8.7
	c5.3-6.5,11.2-12.5,17.3-19.1c0.1,2.1,0.3,4,0.3,6c0,91.5,0,182.9,0,274.4c0,22.4-13.4,36.2-35.2,36.2c-41.4,0-82.9,0-124.3,0
	c-20.1,0-34-14.1-34-34.6c-0.1-92.8,0-185.7,0-278.5c0-0.9,0-1.8,0-2.8C71,386.2,70.3,387,69.7,387.9z M243.7,602.2
	c0-18.3,0.1-36.5,0-54.7c-0.1-14.3-8.9-23.5-22.7-23.5c-34.9-0.1-69.9-0.1-104.8,0c-14.1,0-23,9.3-23,23.9
	c-0.1,35.8-0.1,71.6,0,107.4c0,14.7,8.8,23.9,23,23.9c34.7,0.1,69.4,0.1,104.2,0c14.6,0,23.3-9.1,23.4-24.2
	C243.7,637.3,243.7,619.7,243.7,602.2z"/>
<path class="st3" d="M662.8,504.3c-16.1,4.6-32,9.2-47.8,13.6c-17.2,4.8-34.5,9.4-51.7,14.6c-4,1.2-6.6,0.5-9.6-2.1
	c-6.7-5.8-13.6-11.2-20.4-16.9c-13.7-11.5-20.7-26.3-20.7-44.5c-0.1-33.2,0-66.4,0-99.7c12.4-0.3,21.4,9,21.5,22.2
	c0.1,23.1,0,46.2,0,69.3c0,2.3,0,4.6,0,7.3c7.1,0,13.9,0,20.8,0c0.2-0.3,0.7-0.7,0.6-1c-2.2-12.3,3.5-20.4,11.8-28.5
	c20.9-20.5,41-42,62.1-63.8C650.5,415.5,661.1,458.4,662.8,504.3z"/>
<path class="st4" d="M555.7,420c-0.7-23.8,4.2-46.9-16-63.1c1.3-1.6,2.3-2.9,3.4-4c35-36.1,70-72.2,105-108.3
	c7.8-8,16.9-11.1,27.6-7.8c10.4,3.2,16.8,10.5,19,21.2c2.3,10.9-1.7,19.7-9.2,27.4c-37.6,38.6-75.1,77.4-112.7,116.1
	C567.5,407.2,562.3,412.9,555.7,420z"/>
<path class="st2" d="M682.5,634.4c-38.8,0-77,0-115.8,0c0-26.3,0-52.6,0-80c32.3-9.1,65.1-18.3,98.4-27.7
	C671,562.9,676.7,598.5,682.5,634.4z"/>
<path class="st2" d="M329.9,390.6c0-14.7,0-29,0-43.6c40.3,0,80.4,0,119.8,0c-0.6,14.3-1.3,28.8-2,43.6
	C409.7,390.6,370.1,390.6,329.9,390.6z"/>
<path class="st4" d="M221.9,422c0,19.7,0,38.3,0,57.2c-35.7,0-71.1,0-106.9,0c0-18.9,0-37.6,0-57.1C150.6,439.5,186,439.6,221.9,422
	z"/>
<path class="st2" d="M454.2,413.4c-14.4,14.7-27.8,28.5-41.3,42.2c-1,1-2.7,1.7-4.1,1.7c-26.1,0.1-52.3,0.1-78.8,0.1
	c0-14.8,0-29.2,0-44C370.9,413.4,411.8,413.4,454.2,413.4z"/>
<path class="st4" d="M491,411.8c0,19.5-1.4,38.5,0.5,57.3c1.3,13-2.8,21-11.7,28.8c-7.3,6.4-13.5,14.1-19.7,20.7
	c-13.2-13.6-25.8-26.6-38.4-39.7C432.4,463.7,484.6,412.6,491,411.8z"/>
<path class="st2" d="M329.9,590c0-14.6,0-28.8,0-43.5c14.5,0,29,0,42.1,0c4.7,5.8,8.2,11.8,13.2,16c8,6.8,17.5,7.4,27.2,3.5
	c8.1-3.3,16.1-6.5,24.6-10c0,11.6,0,22.6,0,34C401.5,590,366,590,329.9,590z"/>
<path class="st2" d="M501.3,507.6c0,28.1,0,55.1,0,82.4c-13.9,0-27.9,0-42.5,0c0-13.6,0-27.1,0-40.6c0-1,0.4-2.3,1.1-3
	c12.2-11.7,24.4-23.3,36.7-34.9C497.8,510.5,499.2,509.5,501.3,507.6z"/>
<path class="st2" d="M196,146.9c23.2-23.9,46-47.5,69.1-71.3c0,20.6,0.3,41.2-0.2,61.8c-0.1,5.9-4.6,9.5-10.5,9.5
	C234.9,147,215.5,146.9,196,146.9z"/>
<path class="st2" d="M330,523.9c0-14.8,0-29.1,0-43.8c20.7,0,41.6,0,63.2,0c-5.4,13.8-10.7,27.7-16.3,41.4c-0.5,1.3-3,2.3-4.6,2.3
	C358.4,524,344.6,523.9,330,523.9z"/>
<path class="st3" d="M540.8,324.5c-5.1,5-8.9,8.5-12.5,12.3c-5.3,5.5-9.8,10.6-18.9,10.3c-10-0.3-17.7,9.9-18.3,20.5
	c-0.2,4.4,0.3,8.8-0.2,13.1c-0.6,6-4.3,9.7-10.1,10c-5.6,0.3-10.1-2.9-10.8-8.4c-2.1-18.6,0.2-36.5,16.3-48.3
	c6.3-4.6,14.3-8,21.9-9.2C518.1,323.3,528.5,324.5,540.8,324.5z"/>
<path class="st5" d="M408.5,500.3c10.2,10.5,19.9,20.5,30,31c-11.5,4.7-23.1,9.9-35,14.2c-6,2.2-10.8-3.9-8.5-10.4
	C399.3,523.6,403.9,512.1,408.5,500.3z"/>
<path class="st2" d="M523.7,534c6.8,5.6,12.8,10.3,18.5,15.4c1.3,1.2,2.5,3.3,2.5,5.1c0.2,11.7,0.1,23.4,0.1,35.5
	c-7.1,0-13.9,0-21.1,0C523.7,571.8,523.7,553.5,523.7,534z"/>
<path d="M308.4,146.5c0-22.1,0-43.7,0-65.7c100.2,0,200.2,0,300.5,0c0,21.7,0,43.5,0,65.7C509,146.5,409,146.5,308.4,146.5z
	 M329.9,124.4c86.2,0,171.8,0,257.5,0c0-7.4,0-14.4,0-21.4c-86,0-171.6,0-257.5,0C329.9,110.2,329.9,117,329.9,124.4z"/>
<path d="M609.1,169.5c0,7.3,0,14.2,0,21.4c-100.2,0-200.2,0-300.5,0c0-7,0-14,0-21.4C408.5,169.5,508.5,169.5,609.1,169.5z"/>
<path d="M308.4,235.1c0-7,0-13.9,0-21.2c99.9,0,199.9,0,300.4,0c0,6.7,0,13.7,0,21.2C509.1,235.1,409.1,235.1,308.4,235.1z"/>
<path d="M308.7,258c56.9,0,113.7,0,171.1,0c0,6.8,0,13.9,0,21.4c-56.6,0-113.6,0-171.1,0C308.7,272.9,308.7,265.8,308.7,258z"/>
<path class="st6" d="M179.2,390.6c-7.6,0-14.2,0-21.5,0c0-6.6,0.1-13-0.1-19.4c-0.1-1.6-0.6-4.2-1.6-4.7
	c-17.9-8.1-21.3-23.3-19.5-41.7c6.7,0,13.5,0,21.2,0c0,3.8-0.1,7.9,0,11.9c0.2,5.6,3.2,9,8.6,9.7c5.6,0.7,10.6-0.6,12.4-6.8
	c1.6-5.5-1.2-9.3-5.9-11.7c-6.2-3.2-12.4-6.3-18.6-9.6c-11.6-6.1-18.1-15.8-17.9-29.3c0.1-13,6.7-22,17.5-28.2
	c1.8-1,3.5-3.8,3.7-5.9c0.5-6.1,0.2-12.4,0.2-18.9c7.3,0,14.1,0,21.5,0c0,6.5-0.1,12.9,0.1,19.3c0.1,1.6,0.6,4.2,1.7,4.7
	c18,8,21.3,23.4,19.4,41.7c-6.7,0-13.5,0-21.2,0c0-3.8,0.1-7.9,0-11.9c-0.2-5.6-3.2-9-8.6-9.7c-5.6-0.7-10.6,0.6-12.4,6.8
	c-1.6,5.5,1.2,9.3,5.9,11.7c6.4,3.3,12.8,6.5,19.1,9.9c11.4,6,17.5,15.8,17.4,28.9c-0.1,12.9-6.6,22-17.5,28.2
	c-1.8,1-3.6,3.8-3.7,5.9C178.8,377.7,179.2,383.9,179.2,390.6z"/>
<path d="M243.7,602.2c0,17.5,0,35.1,0,52.7c-0.1,15.2-8.7,24.2-23.4,24.2c-34.7,0-69.4,0.1-104.2,0c-14.2,0-23-9.2-23-23.9
	c-0.1-35.8-0.1-71.6,0-107.4c0-14.6,8.9-23.8,23-23.9c35-0.1,69.9-0.1,104.8,0c13.8,0,22.6,9.3,22.7,23.5
	C243.8,565.7,243.7,583.9,243.7,602.2z M221.8,656.7c0-22.4,0-44.2,0-65.9c-7.2,0-14,0-20.7,0c0,22.2,0,43.9,0,65.9
	C208.1,656.7,214.7,656.7,221.8,656.7z M135.9,546.5c-7.4,0-14.2,0-20.9,0c0,7.4,0,14.4,0,21.3c7.2,0,14,0,20.9,0
	C135.9,560.5,135.9,553.7,135.9,546.5z M158.1,546.2c0,7.6,0,14.6,0,21.6c7.2,0,14,0,20.7,0c0-7.4,0-14.4,0-21.6
	C171.7,546.2,165.1,546.2,158.1,546.2z M200.9,567.8c7.5,0,14.2,0,20.8,0c0-7.5,0-14.4,0-21.2c-7.2,0-14,0-20.8,0
	C200.9,553.8,200.9,560.6,200.9,567.8z M114.8,612.1c7.4,0,14.2,0,20.9,0c0-7.4,0-14.4,0-21.3c-7.2,0-14,0-20.9,0
	C114.8,598.1,114.8,604.9,114.8,612.1z M178.7,612.3c0-7.7,0-14.7,0-21.5c-7.2,0-14,0-20.6,0c0,7.5,0,14.4,0,21.5
	C165.2,612.3,171.8,612.3,178.7,612.3z M135.9,635.2c-7.4,0-14.2,0-20.9,0c0,7.4,0,14.4,0,21.3c7.2,0,14,0,20.9,0
	C135.9,649.2,135.9,642.4,135.9,635.2z M158,635c0,7.5,0,14.5,0,21.6c7.1,0,13.9,0,20.8,0c0-7.4,0-14.3,0-21.6
	C171.8,635,165.2,635,158,635z"/>
<path class="st4" d="M329.9,124.4c0-7.3,0-14.2,0-21.4c85.8,0,171.4,0,257.5,0c0,7,0,14,0,21.4C501.7,124.4,416.1,124.4,329.9,124.4
	z"/>
<path class="st2" d="M221.8,656.7c-7.1,0-13.7,0-20.7,0c0-22,0-43.7,0-65.9c6.7,0,13.5,0,20.7,0
	C221.8,612.6,221.8,634.3,221.8,656.7z"/>
<path class="st2" d="M135.9,546.5c0,7.2,0,14,0,21.3c-6.9,0-13.7,0-20.9,0c0-6.9,0-13.8,0-21.3C121.7,546.5,128.5,546.5,135.9,546.5
	z"/>
<path class="st2" d="M158.1,546.2c7.1,0,13.7,0,20.7,0c0,7.2,0,14.2,0,21.6c-6.7,0-13.5,0-20.7,0
	C158.1,560.9,158.1,553.9,158.1,546.2z"/>
<path class="st2" d="M190.4,559.5c0-7.1,0-14,0-21.2c6.8,0,13.6,0,20.8,0c0,6.8,0,13.8,0,21.2C204.6,559.5,197.8,559.5,190.4,559.5z
	"/>
<path class="st2" d="M114.8,612.1c0-7.2,0-14,0-21.3c6.9,0,13.7,0,20.9,0c0,6.9,0,13.9,0,21.3C129,612.1,122.3,612.1,114.8,612.1z"
	/>
<path class="st2" d="M178.7,612.3c-6.9,0-13.5,0-20.6,0c0-7,0-14,0-21.5c6.6,0,13.4,0,20.6,0C178.7,597.7,178.7,604.7,178.7,612.3z"
	/>
<path class="st2" d="M135.9,635.2c0,7.2,0,14,0,21.3c-6.9,0-13.7,0-20.9,0c0-6.9,0-13.9,0-21.3C121.7,635.2,128.5,635.2,135.9,635.2
	z"/>
<path class="st2" d="M158,635c7.2,0,13.8,0,20.8,0c0,7.2,0,14.2,0,21.6c-6.9,0-13.6,0-20.8,0C158,649.5,158,642.5,158,635z"/>
</svg>
