<?xml version="1.0" encoding="utf-8"?>
<!-- Generator: Adobe Illustrator 23.0.2, SVG Export Plug-In . SVG Version: 6.00 Build 0)  -->
<svg version="1.1" id="Layer_1" xmlns="http://www.w3.org/2000/svg" xmlns:xlink="http://www.w3.org/1999/xlink" x="0px" y="0px"
	 viewBox="0 0 768 768" style="enable-background:new 0 0 768 768;" xml:space="preserve">
<style type="text/css">
	.st0{fill:#040403;}
	.st1{fill:#D3D3D3;}
	.st2{fill:#010101;}
	.st3{fill:#040404;}
	.st4{fill:#050505;}
	.st5{fill:#808080;}
	.st6{fill:#7B869B;}
	.st7{fill:#75AE2C;}
	.st8{fill:#838EA6;}
	.st9{fill:#030404;}
	.st10{fill:#020303;}
	.st11{fill:#020203;}
	.st12{fill:#030203;}
	.st13{fill:#002060;}
	.st14{fill:#033482;}
	.st15{fill:#55CCC9;}
</style>
<path class="st0" d="M658.9,485.9c6.3,1.1,9,5,9,11.3c-0.1,36.8,0.1,73.7-0.1,110.5c-0.1,19.3-15.2,35-34.4,36.9
	c-3.4,0.3-6.9,0.4-10.3,0.4c-88.1,0-176.2,0-264.3,0c-2.5,0-5.1,0-8,0c1.5,22.1-13.4,31.4-29.9,39c-22.3,10.2-46.2,14-70.4,16.8
	c-1.5,0.2-3,0.9-4.4,1.3c-6,0-12,0-18.1,0c-2-3-4-6.1-6.1-9.1c2.1-8.1,4.1-9.4,12.3-10.3c16.2-1.9,32.6-3,48.4-6.7
	c13.8-3.3,27-9.3,40.1-15c3.6-1.6,7.6-6.1,8.2-9.8c1.2-8.3,0.4-16.8,0.4-23.9C251.8,656.4,173,656.4,93.9,627c0,6,0.3,13-0.1,20.1
	c-0.3,5.6,1.8,9.8,6.4,12.3c7.9,4.3,15.8,8.6,24.2,11.7c20.1,7.2,41.3,9.6,62.5,11.3c6.7,0.5,10.2,3.8,10.7,10.4
	c-2.7,3.1-5.5,6.2-8.2,9.3c-4.3,0-8.6,0-12.9,0c-7-1.3-14-2.6-21-3.8c-19.7-3.3-39.2-7.4-57-17c-5.8-3.1-11.1-7.3-15.9-11.7
	c-5.8-5.3-8.1-12.3-8-20.2c0.2-16.3,0.3-32.5-0.1-48.8c-0.3-10.8,3.8-19.5,12.2-25.5c8.1-5.8,17.1-10.3,25.5-15.3
	c-2.1-24.2-1.8-49-0.1-74.7c-3.6-1.7-8.6-3.5-13-6.3c-5.9-3.7-11.8-7.8-16.9-12.5c-5.4-4.9-7.7-11.6-7.6-19.1
	c0.1-16.7,0.3-33.4-0.1-50.1c-0.2-10.6,4.2-18.8,12.3-24.8c6.1-4.6,13-8.2,19.8-11.7c3.1-1.6,4.4-3,4.4-6.5
	c-0.3-12.2,0.2-24.4-0.2-36.6c-0.3-11,4.2-19.4,12.6-26.1c14.3-11.4,31.3-16.5,48.7-20.7c6.9-1.7,13.9-2.8,21.6-4.3
	c0-2.1,0-4.4,0-6.7c0-57.4,0-114.8,0-172.1c0-27.9,15.4-43.2,43.5-43.2c23.4,0,46.8,0,70.3,0c8.6,0,10.9,1.8,13.1,10
	c-1.6,7-6.1,9.4-13.1,9.4c-23.8-0.2-47.6-0.1-71.4-0.1c-15.6,0-22.9,7.2-22.9,22.7c0,35.5,0,71,0,106.4c0,21.6,0.1,43.2,0.2,64.8
	c0,2,0,4.1,0,5.3c16.3,0,32.2-0.3,48,0.1c29,0.8,57.7,4.2,85.3,13.9c4.5,1.6,7.7,1.3,10.6-2.4c4.9-1.4,9.7-3.5,14.7-3.9
	c8.5-0.6,17.1-0.4,25.7-0.1c13.6,0.3,25.3,10.8,26.8,23.8c1.7,14.6-6.9,27.8-20.7,31.2c-3.3,0.8-6.8,0.8-10.2,1.2
	c-2.6-0.3-6.1-1.8-6.2,2.7c-0.2,11.4-0.1,22.8-0.1,34.5c2.6,0,4.4,0,6.3,0c1.7,0.1,3.4,0.3,5.1,0.4c13.4,0.9,24.5,11.4,25.8,24.2
	c1.5,14.5-6.7,28.3-20.6,30.4c-14.9,2.3-30.2,3.5-45-2c-2.4-1.9-4.9-3.7-7.7-5.8c0,12.8,0,24.9,0,37.6c2.8-2.2,5.1-4,7.4-5.8
	c14-5.9,28.7-4.3,43-2.7c14,1.5,23.3,13.8,23,27.9c-0.3,16.3-12,26.7-31.2,27.6c-1.9,0-3.7,0-5.9,0c0,6.4,0,12.5,0,18.9
	c2.2,0,4,0,5.9,0c1.1,0.1,2.1,0.1,3.2,0.2c15.4,0.5,27.2,11.5,27.9,26.2c0.8,15.4-9.3,27.6-24.9,29.7c-5.5,0.7-11.1,0.6-16.6,0.8
	c-2.3,0.1-5-0.6-6.8,0.4c-9,5.1-17.8,10.6-25.9,15.5c0,12.6,0,25.3,0,38.1c3.1,0,5,0,6.9,0c0.9,0.1,1.7,0.3,2.5,0.3
	c89.5,0,179.1,0,268.6,0c12.8,0,20.4-7.7,20.4-20.5c0.1-35.5,0-71,0-106.5C648.6,490,651,487.1,658.9,485.9z M393.2,533.8
	c-1.9,0-3.7,0-6.3,0c0,4.2,0.2,8,0,11.8c-0.3,4.9,1.6,6.7,6.4,5.4c7.9,0,11.9-3,11.6-9C404.7,536.2,401,533.7,393.2,533.8z
	 M382.8,289.5c-2.8,0-5.6,0-8.4,0c3.6,4.7,7.3,8.6,9.8,13.2c2,3.6,4.1,4.5,7.6,3.6c1.1,0.1,2.1,0.3,3.2,0.3c6.4-0.2,9.8-3.1,10-8.4
	c0.2-5.6-3.4-8.8-10-8.9C390.9,289.2,386.9,289.4,382.8,289.5z M372.5,400c8.1,0,16.2,0.3,24.3,0.1c5-0.1,7.9-3,8.1-8
	c0.2-5.4-2.7-8.4-7.9-8.9c-3.4-0.3-6.8,0.1-10.2,0.2c-1.8,0.2-4.2-0.3-5.4,0.7c-5.2,4.1-10.1,8.7-16,13.9
	C368.3,398.9,370.4,399.5,372.5,400z M384.2,475.5c3.8,0.1,7.7,0.3,11.5,0.2c5.5-0.1,9-2.8,9.2-8.5c0.2-5.8-3.5-8.6-8.7-9
	c-5.7-0.5-11.5-0.4-17.3-0.1c-3.9,0.2-7.7,1.4-11.6,2.1c-0.8,1.9-2.3,5.4-2.1,5.5C371.6,468.9,375.3,477.4,384.2,475.5z M249.9,346
	c31.2-0.8,62.6-2.9,92.6-14.1c7.3-2.7,14.4-6.8,20.7-11.3c6.4-4.6,6.3-9.4-0.2-14c-6-4.3-12.7-7.9-19.6-10.7
	c-21.7-8.6-44.7-12-67.9-13.4c-38.6-2.3-76.9-1-114,11c-9.4,3-18.4,8.1-26.7,13.5c-6.3,4.1-6.1,9,0.2,13.4
	c6.4,4.5,13.4,8.5,20.8,11.3C185.9,343.1,217.5,345.3,249.9,346z M130.3,343.4c0,5.7,0.4,12.1-0.1,18.5c-0.6,7.2,2.2,12.5,8.3,15.3
	c11.1,5,22.1,10.7,33.8,13.6c48.1,12,96.6,11.7,145,2.3c14.7-2.9,29.3-6.9,42-15.5c3.2-2.2,7.4-5.5,7.8-8.8
	c1.1-8.7,0.4-17.6,0.4-25.1C288.1,372.8,209.7,373,130.3,343.4z M130.3,525.6c0,6,0.3,12.8-0.1,19.6c-0.3,5.8,1.8,10.4,6.7,12.9
	c9.1,4.6,18.2,9.9,27.9,12.6c50.1,14.2,100.9,14.4,151.6,4.3c14.1-2.8,27.6-8.8,41-14.3c4.1-1.7,9-6.3,9.6-10.2
	c1.5-8.3,0.5-17.1,0.5-24.7C288.2,554.9,209.8,555,130.3,525.6z M93.9,424.2c0,5.7,0.5,12.3-0.1,18.8c-0.6,7,2.3,12,8.1,14.7
	c10,4.8,20.1,10,30.7,12.8c49,12.9,98.5,12.7,148.1,3.1c14.8-2.8,29.3-6.9,42-15.4c3.5-2.4,7.7-6.2,8.3-9.9
	c1.2-8.2,0.4-16.8,0.4-24.1C251.9,453.5,173.4,453.7,93.9,424.2z M211.8,630c16.9-1.3,33.9-2,50.7-4.2c19.6-2.5,39-6.5,56.5-16.4
	c4.2-2.3,7.8-5.9,11.1-9.5c1-1.1,0.8-4.2,0-5.7c-0.5-1-3.3-1.5-4.9-1.1c-42,9.3-84.4,9.9-126.9,4.5c-23.7-3-46.9-8.1-67.9-20.4
	c-1.2-0.7-3.1-1.3-4.1-0.8c-9.4,4.5-19.2,8.5-27.9,14.1c-6.4,4.1-6.2,9,0.2,13.4c6.8,4.7,14.2,8.9,22,11.7
	C149.9,626.5,180.6,629,211.8,630z M248.1,527.9c26.9-0.2,52.3-1.7,76.8-8.6c11.7-3.3,23.2-7.7,33.9-13.4c11.9-6.4,11.6-13,0.3-20.3
	c-5.2-3.3-11-5.6-16.6-8.4c-5.5-2.7-10.6-3-16,1c-3.4,2.5-7.6,3.9-11.6,5.4c-34.5,13.1-70.6,16-107,15.8c-24.1-0.1-48-2.4-71.6-7.8
	c-1.4-0.3-4.1,0-4.4,0.8c-0.8,1.7-1.2,4.3-0.4,5.8c1.2,2.4,3.3,4.7,5.6,6c6.3,3.6,12.6,7.4,19.4,9.8
	C186.5,525.2,217.9,527.6,248.1,527.9z M285.4,419.5c-0.1-0.4-0.1-0.8-0.2-1.2c-5.5,0-11-0.3-16.5,0c-31.5,1.8-62.7,0-93.5-7
	c-23.5-5.3-46.8-11.5-62.3-32.9c-2.3,1.1-4.6,2.2-6.8,3.4c-2.2,1.3-4.4,2.6-6.4,4.2c-7.6,6-8,11,0.2,16.1
	c8.4,5.3,17.6,9.9,27.1,12.8c38.9,11.9,79,13.3,119.3,9.8C259.3,423.7,272.3,421.3,285.4,419.5z"/>
<path class="st1" d="M382.9,571c5.5-0.3,11.1-0.1,16.6-0.8c15.6-2,25.6-14.3,24.9-29.7c-0.7-14.6-12.6-25.7-27.9-26.2
	c-1.1,0-2.1-0.1-3.2-0.2c0-6.3,0-12.6,0-18.9c19.2-0.9,30.9-11.3,31.2-27.6c0.2-14.1-9-26.3-23-27.9c-14.3-1.6-29-3.2-43,2.7
	c0.1-8.7,0.2-17.3,0.3-26c14.8,5.5,30.1,4.3,45,2c13.9-2.1,22-16,20.6-30.4c-1.3-12.9-12.4-23.3-25.8-24.2c-1.7-0.1-3.4-0.3-5.1-0.4
	c0-12.4,0-24.8,0-37.2c3.4-0.4,6.9-0.4,10.2-1.2c13.8-3.4,22.4-16.5,20.7-31.2c-1.5-13-13.1-23.5-26.8-23.8
	c-8.6-0.2-17.2-0.5-25.7,0.1c-5,0.4-9.8,2.5-14.7,3.9c-4.2-1.6-8.3-3.5-12.6-4.8c-34.3-10.4-69.5-13.1-105.1-13.1
	c-8.7,0-17.5,0.6-26.2,1c-0.1-21.6-0.2-43.2-0.2-64.8c0-35.5,0-71,0-106.4c0-15.5,7.3-22.7,22.9-22.7c23.8,0,47.6-0.2,71.4,0.1
	c7,0.1,11.5-2.4,13.1-9.4c8.1,0.1,16.2,0.1,24.3,0.2c1.5,7.3,6.4,9.1,13.3,9.1c88.8-0.1,177.5-0.1,266.3-0.1
	c17.8,0,24.3,6.5,24.3,24.5c0,119.9,0,239.8,0,359.7c0,9.6,1.4,11.5,10.3,14.3c0,8,0,16.1,0.1,24.1c-8,1.3-10.3,4.1-10.4,12.5
	c0,35.5,0,71,0,106.5c0,12.7-7.6,20.4-20.4,20.5c-89.5,0.1-179.1,0-268.6,0c-0.9,0-1.7-0.2-2.5-0.3c0-8.3,1.4-16.9-0.3-24.8
	c-2-9.4,2.4-12,9.4-15.6C372.3,581.5,377.3,575.7,382.9,571z M431.1,113.2c-56.1,0-112.2,0-168.3,0c-10.5,0-13.3,2.8-13.4,13.3
	c0,29.1-0.1,58.3,0,87.4c0,10.4,3,13.4,13.5,13.4c112,0,224,0,336,0c10.3,0,13.4-3.2,13.4-13.5c0-28.9,0-57.8,0-86.7
	c0-11.1-2.8-13.9-14.2-13.9C542.4,113.2,486.8,113.2,431.1,113.2z M477.1,494.7c0,0.1,0,0.2,0,0.4c3.9,0,7.7,0,11.6,0
	c15.7-0.3,27.8-11.6,28.4-26.5c0.6-15.9-10.5-28.5-26.7-29.5c-8.8-0.5-17.6-0.5-26.4,0c-14.8,0.9-26.1,12.1-27,26.2
	c-0.9,14.2,9.1,27.1,23.3,29.4C465.9,495.5,471.6,494.7,477.1,494.7z M570.2,513.9c0,0.2,0,0.3,0,0.5c-4.1,0-8.2-0.1-12.3,0
	c-14.9,0.3-26.9,11.4-28,25.8c-1.1,14.6,8.8,28,23.6,29.6c11,1.2,22.3,1.1,33.4,0c13-1.3,22.5-12.7,23.1-25.4
	c0.7-13.9-7.3-25.6-20.6-28.7C583.2,514.1,576.6,514.4,570.2,513.9z M476.6,570.9c6-0.3,11.6-0.2,17.1-1c15-2.4,24.5-15,23.3-30.4
	c-1.1-13.7-13-24.8-27.2-25.1c-8.6-0.2-17.2-0.2-25.8,0c-14,0.4-25.7,11.5-27,25.4c-1.3,14.2,8.5,27.4,22.6,29.9
	C465.4,570.7,471.3,570.6,476.6,570.9z M570.2,495.1c3.7,0,7.3,0,11,0c16.1-0.2,28.4-11.6,28.8-26.8c0.5-16.1-11.1-28.6-27.6-29.3
	c-8.4-0.4-16.8-0.4-25.1,0c-16.1,0.9-27.8,13.5-27.3,29.1c0.5,15.2,12.8,26.8,28.7,27C562.5,495.1,566.4,495.1,570.2,495.1z
	 M570,419.5c4.5,0,9,0.2,13.5,0c15.4-0.9,26.7-13,26.5-28.3c-0.2-14.9-11.6-26.8-26.8-27.4c-8.8-0.3-17.6-0.3-26.4,0
	c-15,0.5-26.7,12.5-27,27.3c-0.2,15.1,11.3,27.5,26.6,28.3C561,419.8,565.5,419.5,570,419.5z M570.3,270c-4.5,0-9-0.1-13.5,0
	c-14.9,0.5-26.7,12.6-26.9,27.4c-0.2,14.9,11.1,27.4,26,28.2c9.2,0.5,18.5,0.5,27.7,0c15.4-0.7,26.7-13,26.4-28.3
	c-0.2-15.2-12-27-27.5-27.4C578.5,269.9,574.4,270,570.3,270z M477.2,270c-4.3,0-8.6-0.1-12.9,0c-15,0.5-26.9,12.3-27.3,27
	c-0.4,15.1,11.1,27.9,26.3,28.6c9.2,0.4,18.5,0.4,27.7,0c15.3-0.7,26.5-13.2,26.2-28.6c-0.3-14.9-12-26.7-27.1-27.1
	C485.8,269.9,481.5,270,477.2,270z M477.1,419.5c4.7,0,9.5,0.3,14.2,0c15-0.9,26.1-13.1,25.9-28.2c-0.2-14.7-11.4-26.8-26.1-27.4
	c-9.2-0.4-18.5-0.4-27.7,0c-14.6,0.6-26.1,12.7-26.4,27.2c-0.3,14.8,11.1,27.4,25.9,28.4C467.6,419.8,472.4,419.5,477.1,419.5z"/>
<path class="st2" d="M658.8,461.7c-8.9-2.7-10.3-4.6-10.3-14.3c0-119.9,0-239.8,0-359.7c0-18-6.5-24.5-24.3-24.5
	c-88.8,0-177.5,0-266.3,0.1c-6.9,0-11.8-1.9-13.3-9.1c1.7-8,4.2-10.2,12.1-10.2c90.6,0,181.3-0.1,271.9,0c22.4,0,39,16.6,39,39
	c0.1,122,0,244,0.1,366C668,455.9,665.1,459.8,658.8,461.7z"/>
<path class="st3" d="M146.4,204.6c5.1,0,10.3-0.1,15.4,0c6.1,0.2,10,4,10.1,9.3c0.1,5.3-3.8,9.7-9.7,9.8c-10.9,0.2-21.9,0.3-32.8,0
	c-5.8-0.1-9.8-4.8-9.5-10c0.3-5.1,4.2-8.8,9.8-9.1c0.4,0,0.9,0,1.3,0C136.1,204.6,141.2,204.6,146.4,204.6z"/>
<path class="st4" d="M146.1,253.6c-5.4,0-10.7,0.1-16.1,0c-6-0.2-10.1-4.1-10.2-9.4c-0.1-5.2,4-9.7,9.8-9.8
	c10.9-0.3,21.9-0.3,32.8,0c5.8,0.2,9.7,4.7,9.4,10.1c-0.3,5.2-4,8.8-9.7,9.1C156.9,253.8,151.5,253.6,146.1,253.6z"/>
<path class="st4" d="M172,180.8c0.1,5.4-4.1,9.7-9.6,9.8c-5.3,0-9.4-3.8-9.7-9c-0.3-5.4,3.9-10,9.2-10.2
	C167.1,171.1,171.9,175.6,172,180.8z"/>
<path class="st5" d="M249.9,346c-32.3-0.7-64-2.9-94.1-14.2c-7.3-2.8-14.4-6.7-20.8-11.3c-6.2-4.4-6.5-9.3-0.2-13.4
	c8.3-5.4,17.3-10.5,26.7-13.5c37.1-12,75.4-13.4,114-11c23.2,1.4,46.1,4.8,67.9,13.4c6.9,2.7,13.6,6.4,19.6,10.7
	c6.5,4.6,6.6,9.4,0.2,14c-6.4,4.5-13.4,8.5-20.7,11.3C312.5,343.1,281,345.2,249.9,346z"/>
<path class="st5" d="M222,692.9c-8.1,0-16.3-0.1-24.4-0.2c-0.5-6.6-4-9.8-10.7-10.4c-21.2-1.7-42.4-4-62.5-11.3
	c-8.4-3-16.3-7.4-24.2-11.7c-4.6-2.5-6.7-6.7-6.4-12.3c0.4-7,0.1-14.1,0.1-20.1c79.1,29.4,157.9,29.4,237.3,0.1
	c0,7.1,0.8,15.7-0.4,23.9c-0.5,3.7-4.6,8.2-8.2,9.8c-13.1,5.7-26.3,11.7-40.1,15c-15.8,3.7-32.2,4.8-48.4,6.7
	C226.1,683.5,224.1,684.8,222,692.9z"/>
<path class="st5" d="M130.3,343.4c79.4,29.6,157.9,29.4,237.2,0.3c0,7.5,0.7,16.4-0.4,25.1c-0.4,3.2-4.6,6.6-7.8,8.8
	c-12.7,8.5-27.2,12.6-42,15.5c-48.5,9.4-97,9.7-145-2.3c-11.7-2.9-22.8-8.6-33.8-13.6c-6.1-2.8-8.9-8.1-8.3-15.3
	C130.7,355.5,130.3,349.1,130.3,343.4z"/>
<path class="st5" d="M130.3,525.6c79.5,29.4,157.9,29.3,237.2,0.2c0,7.5,1,16.3-0.5,24.7c-0.7,3.9-5.6,8.5-9.6,10.2
	c-13.4,5.5-26.9,11.5-41,14.3c-50.7,10.1-101.5,9.9-151.6-4.3c-9.7-2.8-18.8-8-27.9-12.6c-4.9-2.5-7-7-6.7-12.9
	C130.6,538.5,130.3,531.7,130.3,525.6z"/>
<path class="st5" d="M93.9,424.2c79.6,29.5,158,29.3,237.3,0c0,7.4,0.9,15.9-0.4,24.1c-0.5,3.7-4.8,7.5-8.3,9.9
	c-12.6,8.5-27.2,12.5-42,15.4c-49.6,9.5-99.1,9.7-148.1-3.1c-10.6-2.8-20.7-8-30.7-12.8c-5.8-2.7-8.7-7.7-8.1-14.7
	C94.4,436.5,93.9,429.9,93.9,424.2z"/>
<path class="st5" d="M211.8,630c-31.1-1-61.9-3.6-91.3-14.3c-7.7-2.8-15.2-7-22-11.7c-6.3-4.4-6.6-9.3-0.2-13.4
	c8.7-5.6,18.5-9.6,27.9-14.1c1-0.5,3,0.1,4.1,0.8c21,12.3,44.3,17.4,67.9,20.4c42.5,5.5,84.9,4.8,126.9-4.5c1.6-0.3,4.4,0.1,4.9,1.1
	c0.8,1.5,1,4.7,0,5.7c-3.3,3.5-6.9,7.1-11.1,9.5c-17.5,9.8-36.9,13.9-56.5,16.4C245.6,628,228.7,628.7,211.8,630z"/>
<path class="st5" d="M248.1,527.9c-30.1-0.3-61.6-2.7-91.6-13.7c-6.8-2.5-13.1-6.2-19.4-9.8c-2.3-1.3-4.4-3.6-5.6-6
	c-0.8-1.5-0.4-4.1,0.4-5.8c0.4-0.8,3-1.2,4.4-0.8c23.6,5.5,47.5,7.7,71.6,7.8c36.4,0.2,72.5-2.8,107-15.8c4-1.5,8.2-2.9,11.6-5.4
	c5.4-4,10.5-3.7,16-1c5.6,2.7,11.4,5,16.6,8.4c11.3,7.3,11.6,13.9-0.3,20.3c-10.6,5.7-22.2,10.1-33.9,13.4
	C300.3,526.2,275,527.7,248.1,527.9z"/>
<path class="st5" d="M285.4,419.5c-13,1.8-26,4.2-39.2,5.4c-40.3,3.5-80.3,2.2-119.3-9.8c-9.5-2.9-18.7-7.6-27.1-12.8
	c-8.2-5.1-7.8-10.1-0.2-16.1c2-1.6,4.2-3,6.4-4.2c2.2-1.3,4.5-2.3,6.8-3.4c15.5,21.3,38.8,27.6,62.3,32.9c30.8,6.9,62,8.8,93.5,7
	c5.5-0.3,11,0,16.5,0C285.3,418.7,285.3,419.1,285.4,419.5z"/>
<path class="st6" d="M213.2,257.2c8.7-0.4,17.5-1,26.2-1c35.6,0,70.8,2.7,105.1,13.1c4.3,1.3,8.4,3.2,12.6,4.8
	c-2.9,3.7-6.1,4-10.6,2.4c-27.6-9.7-56.3-13.1-85.3-13.9c-15.8-0.4-31.6-0.1-48-0.1C213.2,261.3,213.2,259.2,213.2,257.2z"/>
<path class="st7" d="M367.3,460.3c3.9-0.7,7.7-1.9,11.6-2.1c5.7-0.4,11.6-0.4,17.3,0.1c5.2,0.4,8.9,3.3,8.7,9
	c-0.2,5.7-3.7,8.4-9.2,8.5c-3.8,0.1-7.7-0.1-11.5-0.2c-2-2.4-3.7-5-6-7C374.8,465.5,371,463,367.3,460.3z"/>
<path class="st8" d="M382.9,571c-5.5,4.7-10.5,10.4-16.8,13.7c-7,3.6-11.4,6.3-9.4,15.6c1.7,7.9,0.3,16.5,0.3,24.8
	c-1.9,0-3.8,0-6.9,0c0-12.9,0-25.5,0-38.1c8.1-4.9,16.9-10.4,25.9-15.5C377.8,570.5,380.6,571.1,382.9,571z"/>
<path class="st7" d="M386.7,383.4c3.4-0.1,6.8-0.5,10.2-0.2c5.2,0.5,8.2,3.5,7.9,8.9c-0.2,5-3.1,8-8.1,8c-8.1,0.2-16.2,0-24.3-0.1
	c1.5-1.4,3.1-2.7,4.5-4.3C380.3,391.7,383.5,387.6,386.7,383.4z"/>
<path class="st7" d="M382.8,289.5c4-0.1,8.1-0.3,12.2-0.2c6.6,0.1,10.2,3.3,10,8.9c-0.1,5.3-3.6,8.2-10,8.4c-1,0-2.1-0.2-3.2-0.3
	C388.8,300.7,385.8,295.1,382.8,289.5z"/>
<path class="st6" d="M393.3,326.2c0,12.4,0,24.8,0,37.2c-1.9,0-3.7,0-6.3,0c0-11.7-0.1-23.1,0.1-34.5
	C387.2,324.4,390.7,325.9,393.3,326.2z"/>
<path class="st8" d="M358.7,416.5c-0.1,8.7-0.2,17.3-0.3,26c-2.3,1.8-4.6,3.6-7.4,5.8c0-12.7,0-24.8,0-37.6
	C353.8,412.7,356.2,414.6,358.7,416.5z"/>
<path class="st7" d="M393.2,533.8c7.8-0.2,11.5,2.4,11.7,8.2c0.2,6-3.7,9-11.6,9C393.3,545.3,393.2,539.6,393.2,533.8z"/>
<path class="st7" d="M386.7,383.4c-3.3,4.1-6.5,8.3-9.8,12.4c-1.3,1.6-3,2.8-4.5,4.3c-2.1-0.6-4.2-1.2-7.2-2
	c5.9-5.2,10.8-9.7,16-13.9C382.5,383.2,384.9,383.6,386.7,383.4z"/>
<path class="st6" d="M393.2,495.3c0,6.3,0,12.6,0,18.9c-1.9,0-3.7,0-5.9,0c0-6.4,0-12.5,0-18.9C389.5,495.3,391.3,495.3,393.2,495.3
	z"/>
<path class="st7" d="M382.8,289.5c3,5.6,6,11.2,9,16.8c-3.5,0.9-5.7,0-7.6-3.6c-2.5-4.6-6.2-8.5-9.8-13.2
	C377.2,289.5,380,289.5,382.8,289.5z"/>
<path class="st7" d="M367.3,460.3c3.7,2.7,7.5,5.2,10.9,8.2c2.3,2,4,4.7,6,7c-8.9,1.9-12.6-6.6-19-9.7
	C365,465.8,366.5,462.2,367.3,460.3z"/>
<path class="st7" d="M393.2,533.8c0,5.7,0,11.5,0.1,17.2c-4.8,1.3-6.7-0.5-6.4-5.4c0.3-3.8,0-7.5,0-11.8
	C389.5,533.8,391.3,533.8,393.2,533.8z"/>
<path class="st9" d="M431.1,113.2c55.7,0,111.4,0,167,0c11.4,0,14.2,2.8,14.2,13.9c0,28.9,0,57.8,0,86.7c0,10.3-3.2,13.5-13.4,13.5
	c-112,0-224,0-336,0c-10.4,0-13.4-3-13.5-13.4c-0.1-29.1,0-58.3,0-87.4c0-10.5,2.9-13.3,13.4-13.3
	C318.9,113.2,375,113.2,431.1,113.2z M431.9,207.7c18.9,0,37.7-0.1,56.6-0.1c1.3,0.2,2.5,0.5,3.8,0.5c32.2,0,64.4,0,96.6,0
	c1.2,0,2.4-0.4,3.7-0.6c0-25,0-49.8,0-74.8c-10.4,0-20.4,0-30.5,0c-18.9,0-37.8,0-56.7,0.1c-9,0-18.1,0-27.1,0
	c-18.9,0-37.8,0-56.7,0c-1.1-0.1-2.1-0.3-3.2-0.3c-48.3,0-96.5,0-144.8,0c-1.4,0-2.9,0.3-4.2,0.4c0,25.1,0,49.8,0,74.8
	c26.1,0,51.8,0,77.5,0c0.4,0,0.8,0,1.2,0c18.9-0.1,37.7-0.1,56.6-0.2C413.7,207.6,422.8,207.7,431.9,207.7z"/>
<path class="st10" d="M477.1,494.7c-5.6,0-11.3,0.7-16.7-0.1c-14.3-2.3-24.3-15.3-23.3-29.4c0.9-14.1,12.2-25.4,27-26.2
	c8.8-0.5,17.6-0.5,26.4,0c16.2,1,27.3,13.6,26.7,29.5c-0.6,15-12.7,26.3-28.4,26.5c-3.9,0.1-7.7,0-11.6,0
	C477.1,495,477.1,494.9,477.1,494.7z M476.4,475.8c4.3,0,8.6,0.2,12.8,0c4.9-0.3,8-2.9,8.5-7.9c0.5-5.4-2.5-9-7.5-9.4
	c-8.7-0.6-17.5-0.5-26.3,0.1c-4.9,0.3-7.8,4-7.4,8.9c0.4,5,3.6,8.1,8.9,8.3C469.1,475.9,472.7,475.8,476.4,475.8z"/>
<path class="st11" d="M570.2,513.9c6.4,0.5,13,0.2,19.2,1.7c13.3,3.1,21.3,14.8,20.6,28.7c-0.6,12.7-10.1,24-23.1,25.4
	c-11,1.1-22.4,1.3-33.4,0c-14.8-1.6-24.7-15-23.6-29.6c1.1-14.4,13.1-25.5,28-25.8c4.1-0.1,8.2,0,12.3,0
	C570.2,514.2,570.2,514.1,570.2,513.9z M570,551.3C570,551.3,570,551.4,570,551.3c3.4,0.1,6.8,0.1,10.3,0.1c0.4,0,0.9,0,1.3,0
	c5.9-0.7,9.5-4.4,9-9.6c-0.5-5.7-4.1-8.1-9.6-8.1c-7.3,0-14.6,0-21.8,0c-5.5,0-9,2.6-9.8,8.1c-0.7,5,3.2,9,9.1,9.5
	C562.3,551.6,566.2,551.3,570,551.3z"/>
<path class="st11" d="M476.6,570.9c-5.4-0.3-11.2-0.2-16.9-1.2c-14.1-2.5-23.9-15.7-22.6-29.9c1.3-13.9,13-25,27-25.4
	c8.6-0.2,17.2-0.2,25.8,0c14.2,0.3,26.1,11.4,27.2,25.1c1.2,15.4-8.3,28-23.3,30.4C488.3,570.7,482.6,570.6,476.6,570.9z
	 M477.1,533.7c-4.1,0-8.1-0.2-12.2,0.1c-4.9,0.3-8,3.3-8.3,8.1c-0.3,4.5,2.1,8.4,6.7,8.8c9.1,0.6,18.4,0.8,27.5,0.2
	c4.7-0.3,7.5-4.1,7-9.2c-0.5-5-3.5-7.7-8.4-7.9C485.2,533.5,481.1,533.7,477.1,533.7z"/>
<path class="st11" d="M570.2,495.1c-3.9,0-7.7,0-11.6,0c-15.9-0.2-28.3-11.9-28.7-27c-0.5-15.5,11.2-28.2,27.3-29.1
	c8.4-0.4,16.8-0.4,25.1,0c16.6,0.7,28.1,13.2,27.6,29.3c-0.5,15.2-12.7,26.6-28.8,26.8C577.5,495.1,573.9,495.1,570.2,495.1z
	 M570,475.8c3.9,0,7.7,0.1,11.6,0c5.2-0.2,8.5-2.8,9-8.1c0.4-5.5-2.8-8.9-7.7-9.2c-8.5-0.6-17.1-0.6-25.7,0c-5,0.3-8.2,4-7.8,9.3
	c0.4,5.1,3.8,7.9,9.1,8.1C562.3,475.9,566.2,475.8,570,475.8z"/>
<path class="st11" d="M570,419.5c-4.5,0-9,0.2-13.5,0c-15.3-0.9-26.8-13.2-26.6-28.3c0.2-14.8,11.9-26.8,27-27.3
	c8.8-0.3,17.6-0.3,26.4,0c15.2,0.5,26.6,12.5,26.8,27.4c0.2,15.3-11.1,27.5-26.5,28.3C579,419.8,574.5,419.5,570,419.5z
	 M569.7,400.2C569.7,400.2,569.7,400.2,569.7,400.2c4.3,0,8.6,0.1,12.8-0.1c5-0.2,8-3.1,8.1-8.1c0.1-5.2-2.6-8.7-8-8.9
	c-8.3-0.3-16.7-0.3-25,0c-5.3,0.2-8.3,3.5-8.2,8.7c0.2,5.2,3.4,8.1,8.7,8.3C562,400.3,565.8,400.2,569.7,400.2z"/>
<path class="st12" d="M570.3,270c4.1,0,8.2-0.1,12.2,0c15.5,0.4,27.3,12.2,27.5,27.4c0.2,15.4-11,27.7-26.4,28.3
	c-9.2,0.4-18.5,0.4-27.7,0c-14.9-0.8-26.2-13.3-26-28.2c0.2-14.8,12-26.9,26.9-27.4C561.3,269.9,565.8,270,570.3,270z M570,306.5
	c4.1,0,8.1,0.2,12.2,0c5.3-0.3,8.4-3.3,8.4-8.6s-3.1-8.4-8.4-8.5c-8.1-0.2-16.3-0.2-24.4,0c-5.4,0.1-8.4,3.4-8.4,8.5
	c0,5.2,3.1,8.3,8.5,8.5C561.9,306.6,566,306.5,570,306.5z"/>
<path class="st12" d="M477.2,270c4.3,0,8.6-0.1,12.9,0c15.1,0.4,26.8,12.2,27.1,27.1c0.3,15.4-10.9,27.8-26.2,28.6
	c-9.2,0.4-18.5,0.4-27.7,0c-15.2-0.7-26.7-13.5-26.3-28.6c0.4-14.8,12.3-26.6,27.3-27C468.6,269.9,472.9,270,477.2,270z
	 M477.3,289.3c-4.1,0-8.1-0.1-12.2,0c-5.4,0.2-8.5,3.4-8.5,8.5c-0.1,5.1,3,8.5,8.4,8.6c8.1,0.2,16.3,0.2,24.4,0
	c5.3-0.1,8.3-3.2,8.5-8.5c0.2-5.1-3.3-8.4-9-8.6C485,289.1,481.1,289.3,477.3,289.3z"/>
<path class="st11" d="M477.1,419.5c-4.7,0-9.5,0.3-14.2-0.1c-14.8-1-26.2-13.5-25.9-28.4c0.3-14.5,11.8-26.6,26.4-27.2
	c9.2-0.4,18.5-0.4,27.7,0c14.7,0.6,25.9,12.7,26.1,27.4c0.2,15.1-11,27.3-25.9,28.2C486.6,419.8,481.8,419.5,477.1,419.5z
	 M477.2,400.2c4.1,0,8.1,0.1,12.2,0c5.4-0.2,8.3-3.2,8.3-8.5c0-5.3-3-8.4-8.4-8.5c-8.1-0.2-16.3-0.2-24.4,0
	c-5.3,0.1-8.5,3.4-8.4,8.5c0,5.2,3.1,8.3,8.5,8.5C469.1,400.3,473.2,400.2,477.2,400.2z"/>
<path class="st13" d="M346.8,207.8c-25.7,0-51.4,0-77.5,0c0-25,0-49.7,0-74.8c1.4-0.1,2.8-0.4,4.2-0.4c48.3,0,96.5,0,144.8,0
	c1.1,0,2.1,0.2,3.2,0.3c-13.1,13.2-26.2,26.4-39.3,39.6c-11.4,11.6-22.8,23.1-34.2,34.7C347.6,207.4,347.3,207.6,346.8,207.8z"/>
<path class="st13" d="M562.1,132.8c10,0,20.1,0,30.5,0c0,25,0,49.8,0,74.8c-1.3,0.2-2.5,0.6-3.7,0.6c-32.2,0-64.4,0-96.6,0
	c-1.3,0-2.5-0.3-3.8-0.5c1.5-1.8,2.9-3.7,4.5-5.3c14.5-14.5,29.1-28.9,43.6-43.5C545.2,150.2,553.6,141.5,562.1,132.8z"/>
<path class="st14" d="M348.1,207.1c11.4-11.6,22.8-23.1,34.2-34.7c13.1-13.2,26.2-26.4,39.3-39.6c18.9,0,37.8,0,56.7,0
	c-1.6,1.7-3,3.6-4.7,5.2c-21.5,21.4-43,42.8-64.4,64.3c-1.6,1.6-3,3.5-4.5,5.3c-18.9,0.1-37.7,0.1-56.6,0.2
	C348.2,207.6,348.2,207.3,348.1,207.1z"/>
<path class="st14" d="M562.1,132.8c-8.5,8.7-17,17.4-25.5,26.1c-14.5,14.5-29.1,29-43.6,43.5c-1.6,1.6-3,3.5-4.5,5.3
	c-18.9,0-37.7,0.1-56.6,0.1c2.3-2.7,4.5-5.6,7-8.1c22.1-22.3,44.3-44.5,66.4-66.8C524.3,132.8,543.2,132.8,562.1,132.8z"/>
<path class="st13" d="M505.4,132.8c-22.2,22.2-44.3,44.5-66.4,66.8c-2.5,2.5-4.7,5.4-7,8.1c-9.1,0-18.2-0.1-27.3-0.1
	c1.5-1.8,2.9-3.7,4.5-5.3c21.5-21.4,43-42.8,64.4-64.3c1.6-1.6,3.1-3.5,4.7-5.2C487.3,132.8,496.4,132.8,505.4,132.8z"/>
<path class="st15" d="M348.1,207.1c0.1,0.2,0.1,0.4,0,0.6c-0.4,0-0.8,0-1.2,0C347.3,207.6,347.6,207.4,348.1,207.1z"/>
<path class="st7" d="M476.4,475.8c-3.6,0-7.3,0.1-10.9,0c-5.3-0.2-8.5-3.3-8.9-8.3c-0.4-4.9,2.5-8.6,7.4-8.9
	c8.7-0.6,17.5-0.7,26.3-0.1c5,0.3,8,4,7.5,9.4c-0.5,5-3.6,7.6-8.5,7.9C484.9,476,480.6,475.8,476.4,475.8z"/>
<path class="st7" d="M570,551.3c-3.8,0-7.7,0.3-11.6-0.1c-5.9-0.5-9.8-4.5-9.1-9.5c0.7-5.5,4.2-8.1,9.8-8.1c7.3,0,14.6,0,21.8,0
	c5.5,0,9.1,2.4,9.6,8.1c0.5,5.2-3.1,8.9-9,9.6c-0.4,0-0.9,0-1.3,0C576.9,551.4,573.4,551.4,570,551.3C570,551.4,570,551.3,570,551.3
	z"/>
<path class="st7" d="M477.1,533.7c4.1,0,8.1-0.2,12.2,0c4.9,0.3,8,2.9,8.4,7.9c0.5,5.1-2.3,8.8-7,9.2c-9.1,0.6-18.4,0.4-27.5-0.2
	c-4.6-0.3-7-4.2-6.7-8.8c0.4-4.8,3.4-7.8,8.3-8.1C468.9,533.5,473,533.7,477.1,533.7z"/>
<path class="st7" d="M570,475.8c-3.9,0-7.7,0.1-11.6,0c-5.2-0.2-8.6-3-9.1-8.1c-0.5-5.3,2.7-9,7.8-9.3c8.5-0.6,17.1-0.6,25.7,0
	c5,0.4,8.2,3.8,7.7,9.2c-0.4,5.4-3.8,7.9-9,8.1C577.8,475.9,573.9,475.8,570,475.8z"/>
<path class="st7" d="M569.7,400.2c-3.8,0-7.7,0.1-11.5,0c-5.3-0.2-8.6-3.1-8.7-8.3s2.8-8.6,8.2-8.7c8.3-0.3,16.7-0.3,25,0
	c5.4,0.2,8.1,3.6,8,8.9c-0.1,5-3,7.9-8.1,8.1C578.2,400.4,573.9,400.2,569.7,400.2C569.7,400.2,569.7,400.2,569.7,400.2z"/>
<path class="st7" d="M570,306.5c-4.1,0-8.1,0.2-12.2,0c-5.3-0.3-8.5-3.4-8.5-8.5c0-5.2,3.1-8.4,8.4-8.5c8.1-0.2,16.3-0.2,24.4,0
	c5.3,0.1,8.4,3.2,8.4,8.5s-3,8.3-8.4,8.6C578.2,306.7,574.1,306.5,570,306.5z"/>
<path class="st7" d="M477.3,289.3c3.9,0,7.7-0.1,11.6,0c5.7,0.2,9.1,3.5,9,8.6c-0.2,5.3-3.2,8.4-8.5,8.5c-8.1,0.2-16.3,0.2-24.4,0
	c-5.3-0.1-8.4-3.5-8.4-8.6c0-5.1,3.1-8.3,8.5-8.5C469.1,289.2,473.2,289.3,477.3,289.3z"/>
<path class="st7" d="M477.2,400.2c-4.1,0-8.1,0.1-12.2,0c-5.4-0.2-8.5-3.3-8.5-8.5c0-5.2,3.1-8.4,8.4-8.5c8.1-0.2,16.3-0.2,24.4,0
	c5.3,0.1,8.4,3.1,8.4,8.5c0,5.3-3,8.3-8.3,8.5C485.4,400.3,481.3,400.2,477.2,400.2z"/>
</svg>
