<?xml version="1.0" encoding="utf-8"?>
<!-- Generator: Adobe Illustrator 23.0.2, SVG Export Plug-In . SVG Version: 6.00 Build 0)  -->
<svg version="1.1" id="Layer_1" xmlns="http://www.w3.org/2000/svg" xmlns:xlink="http://www.w3.org/1999/xlink" x="0px" y="0px"
	 viewBox="0 0 768 768" style="enable-background:new 0 0 768 768;" xml:space="preserve">
<style type="text/css">
	.st0{fill:#E1AB7F;}
	.st1{fill:#89582C;}
	.st2{fill:#394C56;}
	.st3{fill:#EDBC91;}
	.st4{fill:#EEF0F3;}
	.st5{fill:#6D4523;}
	.st6{fill:#ACB2B5;}
</style>
<path class="st0" d="M582.61,272.97c-0.78,16.63-0.13,33.47-2.71,49.82c-3.18,20.16-14.25,35.37-36.27,40.65
	c-5.58,1.34-8.34,5.35-8.88,11.18c-3.06,33.32-15.36,62.91-38.75,87.68c-6.03,6.38-13.11,11.82-19.65,17.75
	c-3.04,2.76-5.95,5.66-8.91,8.5c-10.84,7.95-21.76,15.81-32.5,23.88c-27.6,20.75-61.84,20.58-88.93-1.47
	c-9.83-8-20.53-14.97-30.84-22.41c-2.95-2.84-5.66-5.99-8.9-8.48c-33.03-25.39-52.74-58.14-57.22-98.98
	c-1.17-10.62-5.01-16.58-16.29-20.02c-20.58-6.27-28.49-23.56-31.15-42.45c-2.11-15-1.23-30.39-1.68-45.61
	c10.91-19.96,31.32-15.72,41.06,0.56c2.34,3.9,4.12,8.31,5.15,12.71c1.4,5.99,4.58,8.44,10.62,6.88
	c16.07-4.16,32.52-7.37,48.08-12.92c34.03-12.16,63.04-30.86,80.45-63.41c5.37-10.04,16.14-14.43,27.36-11.07
	c19.46,5.83,39.13,11.4,57.84,19.09c23.84,9.81,45.58,23.09,58.74,46.19c4.55,7.99,7.85,8.25,13.31,0.48
	C552.55,257.31,572.72,253.75,582.61,272.97z"/>
<path class="st1" d="M582.61,272.97c-9.89-19.23-30.06-15.67-40.06-1.43c-5.46,7.77-8.76,7.52-13.31-0.48
	c-13.17-23.11-34.9-36.38-58.74-46.19c-18.7-7.7-38.38-13.26-57.84-19.09c-11.22-3.36-21.99,1.03-27.36,11.07
	c-17.42,32.55-46.42,51.25-80.45,63.41c-15.55,5.56-32,8.76-48.08,12.92c-6.04,1.56-9.23-0.89-10.62-6.88
	c-1.03-4.4-2.81-8.81-5.15-12.71c-9.75-16.28-30.15-20.52-41.06-0.56c0.63-54.84,14.68-104.85,55.3-145.28
	c14.13-14.07,31.15-23.99,49.39-32.11c19.1-7.06,38.68-11.8,59.16-13.43c22.62-1.79,45.22-2.61,67.52,1.63
	c15.75,2.99,31.13,7.81,46.67,11.81c62.72,27.43,91.86,77.88,101.86,141.18C581.7,248.74,581.73,260.92,582.61,272.97z"/>
<path class="st2" d="M339.34,751.61c-2.98-0.13-5.95-0.38-8.93-0.38c-58.55-0.02-117.1,0.45-175.63-0.3
	c-17.8-0.23-36.18,4.61-53.51-3.49c-7.84-16.94-2.1-34.76-3.38-52.12c-0.67-9.09,0.3-18.41,1.54-27.49
	c7.94-57.82,59.42-107.12,119.19-113.69c14.54-1.6,29.32-1.1,43.99-1.56c-0.67,2.27-1.11,4.64-2.05,6.8
	c-8.75,20-17.64,39.94-26.38,59.94c-5.28,12.09,0.1,20.13,13.57,20.3c12.44,0.15,24.88,0,37.33,0.05
	c10.14,0.04,12.86,1.91,16.5,11.36c8.54,22.16,17.13,44.3,25.52,66.5C331.38,728.82,335.28,740.24,339.34,751.61z"/>
<path class="st2" d="M519.99,552.58c23.65-0.13,47.2-0.42,70.13,7.26c55.36,18.55,93.62,68.99,94.69,126.04
	c0.31,16.71,0.16,33.43,0.1,50.15c-0.04,11.31-4.29,15.17-16.7,15.18c-72,0.03-143.99,0.01-215.99,0.03c-2.98,0-5.95,0.25-8.93,0.38
	c0.2-1.43,0.14-2.95,0.65-4.27c12.68-33.02,25.42-66.03,38.16-99.03c2.28-5.9,6.66-8.71,13.17-8.68
	c13.19,0.07,26.38,0.13,39.57-0.02c13.48-0.15,18.86-8.19,13.59-20.29c-8.61-19.79-17.41-39.51-26.06-59.29
	C521.33,557.65,520.77,555.07,519.99,552.58z"/>
<path class="st3" d="M315.17,488.57c10.3,7.44,21.01,14.42,30.84,22.41c27.09,22.05,61.33,22.22,88.93,1.47
	c10.74-8.08,21.66-15.93,32.5-23.88c0.16,13.1,0.33,26.21,0.49,39.31c-25.3,73.82-50.6,147.64-75.89,221.46
	c-0.48-0.07-0.97-0.07-1.46,0c-25.3-73.8-50.6-147.6-75.89-221.39C314.85,514.82,315.01,501.7,315.17,488.57z"/>
<path class="st4" d="M392.03,749.34c25.3-73.82,50.6-147.64,75.9-221.46c13.61,6.43,27.22,12.85,40.82,19.29
	c3.76,1.78,7.49,3.6,11.24,5.4c0.78,2.49,1.34,5.07,2.38,7.46c8.64,19.78,17.44,39.5,26.06,59.29c5.27,12.1-0.12,20.14-13.59,20.29
	c-13.19,0.15-26.38,0.1-39.57,0.02c-6.51-0.04-10.89,2.78-13.17,8.68c-12.74,33-25.48,66.01-38.16,99.03
	c-0.51,1.32-0.44,2.84-0.65,4.27c-0.93,0.13-1.86,0.26-2.78,0.39c-12.8-0.39-25.61-0.71-38.4-1.24
	C398.73,750.62,395.39,749.83,392.03,749.34z"/>
<path class="st4" d="M314.68,527.94c25.3,73.8,50.6,147.6,75.89,221.39c-7.84,0.49-15.67,1.03-23.5,1.46
	c-8.32,0.46-16.65,0.81-24.97,1.2c-0.92-0.13-1.84-0.26-2.76-0.39c-4.07-11.37-7.96-22.79-12.23-34.09
	c-8.4-22.21-16.98-44.35-25.52-66.5c-3.64-9.44-6.36-11.32-16.5-11.36c-12.44-0.05-24.89,0.1-37.33-0.05
	c-13.48-0.16-18.85-8.21-13.57-20.3c8.73-20,17.63-39.94,26.38-59.94c0.94-2.16,1.38-4.53,2.05-6.8
	C279.97,544.37,297.33,536.16,314.68,527.94z"/>
<path class="st5" d="M477.96,95.65c-15.54-4-30.92-8.81-46.67-11.81c-22.3-4.24-44.9-3.42-67.52-1.63
	c-20.48,1.63-40.06,6.37-59.16,13.43c-5.6-17.28-1.23-31.3,13.94-43c21.74-16.77,47.3-21.63,74.24-21.6
	c19.12,0.02,37.74,3.08,54.88,11.63c7.21,3.6,14.22,8.14,20.13,13.49C479.71,66.95,484.09,80.18,477.96,95.65z"/>
<path class="st6" d="M342.1,752c8.32-0.4,16.65-0.75,24.97-1.2c7.83-0.43,15.66-0.97,23.5-1.46c0.5-0.07,0.99-0.07,1.47,0
	c3.35,0.49,6.69,1.29,10.07,1.43c12.8,0.53,25.6,0.84,38.4,1.24C407.71,752,374.9,752,342.1,752z"/>
</svg>
