<?xml version="1.0" encoding="utf-8"?>
<!-- Generator: Adobe Illustrator 23.0.2, SVG Export Plug-In . SVG Version: 6.00 Build 0)  -->
<svg version="1.1" id="Layer_1" xmlns="http://www.w3.org/2000/svg" xmlns:xlink="http://www.w3.org/1999/xlink" x="0px" y="0px"
	 viewBox="0 0 768 768" style="enable-background:new 0 0 768 768;" xml:space="preserve">
<style type="text/css">
	.st0{fill:#030202;}
	.st1{fill:#030303;}
	.st2{fill:#050505;}
	.st3{fill:#6F4F1D;}
	.st4{fill:#002060;}
	.st5{fill:#75AE2C;}
	.st6{fill:#959EA9;}
</style>
<path class="st0" d="M65,401.1c4.3-7.2,10.6-9.3,18.7-9.1c17.7,0.4,35.3,0.1,53.2,0.1c-0.9-11-2.1-21.5-2.6-32
	c-2.3-44.5,6-87.1,24.1-127.7c3.3-7.3,8.2-10.4,14.8-9.3c6.1,1,10.1,4.9,10.7,10.9c0.4,3.7-0.9,7.9-2.5,11.4
	c-14.7,33.5-21.8,68.5-21.2,105.1c0.2,13.6,1.9,27.3,2.9,40.9c8.8,2.3,19.8-2.8,24.3,6.3c3.6,7.2,3.3,16.5,4.8,25.5
	c8.2,0,17.7,0,27.7,0c0-2.4,0-4.8,0-7.2c0-39.9,0-79.7,0-119.6c0-13.4,4.1-17.6,17.1-17.6c33,0,66,0,99.5,0c0.1-2.4,0.3-4.6,0.3-6.7
	c0-21.3,0-42.5,0-63.8c0-12,4.8-16.8,16.8-16.8c37,0.1,73.9,0.3,110.9,0.6c11,0.1,15.5,4.7,15.5,15.8c0,43.6,0,87.3,0,130.9
	c0,2.4,0,4.8,0,8.3c2.6,0,4.9,0,7.1,0c30.6,0,61.2,0,91.9,0c14,0,17.9,4,17.9,18.2c0,44.7,0,89.5,0,134.2c0,2.1,0,4.3,0,7.8
	c2.1-2.3,3.5-3.5,4.6-5c43.3-56.3,59.7-120,50.7-190.5c-0.7-5.3-1.7-10.5-2.6-15.7c-1.5-8.8,2.6-15.9,10.2-17.2
	c8-1.4,14.1,3.1,15.7,12.1c17.1,96.4-6.5,180.5-74.2,251.1c-3,3.1-4.5,6-4.3,10.3c0.4,7.1,0.1,14.2,0.2,21.3c0,0.4,0.3,0.8,0.7,1.5
	c21.8-5,43.8-9.6,65.5-15.3c38.3-10.1,68.4,16.4,72.7,44.6c0.1,0.5,0.8,0.9,1.2,1.3c0,7.1,0,14.2,0,21.3c-0.5,0.8-1.3,1.6-1.6,2.5
	c-6.7,23.4-21.9,37.3-45.1,43.2c-50.5,12.8-101,26-151.5,39c-33.6,8.6-66.6,6.9-99-5.9c-58-23-116-46.1-174-69.1
	c-8.7-3.5-17.3-8.7-26.3-9.6c-15.9-1.6-32.2-0.4-48.8-0.4c0,2.9,0,5.3,0,7.7c0,13.7-4.2,17.9-17.5,17.9c-30.4,0-60.8-0.2-91.2,0.1
	c-7.9,0.1-13.4-2.5-17-9.5C65,562.3,65,481.7,65,401.1z M191.1,600c16,0,31.7-0.2,47.4,0.1c4.5,0.1,9.2,1,13.3,2.6
	c65.6,25.9,131.2,51.9,196.7,78c24.9,9.9,50.5,13.1,76.5,6.7c54.1-13.3,107.9-27.4,161.8-41.5c17.8-4.7,27.2-21,22.8-38
	c-4.4-17.2-20.2-26.6-38-22.5c-40.2,9.3-80.5,18.2-120.6,28.1c-37.1,9.1-73,7.5-108.5-7.1c-27-11.2-54.5-21.3-81.8-31.9
	c-13.2-5.1-26.5-10.1-39.7-15.5c-7.4-3-10.4-10.5-7.7-17.5c2.5-6.5,9.5-9.6,16.9-7.4c1.7,0.5,3.3,1.3,4.9,1.9
	c27.5,10.7,55,21.4,82.4,32c9.7,3.8,19.4,3.5,28.5-1.7c12.6-7.2,18.9-18.3,17.9-32.9c-0.9-13.8-8.3-23.4-21-28.7
	c-42.1-17.7-84.2-35.4-126.3-52.9c-2.7-1.1-5.9-1.5-8.9-1.5c-37-0.1-73.9-0.1-110.9,0c-1.9,0-3.8,0.2-5.8,0.3
	C191.1,500.3,191.1,549.8,191.1,600z M453.4,218.5c-30.5,0-60.3,0-90.2,0c-0.1,1.4-0.2,2.3-0.2,3.1c0,71.9,0,143.9-0.1,215.8
	c0,3.7,1.2,5.4,4.5,6.8c27.1,11.2,54,22.6,81,33.9c1.5,0.6,3.1,1,4.9,1.5C453.4,392.4,453.4,305.9,453.4,218.5z M480.5,373.9
	c-0.3,1.1-0.5,1.5-0.5,1.9c0,40.7-0.1,81.5,0,122.2c0,2.2,1,4.7,2.2,6.7c11.3,20.4,10.9,40.8,0.3,61.4c-1.5,3-2.4,6.6-2.4,10
	c-0.3,15.5-0.1,15.1,15.4,16.3c25.8,2.1,50.1-5.5,74.8-11.1c0-69.3,0-138.2,0-207.5C540.1,373.9,510.5,373.9,480.5,373.9z
	 M164.1,625.5c0-69.2,0-137.7,0-206.5c-24.3,0-48.3,0-72.3,0c0,69,0,137.7,0,206.5C115.9,625.5,139.7,625.5,164.1,625.5z
	 M336.3,430.4c0-41.8,0-83.3,0-124.7c-30.2,0-60,0-89.7,0c0,39.5,0,78.5,0,117.8c17.1,0,33.7,0.2,50.3-0.1
	c12.8-0.2,25.4-0.3,36.8,6.5C334.4,430.4,335.4,430.3,336.3,430.4z"/>
<path class="st1" d="M513.1,100.6c0,9.4-8.3,14.9-17.9,12.4c-18.1-4.8-36.1-11.1-54.5-13.5c-73.8-9.9-139.1,10.4-195.9,59
	c-1.2,1-2.3,2.1-3.5,3c-6.2,4.6-13.6,4.1-18.3-1.3c-4.9-5.6-4.6-13.8,1.5-18.9c9.7-8.2,19.4-16.7,30-23.6
	c77.6-51,160.3-61,247.8-30.3C509.9,90,513.1,94.2,513.1,100.6z"/>
<path class="st1" d="M539.1,264.7c-4.2-3.4-8.6-5.7-11.1-9.3c-3.3-4.7-2.2-10.2,1.6-14.7c9.7-11.4,19.4-22.8,29.2-34.1
	c25.8-30.1,51.6-60.1,77.4-90.2c4-4.7,8.6-7.4,15-5.4c5.4,1.7,9.2,5.6,8.9,10.9c-0.2,4.4-2.3,9.5-5.2,12.9
	c-26.3,31.1-52.9,61.9-79.4,92.8c-8.3,9.7-16.4,19.6-25,29C547.8,259.7,543.7,261.5,539.1,264.7z"/>
<path class="st1" d="M587.5,140.1c-0.1,18.4-15,33.2-33.2,33c-18.2-0.2-32.7-15.2-32.6-33.6c0.1-18.2,15.3-33.4,33.2-33.1
	C573.2,106.6,587.6,121.6,587.5,140.1z M556.2,132c-0.9,0-1.9-0.1-2.8-0.1c-1.8,2.6-5.1,5.2-5,7.7c0.2,2.4,3.6,5.8,6.1,6.5
	c3.8,1,7-2,6.4-6.1C560.6,137.1,557.9,134.6,556.2,132z"/>
<path class="st1" d="M627.8,202.8c18.2,0.1,33,15.2,32.8,33.5c-0.2,18.3-15.2,33.2-33.3,33.1c-18.1-0.1-32.8-15.3-32.7-33.6
	C594.8,217.3,609.5,202.7,627.8,202.8z M635.2,237.5c0-0.9,0-1.9,0-2.8c-2.5-1.7-4.9-4.4-7.7-5c-4-0.8-7.1,2.4-6.2,6.3
	c0.6,2.6,3.9,6.1,6.2,6.4C630,242.6,632.7,239.3,635.2,237.5z"/>
<path class="st2" d="M198.3,177.7c7.4,0,13.2,6,13,13.5c-0.2,7.1-6.2,13-13.1,13c-7.3,0-13.1-6.2-12.9-13.7
	C185.5,183.1,191.1,177.6,198.3,177.7z"/>
<path class="st3" d="M191.1,600c0-50.1,0-99.6,0-149.5c2-0.1,3.9-0.3,5.8-0.3c37,0,73.9,0,110.9,0c3,0,6.2,0.4,8.9,1.5
	c42.1,17.6,84.2,35.3,126.3,52.9c12.7,5.3,20.1,14.9,21,28.7c0.9,14.6-5.4,25.8-17.9,32.9c-9.1,5.2-18.8,5.5-28.5,1.7
	c-27.5-10.6-55-21.3-82.5-32c-1.6-0.6-3.2-1.4-4.9-1.9c-7.3-2.2-14.3,0.8-16.9,7.4c-2.7,6.9,0.3,14.4,7.7,17.5
	c13.1,5.4,26.4,10.3,39.7,15.5c27.3,10.6,54.7,20.7,81.8,31.9c35.5,14.7,71.5,16.3,108.5,7.1c40.1-9.9,80.4-18.8,120.6-28.1
	c17.8-4.1,33.6,5.3,38,22.5c4.4,17.1-5,33.4-22.8,38C633,660,579.1,674.1,525,687.4c-26,6.4-51.6,3.2-76.5-6.7
	c-65.6-26.1-131.1-52.1-196.7-78c-4.1-1.6-8.9-2.5-13.3-2.6C222.8,599.8,207.1,600,191.1,600z"/>
<path class="st4" d="M453.4,218.5c0,87.4,0,173.9,0,261.1c-1.8-0.5-3.4-0.9-4.9-1.5c-27-11.3-54-22.7-81.1-33.9
	c-3.3-1.4-4.5-3-4.5-6.8c0.1-71.9,0.1-143.9,0.1-215.8c0-0.9,0.1-1.8,0.2-3.1C393.1,218.5,422.9,218.5,453.4,218.5z"/>
<path class="st5" d="M480.5,373.9c30,0,59.6,0,89.7,0c0,69.3,0,138.2,0,207.5c-24.7,5.7-49,13.3-74.8,11.1
	c-15.5-1.3-15.6-0.9-15.4-16.3c0.1-3.3,0.9-7,2.4-10c10.6-20.6,11-41-0.3-61.4c-1.1-2-2.2-4.5-2.2-6.7c-0.1-40.7-0.1-81.5,0-122.2
	C480,375.4,480.2,375,480.5,373.9z"/>
<path class="st6" d="M164.1,625.5c-24.3,0-48.1,0-72.3,0c0-68.8,0-137.5,0-206.5c24.1,0,48,0,72.3,0
	C164.1,487.9,164.1,556.3,164.1,625.5z"/>
<path class="st5" d="M336.3,430.4c-0.9-0.1-1.9,0-2.6-0.4c-11.5-6.9-24.1-6.7-36.8-6.5c-16.6,0.3-33.2,0.1-50.3,0.1
	c0-39.3,0-78.3,0-117.8c29.7,0,59.5,0,89.7,0C336.3,347.2,336.3,388.6,336.3,430.4z"/>
</svg>
