<?xml version="1.0" encoding="utf-8"?>
<!-- Generator: Adobe Illustrator 23.0.2, SVG Export Plug-In . SVG Version: 6.00 Build 0)  -->
<svg version="1.1" id="Layer_1" xmlns="http://www.w3.org/2000/svg" xmlns:xlink="http://www.w3.org/1999/xlink" x="0px" y="0px"
	 viewBox="0 0 768 768" style="enable-background:new 0 0 768 768;" xml:space="preserve">
<style type="text/css">
	.st0{fill:#010101;}
	.st1{fill:#020202;}
	.st2{fill:#020201;}
	.st3{fill:#959EA9;}
	.st4{fill:#6F4F1D;}
	.st5{fill:#75AE2C;}
	.st6{fill:#949DA8;}
	.st7{fill:#939CA7;}
	.st8{fill:#002060;}
	.st9{fill:#010202;}
</style>
<path class="st0" d="M680.2,653.7c15.5,21.5,18.4,30.4,17.2,54c-63.7,0-127.5,0-191.7,0c-2.1-20.2,2.9-38.3,17.3-53.7
	c-6.9-8.7-13.6-17.2-20.5-25.6c-12.7-15.3-18.9-32.8-18.6-52.8c0.2-14.4-0.1-28.9,0.1-43.3c0.2-13-4.9-24.2-11-35.1
	c-0.8-1.4-3.5-2.2-5.4-2.3c-7.5-0.4-15.2,0.4-22.6-0.7c-27.7-4-46.4-25.8-46.4-53.9c-0.1-77.5,0-155,0-232.6c0-34.6,0-69.3,0-104
	c0-34.3,22.5-56.9,56.6-56.9c69.2,0,138.4,0,207.7,0c33.4,0,56.2,22.7,56.2,56c0,157.9,0,315.9,0,473.8c0,18.7-5.5,35.3-17.3,49.9
	C694.5,635.7,687.3,644.7,680.2,653.7z M466.9,452.3c-0.5,0-1.4-0.1-2.3-0.1c-15.1-0.3-23.4-8.7-23.4-23.8c0-6.4-0.2-12.9,0-19.3
	c0.4-11.4,9-20.3,20.3-20.8c7.8-0.3,15.6-0.3,23.4,0c10.4,0.4,19.7,8.5,20.1,18.7c0.5,11.8-0.3,23.6-0.6,35.6
	c6.3,3,14,6.7,22.2,10.7c0-2.4,0-4.8,0-7.1c0-36.9-0.1-73.7,0-110.6c0.1-18.9,14.7-33.1,33-32.6c17.1,0.5,30.8,14.5,31,32
	c0.2,25.5,0,51,0,76.9c7.2,1.8,14,3.4,21.1,5.2c0.1-2.4,0.2-4.1,0.3-5.9c0.3-14.1,8.9-22.8,23-22.9c6,0,12,0,18,0
	c14.2,0.1,23,8.7,23.1,22.8c0.1,7.3,0,14.6,0,22.1c7.2,1.8,14,3.5,21,5.3c0.1-1.2,0.3-2,0.3-2.9c0-112,0.1-223.9-0.1-335.8
	c0-17.9-14.5-31.3-33-31.4c-70.5-0.1-141.1-0.1-211.6,0c-19.4,0-33.1,13.8-33.1,33.3c0,112.8,0,225.7,0,338.5
	c0,23,20.1,38.1,41.5,32.7C463.3,465.8,465,459.3,466.9,452.3z M548,547.8c-7.5,0-14.2,0-21.4,0c0-8.5,0-16.7,0-24.9
	c0-8.2,0.1-16.4,0-24.7c-0.5-18.9-15.9-34.9-34.1-35.3c-7.3-0.2-10.3,4.1-7.3,10.7c3.2,6.8,6.6,13.6,10.1,20.2
	c7.1,13.2,10.3,27.2,10,42.2c-0.3,14,0,28-0.1,42c0,12.9,3.9,24.4,11.9,34.5c7.4,9.4,14.9,18.8,22.6,28c1.6,1.9,4.7,3.5,7,3.5
	c36.3,0.2,72.5,0.2,108.8,0c2.6,0,5.9-1.7,7.6-3.7c7.7-8.9,14.9-18.3,22.2-27.4c7-8.7,11.7-18.7,11.8-29.8c0.4-38,0.2-76,0.2-114
	c0-4.9-2.5-8.6-7.2-10.1c-4.4-1.4-9-2.3-14.3-3.7c0,31.4,0,62.1,0,92.6c-7.4,0-14,0-21.1,0c0-32.9,0-65.4,0-98
	c-7.3-1.8-14.1-3.4-21.6-5.2c0,35.1,0,69.2,0,103.1c-7.3,0-14.1,0-21.2,0c0-36.4,0-72.3,0-108.5c-7.1-1.7-13.9-3.4-21.4-5.2
	c0,38.4,0,76,0,113.9c-7.3,0-14.1,0-21.3,0c0-24.7,0-49.1,0-73.5c0-44.2,0-88.4,0-132.6c0-1.5,0-3.1,0-4.7
	c-0.1-7.9-4.1-12.7-10.5-12.8c-6.5-0.1-10.8,4.7-10.8,12.5c0,34.4,0,68.9,0,103.3C548,475.8,548,511.5,548,547.8z M526.2,686.5
	c51,0,99.4,0,150,0c-4.5-6.7-7.9-12.5-12.1-17.8c-1.5-1.9-4.8-3.2-7.3-3.2c-36.9-0.2-73.8-0.2-110.8-0.1c-1.9,0-4.5,0.2-5.5,1.4
	C535.9,672.8,531.6,679.1,526.2,686.5z M463,409.8c0,7.4,0,14.2,0,20.7c7.2,0,14,0,20.5,0c0-7.2,0-13.9,0-20.7
	C476.5,409.8,469.9,409.8,463,409.8z M654.5,427.7c0-6.5,0-12.2,0-17.8c-7.1,0-13.9,0-20.8,0c0,4.3,0,8.2,0,12.6
	C640.5,424.2,647.3,425.9,654.5,427.7z"/>
<path class="st1" d="M339.6,164.2c2.8-1.7,5.6-3.5,8.4-5.2c46.5,60.6,42,171.9-51.2,229.3c10.4,0,19.1-0.3,27.8,0.1
	c12.3,0.5,21.6,6.3,27.4,17.2c5.8,10.9,5.1,21.9-1.6,32.2c-6,9.2-14.7,13.9-25.6,14.5c-4.2,0.2-8.4,0-13.4,0
	c3.6,12,1.3,22.6-6.3,31.7c10.7,16.7,10.7,27.7,0.2,42.5c17.4,31.5,4.8,51.5-35,54.1c0,10.7,0.9,21.6-0.2,32.3
	c-2.9,27.3,3.2,52.1,17.9,75.1c3.9,6.1,6.5,12.9,10.1,19.9c-68.7,0-136.4,0-204.8,0c0.9-2.2,1.6-4,2.4-5.7
	c7.4-14.9,14.7-29.8,22.4-44.5c2.9-5.6,3.1-10.8,1.1-16.5C107.4,606.1,95.8,571,84,536c-14.6-43.5-1.6-81.8,36.6-107.2
	c13.9-9.2,27.7-18.4,42.3-28.2C104.2,376.1,67.6,333.9,58.2,271c-6.5-43.5,4.6-83.4,31.4-118.3c54.5-71,147.6-78.1,207.8-40.8
	c-1.6,3.1-3.2,6.3-4.7,9.4c-1.9,2.7-3.7,5.4-5.6,8.1c-76.2-41.4-152.4-7.2-185.8,43.3c-36.5,55.1-29.5,127.6,17.3,174.7
	c46,46.2,118.5,54.2,173.3,18.8c27.7-17.9,47.1-42.5,57-73.8c13.8-43.2,7-83.9-17.5-121.8C334.4,168.2,337,166.2,339.6,164.2z
	 M248.7,621.7c-4.8,0.4-9,1-13.2,1.1c-12.7,0.1-25.4,0.1-38,0c-20.7-0.1-34-13.5-34-34.3c0-30.4,0.1-60.8,0-91.3
	c-0.1-19.4,7.5-34.8,23.1-46.3c4.8-3.6,9.8-7,14.3-10.9c6.4-5.4,7.5-18.4,2.4-25c-5.2-6.6-12.6-7.2-21.3-1.4
	c-17.8,11.8-35.7,23.3-53.2,35.5c-23,16.2-33.1,38.6-28,66.4c2.2,11.9,6.8,23.3,10.6,34.9c10.3,31.2,20.8,62.4,31.3,93.7
	c18,0,35.5,0,53.1,0c17.7,0,35.4,0,52.9,0C248.7,636,248.7,629,248.7,621.7z M248.9,580.6c-40.3-3.5-51.7-21.5-35-54.3
	c-10.6-14.1-10.3-28.2-0.4-41.2c-3-7.4-5.8-14-8.6-20.8c-11.1,6.4-19.8,15.3-19.9,29.4c-0.4,32.2-0.2,64.3-0.1,96.5
	c0,7.1,4.2,11.2,11.3,11.3c13.8,0.2,27.6,0.2,41.3,0c7.1-0.1,11.1-4.1,11.4-11.2C249,587.2,248.9,584.1,248.9,580.6z M263.5,686.7
	c-3.3-6.6-5.9-12.5-9.2-18c-0.9-1.6-3.7-3.1-5.6-3.1c-35.6-0.2-71.1-0.2-106.7,0c-1.7,0-4.3,0.8-5,2c-3.4,6-6.3,12.4-9.6,19.1
	C173.2,686.7,217.9,686.7,263.5,686.7z M270.5,430.9c17.3,0,34.4,0.1,51.5,0c7.7,0,12.5-4.5,12.3-10.9c-0.2-6.2-4.8-10.3-12.2-10.4
	c-14.9-0.1-29.8,0-44.7,0c-2.3,0-4.7,0-6.9,0C270.5,417.1,270.5,423.7,270.5,430.9z M259.5,473.5c6.9,0,13.8,0.1,20.6,0
	c6.8-0.2,11.3-4.4,11.4-10.4c0.1-6-4.4-10.7-11-10.8c-14-0.2-27.9-0.2-41.9,0c-6.7,0.1-11.2,4.7-11.1,10.7c0.1,6,4.6,10.3,11.4,10.5
	C245.8,473.7,252.7,473.5,259.5,473.5z M259.5,516.2c7.1,0,14.2,0.2,21.3,0c6.3-0.2,10.7-4.6,10.8-10.4c0.1-6-4.4-10.7-11-10.8
	c-14-0.2-27.9-0.2-41.9,0c-6.7,0.1-11.2,4.7-11.1,10.7c0.1,6,4.6,10.3,11.3,10.5C245.8,516.3,252.6,516.2,259.5,516.2z M259.6,558.8
	c6.6,0,13.3,0.1,20,0c7.3-0.1,11.9-4.3,12-10.5c0.1-6.3-4.6-10.7-11.7-10.8c-13.5-0.1-27.1-0.1-40.6,0c-7.2,0.1-11.8,4.5-11.7,10.8
	c0.1,6.2,4.8,10.3,12.1,10.5C246.3,558.9,252.9,558.8,259.6,558.8z M248.6,406.7c-8.2,1-15.8,1.8-22.9,2.7
	c0.9,7.9,1.7,15.3,2.4,22.4c6.7-0.5,13.4-0.9,20.4-1.4C248.6,422.6,248.6,415,248.6,406.7z"/>
<path class="st2" d="M310.5,133.8c10.2-10.7,20.4-21.5,31.4-33c-10.1,0-19,0-28.4,0c0-7.4,0-14.3,0-21.5c21,0,42,0,63.3,0
	c0,21.2,0,42.1,0,63.4c-6.9,0-13.6,0-21,0c0-8.1,0-16.1,0-26c-10.3,11.4-19.4,21.5-28.6,31.6c-9.8,10.6-19.5,21.1-29.3,31.6
	c-5.1,3.4-6.5,8-6.5,14.1c0.3,35.9,0.1,71.9,0.1,107.8c0,2,0.2,4.1,0.4,7.9c24.9-35.4,27.3-70.6,8.9-107.5c2.9-1.9,5.6-3.8,8.4-5.6
	c3.1-1.5,6.3-3.1,9.4-4.6c26,42.2,21.2,106.8-25.6,146.7c-46,39.2-113.8,37.3-157.3-4.3C92.1,292.6,87.1,225.1,124,177.8
	c38.4-49.2,102.1-54.5,139.9-34.8c-1.1,3.1-2.3,6.1-3.4,9.2c-1.6,3.1-3.2,6.1-4.8,9.1c-71.2-27.9-132.7,25.4-134.4,82.9
	c24.8-24.8,49.2-49.3,74.3-74.4c14.6,14.6,28.5,28.5,42.7,42.8c14.6-16,29.1-31.9,43.6-47.7C291.5,154.5,301,144.1,310.5,133.8z
	 M206.6,211.4c0,45.6,0,89.4,0,133.5c7.1,0,13.9,0,20.9,0c0-36.9,0-73.1-0.1-109.3c0-1.7-1.1-3.8-2.3-5.1
	C219.4,224.4,213.4,218.4,206.6,211.4z M248.9,340.3c5.9-2.8,10.6-5.2,15.4-7.3c4.7-2,6.1-5.1,6.1-10.3
	c-0.3-35.3-0.1-70.6-0.2-105.9c0-2.1-0.2-4.1-0.4-7.1c-6.8,7.3-12.9,13.8-18.8,20.4c-1.2,1.4-2.1,3.5-2.1,5.2
	C248.9,269.8,248.9,304.2,248.9,340.3z M184.3,340.3c0-43.6,0-85.5,0-128.9c-6.8,6.9-12.8,12.9-18.4,19c-1.3,1.4-2.3,3.8-2.4,5.7
	c-0.1,29.7-0.1,59.4,0,89.1c0,1.7,0.7,4.3,1.9,5C171.3,333.8,177.4,336.8,184.3,340.3z M141.9,254.1c-6.1,6.2-11.3,11.3-16.2,16.6
	c-1,1-1.5,3.2-1.1,4.6c3.1,12.2,8.6,23.3,17.3,34C141.9,290.6,141.9,273.2,141.9,254.1z"/>
<path class="st3" d="M298,179.9c9.8-10.6,19.5-21.1,29.3-31.6c4.1,5.3,8.3,10.6,12.4,15.9c-2.6,2-5.2,4.1-8.3,6.4
	c24.5,37.8,31.3,78.5,17.5,121.8c-10,31.4-29.4,56-57,73.8c-54.8,35.4-127.3,27.5-173.3-18.8c-46.8-47.1-53.8-119.6-17.3-174.7
	c33.4-50.5,109.6-84.7,185.8-43.3c1.9-2.7,3.7-5.4,5.6-8.1c6,4.2,11.9,8.3,17.9,12.4c-9.5,10.4-19,20.7-28.5,31.1
	c-7.1-4.2-14.3-8.4-21.5-12.6c1.1-3.1,2.3-6.2,3.4-9.2c-37.9-19.6-101.5-14.4-139.9,34.8c-37,47.3-31.9,114.8,11.8,156.6
	c43.5,41.6,111.2,43.5,157.3,4.3c46.8-39.8,51.5-104.4,25.6-146.7c-3.1,1.5-6.3,3.1-9.4,4.6C305.5,191.1,301.7,185.5,298,179.9z"/>
<path class="st3" d="M466.9,452.3c-1.9,6.9-3.6,13.4-5.5,20.5c-21.5,5.5-41.5-9.6-41.5-32.7c-0.1-112.8,0-225.7,0-338.5
	c0-19.5,13.6-33.3,33.1-33.3c70.6-0.1,141.1-0.1,211.6,0c18.5,0,32.9,13.4,33,31.4c0.2,111.9,0.1,223.9,0.1,335.8
	c0,0.9-0.2,1.7-0.3,2.9c-7-1.8-13.8-3.5-21-5.3c0-7.5,0-14.9,0-22.1c-0.1-14-8.9-22.6-23.1-22.8c-6,0-12,0-18,0
	c-14,0.1-22.7,8.8-23,22.9c0,1.8-0.2,3.5-0.3,5.9c-7.2-1.8-14-3.4-21.1-5.2c0-25.8,0.1-51.3,0-76.9c-0.1-17.6-13.9-31.6-31-32
	c-18.3-0.5-33,13.8-33,32.6c-0.1,36.9,0,73.7,0,110.6c0,2.4,0,4.7,0,7.1c-8.3-4-16-7.6-22.2-10.7c0.3-12,1.1-23.9,0.6-35.6
	c-0.5-10.3-9.7-18.3-20.1-18.7c-7.8-0.3-15.6-0.3-23.4,0c-11.3,0.5-19.9,9.4-20.3,20.8c-0.2,6.4-0.1,12.9,0,19.3
	c0,15.1,8.3,23.5,23.4,23.8C465.5,452.2,466.4,452.3,466.9,452.3z M559.1,89.7c-31.4,0-62.8,0-94.1,0c-15,0-23.7,8.6-23.7,23.4
	c0,19.8,0,39.5,0,59.3c0,15.4,8.5,23.9,24,23.9c62.3,0,124.6,0,187,0c15.5,0,24-8.4,24.1-23.8c0-19.6,0-39.1,0-58.6
	c0-15.9-8.4-24.2-24.3-24.2C621,89.7,590,89.7,559.1,89.7z M612.1,334.4c-2.1,25.5,8.4,32.9,32,32.9c24.3,0.1,32.5-8.4,32.5-32.3
	c0-24.1-7.8-32.6-32.8-32.6C619.9,302.5,610.2,311,612.1,334.4z M505.3,249.7c2-24.6-8.1-32.5-31.8-32.6
	c-24.8-0.1-32.8,8.1-32.8,32.6c0,23.9,8.2,32.3,32.5,32.3C497.6,282,507.3,273.7,505.3,249.7z M590.8,249.4c0-3.3,0.1-6.7,0-10
	c-0.3-12.8-9.2-21.6-22-21.8c-7.1-0.1-14.3-0.2-21.4,0c-11.3,0.4-20.1,9.1-20.6,20.4c-0.2,4,0.2,8-0.1,12
	c-1.9,23.4,7.9,31.9,31.8,31.9C583.2,282.1,592.7,273.8,590.8,249.4z M676.2,249.1c0-3.5,0.2-7.2,0-11c-0.6-11.3-9.4-20-20.7-20.4
	c-7.6-0.3-15.1-0.3-22.7,0c-11.3,0.4-20.1,9.2-20.6,20.5c-0.2,4,0.2,8-0.1,12c-1.9,23.4,7.9,31.9,31.8,31.9
	C668.6,282,678.2,273.8,676.2,249.1z M473.1,366.9c24.9,2,32.6-8.3,32.6-31.7c0.1-24.7-8.2-32.8-32.7-32.8
	c-23.8,0-32.3,7.9-32.3,32.4C440.7,359.4,449.3,368.9,473.1,366.9z"/>
<path class="st4" d="M548,547.8c0-36.3,0-72,0-107.8c0-34.4,0-68.9,0-103.3c0-7.8,4.3-12.5,10.8-12.5c6.5,0.1,10.4,4.9,10.5,12.8
	c0,1.5,0,3.1,0,4.7c0,44.2,0,88.4,0,132.6c0,24.4,0,48.8,0,73.5c7.2,0,14,0,21.3,0c0-37.8,0-75.5,0-113.9c7.5,1.8,14.3,3.5,21.4,5.2
	c0,36.2,0,72.2,0,108.5c7.1,0,13.9,0,21.2,0c0-34,0-68,0-103.1c7.5,1.8,14.3,3.5,21.6,5.2c0,32.6,0,65.2,0,98c7.1,0,13.7,0,21.1,0
	c0-30.5,0-61.2,0-92.6c5.4,1.4,10,2.3,14.3,3.7c4.7,1.5,7.2,5.2,7.2,10.1c0,38,0.2,76-0.2,114c-0.1,11.1-4.8,21.1-11.8,29.8
	c-7.4,9.2-14.6,18.5-22.2,27.4c-1.7,2-5,3.7-7.6,3.7c-36.3,0.2-72.5,0.2-108.8,0c-2.4,0-5.5-1.6-7-3.5c-7.8-9.1-15.2-18.6-22.6-28
	c-8-10.1-12-21.6-11.9-34.5c0.1-14-0.2-28,0.1-42c0.3-15-2.9-29-10-42.2c-3.6-6.6-6.9-13.4-10.1-20.2c-3.1-6.5,0-10.8,7.3-10.7
	c18.2,0.4,33.6,16.4,34.1,35.3c0.2,8.2,0,16.4,0,24.7c0,8.2,0,16.4,0,24.9C533.8,547.8,540.6,547.8,548,547.8z"/>
<path class="st3" d="M526.2,686.5c5.4-7.5,9.7-13.7,14.4-19.6c1-1.2,3.6-1.4,5.5-1.4c36.9-0.1,73.8-0.1,110.8,0.1
	c2.5,0,5.8,1.3,7.3,3.2c4.2,5.2,7.6,11,12.1,17.8C625.7,686.5,577.3,686.5,526.2,686.5z"/>
<path class="st5" d="M463,409.8c6.8,0,13.5,0,20.5,0c0,6.7,0,13.5,0,20.7c-6.5,0-13.3,0-20.5,0C463,423.9,463,417.2,463,409.8z"/>
<path class="st5" d="M654.5,427.7c-7.3-1.8-14-3.5-20.8-5.2c0-4.4,0-8.3,0-12.6c6.9,0,13.7,0,20.8,0
	C654.5,415.5,654.5,421.2,654.5,427.7z"/>
<path class="st4" d="M248.7,621.7c0,7.3,0,14.4,0,22.5c-17.6,0-35.3,0-52.9,0c-17.6,0-35.1,0-53.1,0c-10.4-31.3-20.9-62.4-31.3-93.7
	c-3.8-11.5-8.4-23-10.6-34.9c-5.1-27.8,4.9-50.2,28-66.4c17.4-12.2,35.4-23.7,53.2-35.5c8.7-5.8,16.1-5.2,21.3,1.4
	c5.1,6.6,4.1,19.5-2.4,25c-4.6,3.9-9.5,7.3-14.3,10.9c-15.6,11.5-23.2,26.9-23.1,46.3c0.1,30.4,0,60.8,0,91.3
	c0,20.8,13.4,34.3,34,34.3c12.7,0,25.4,0.1,38,0C239.7,622.7,243.9,622.1,248.7,621.7z"/>
<path class="st6" d="M248.9,580.6c0,3.5,0.1,6.5,0,9.6c-0.3,7-4.3,11.1-11.4,11.2c-13.8,0.2-27.6,0.2-41.3,0
	c-7.1-0.1-11.2-4.2-11.3-11.3c-0.1-32.2-0.3-64.3,0.1-96.5c0.2-14,8.8-23,19.9-29.4c2.8,6.8,5.6,13.5,8.6,20.8
	c-9.9,13.1-10.2,27.2,0.4,41.2C197.2,559.1,208.6,577.1,248.9,580.6z"/>
<path class="st3" d="M263.5,686.7c-45.7,0-90.4,0-136.1,0c3.3-6.7,6.2-13,9.6-19.1c0.7-1.2,3.3-2,5-2c35.6-0.1,71.2-0.1,106.7,0
	c1.9,0,4.6,1.5,5.6,3.1C257.6,674.2,260.3,680,263.5,686.7z"/>
<path class="st4" d="M270.5,430.9c0-7.2,0-13.8,0-21.3c2.2,0,4.5,0,6.9,0c14.9,0,29.8-0.1,44.7,0c7.4,0,12,4.1,12.2,10.4
	c0.2,6.5-4.6,10.9-12.3,10.9C304.9,430.9,287.9,430.9,270.5,430.9z"/>
<path class="st4" d="M259.5,473.5c-6.9,0-13.8,0.1-20.6,0c-6.8-0.2-11.3-4.5-11.4-10.5c-0.1-6,4.4-10.6,11.1-10.7
	c14-0.2,27.9-0.2,41.9,0c6.7,0.1,11.1,4.8,11,10.8c-0.1,6-4.6,10.3-11.4,10.4C273.3,473.6,266.4,473.5,259.5,473.5z"/>
<path class="st4" d="M259.5,516.2c-6.9,0-13.8,0.1-20.6,0c-6.8-0.2-11.3-4.5-11.3-10.5c-0.1-6,4.4-10.6,11.1-10.7
	c14-0.2,27.9-0.2,41.9,0c6.6,0.1,11.1,4.8,11,10.8c-0.1,5.8-4.5,10.2-10.8,10.4C273.7,516.3,266.6,516.2,259.5,516.2z"/>
<path class="st4" d="M259.6,558.8c-6.6,0-13.3,0.1-20,0c-7.3-0.1-12-4.2-12.1-10.5c-0.1-6.3,4.5-10.7,11.7-10.8
	c13.5-0.1,27.1-0.1,40.6,0c7.2,0.1,11.8,4.5,11.7,10.8c-0.1,6.2-4.7,10.4-12,10.5C272.9,558.9,266.3,558.8,259.6,558.8z"/>
<path class="st7" d="M248.6,406.7c0,8.3,0,16,0,23.7c-7,0.5-13.8,0.9-20.4,1.4c-0.8-7.2-1.6-14.5-2.4-22.4
	C232.8,408.5,240.4,407.7,248.6,406.7z"/>
<path class="st8" d="M260.6,152.2c7.1,4.2,14.3,8.4,21.5,12.6c-14.5,15.9-29,31.7-43.6,47.7c-14.2-14.2-28.1-28.1-42.7-42.8
	c-25.1,25.2-49.5,49.6-74.3,74.4c1.7-57.5,63.1-110.8,134.4-82.9C257.3,158.3,259,155.3,260.6,152.2z"/>
<path class="st5" d="M206.6,211.4c6.9,7,12.8,13,18.6,19.1c1.2,1.3,2.3,3.4,2.3,5.1c0.1,36.2,0.1,72.4,0.1,109.3
	c-7.1,0-13.8,0-20.9,0C206.6,300.8,206.6,257,206.6,211.4z"/>
<path class="st5" d="M248.9,340.3c0-36.1,0-70.4,0.1-104.8c0-1.8,0.9-3.9,2.1-5.2c5.9-6.6,12-13.1,18.8-20.4c0.2,3,0.4,5,0.4,7.1
	c0,35.3-0.1,70.6,0.2,105.9c0,5.2-1.4,8.3-6.1,10.3C259.5,335.1,254.8,337.5,248.9,340.3z"/>
<path class="st5" d="M184.3,340.3c-6.9-3.5-13-6.5-18.9-9.9c-1.2-0.7-1.9-3.3-1.9-5c-0.1-29.7-0.1-59.4,0-89.1c0-1.9,1-4.3,2.4-5.7
	c5.7-6.2,11.6-12.1,18.4-19C184.3,254.8,184.3,296.7,184.3,340.3z"/>
<path class="st5" d="M298,179.9c3.8,5.6,7.5,11.2,11.3,16.7c-2.7,1.8-5.5,3.6-8.4,5.6c18.4,36.9,16,72.1-8.9,107.5
	c-0.2-3.9-0.4-5.9-0.4-7.9c0-35.9,0.1-71.9-0.1-107.8C291.5,187.9,292.9,183.3,298,179.9z"/>
<path class="st5" d="M141.9,254.1c0,19.1,0,36.5,0,55.1c-8.7-10.7-14.2-21.7-17.3-34c-0.3-1.4,0.2-3.5,1.1-4.6
	C130.6,265.3,135.8,260.3,141.9,254.1z"/>
<path d="M559.1,89.7c30.9,0,61.9,0,92.8,0c16,0,24.3,8.3,24.3,24.2c0,19.5,0,39.1,0,58.6c0,15.3-8.6,23.8-24.1,23.8
	c-62.3,0-124.6,0-187,0c-15.5,0-24-8.4-24-23.9c0-19.8,0-39.5,0-59.3c0-14.8,8.8-23.4,23.7-23.4C496.3,89.6,527.7,89.7,559.1,89.7z
	 M654.5,174.8c0-21.6,0-42.5,0-63.4c-64.1,0-127.8,0-191.5,0c0,21.4,0,42.3,0,63.4C526.9,174.8,590.5,174.8,654.5,174.8z"/>
<path class="st9" d="M612.1,334.4c-2-23.5,7.8-31.9,31.7-31.9c25,0,32.8,8.5,32.8,32.6c0,23.9-8.1,32.3-32.5,32.3
	C620.5,367.3,610.1,359.9,612.1,334.4z M633.7,345.2c7.4,0,14.2,0,20.8,0c0-7.2,0-13.9,0-20.5c-7.2,0-13.9,0-20.8,0
	C633.7,331.7,633.7,338.2,633.7,345.2z"/>
<path class="st9" d="M505.3,249.7c2,23.9-7.7,32.3-32,32.3s-32.5-8.3-32.5-32.3c0-24.5,8-32.7,32.8-32.6
	C497.1,217.2,507.3,225.1,505.3,249.7z M483.5,260.1c0-7.4,0-14.2,0-20.7c-7.2,0-14,0-20.5,0c0,7.2,0,13.9,0,20.7
	C470,260.1,476.6,260.1,483.5,260.1z"/>
<path class="st9" d="M590.8,249.4c2,24.4-7.6,32.6-32.4,32.6c-23.8,0-33.7-8.5-31.8-31.9c0.3-4-0.1-8,0.1-12
	c0.5-11.3,9.3-20.1,20.6-20.4c7.1-0.3,14.2-0.1,21.4,0c12.9,0.2,21.8,9,22,21.8C590.8,242.8,590.8,246.1,590.8,249.4z M548.4,239.1
	c0,7.3,0,14.1,0,20.8c7.1,0,13.9,0,20.6,0c0-7.1,0-13.9,0-20.8C562.1,239.1,555.5,239.1,548.4,239.1z"/>
<path class="st9" d="M676.2,249.1c2,24.8-7.6,33-32.3,33c-23.9,0-33.7-8.5-31.8-31.9c0.3-4-0.1-8,0.1-12
	c0.5-11.3,9.3-20.1,20.6-20.5c7.6-0.3,15.1-0.3,22.7,0c11.3,0.4,20.1,9.1,20.7,20.4C676.4,241.8,676.2,245.6,676.2,249.1z
	 M633.7,259.9c7.4,0,14.2,0,20.8,0c0-7.2,0-13.9,0-20.5c-7.2,0-13.9,0-20.8,0C633.7,246.4,633.7,252.9,633.7,259.9z"/>
<path class="st9" d="M473.1,366.9c-23.8,2-32.4-7.5-32.3-32c0-24.5,8.5-32.4,32.3-32.4c24.5,0,32.7,8.1,32.7,32.8
	C505.7,358.6,498,368.9,473.1,366.9z M483.6,345.3c0-7.1,0-13.9,0-20.8c-7.1,0-13.8,0-20.7,0c0,7.1,0,13.8,0,20.8
	C469.8,345.3,476.4,345.3,483.6,345.3z"/>
<path class="st8" d="M654.5,174.8c-64,0-127.5,0-191.5,0c0-21.1,0-42.1,0-63.4c63.6,0,127.4,0,191.5,0
	C654.5,132.3,654.5,153.2,654.5,174.8z"/>
<path class="st5" d="M633.7,345.2c0-6.9,0-13.5,0-20.5c6.8,0,13.6,0,20.8,0c0,6.6,0,13.3,0,20.5
	C647.8,345.2,641.1,345.2,633.7,345.2z"/>
<path class="st5" d="M483.5,260.1c-6.8,0-13.4,0-20.5,0c0-6.7,0-13.5,0-20.7c6.5,0,13.3,0,20.5,0
	C483.5,245.9,483.5,252.6,483.5,260.1z"/>
<path class="st5" d="M548.4,239.1c7,0,13.7,0,20.6,0c0,6.9,0,13.7,0,20.8c-6.7,0-13.5,0-20.6,0C548.4,253.2,548.4,246.4,548.4,239.1
	z"/>
<path class="st5" d="M633.7,259.9c0-6.9,0-13.5,0-20.5c6.8,0,13.6,0,20.8,0c0,6.6,0,13.3,0,20.5
	C647.8,259.9,641.1,259.9,633.7,259.9z"/>
<path class="st5" d="M483.6,345.3c-7.2,0-13.8,0-20.7,0c0-7,0-13.7,0-20.8c6.9,0,13.7,0,20.7,0C483.6,331.5,483.6,338.2,483.6,345.3
	z"/>
</svg>
