<?xml version="1.0" encoding="utf-8"?>
<!-- Generator: Adobe Illustrator 23.0.2, SVG Export Plug-In . SVG Version: 6.00 Build 0)  -->
<svg version="1.1" id="Layer_1" xmlns="http://www.w3.org/2000/svg" xmlns:xlink="http://www.w3.org/1999/xlink" x="0px" y="0px"
	 viewBox="0 0 768 768" style="enable-background:new 0 0 768 768;" xml:space="preserve">
<style type="text/css">
	.st0{fill:#020202;}
	.st1{fill:#75AE2C;}
	.st2{fill:#6F4F1D;}
	.st3{fill:#959EA9;}
	.st4{fill:#002060;}
	.st5{fill:#040403;}
	.st6{fill:#0B0A08;}
</style>
<path class="st0" d="M210.6,426.1c-23.2-10.2-36.9-27.1-41.4-50.7c-5.3-1.3-10.5-1.9-15.1-3.7c-20.3-8-29-31.3-19.6-50.8
	c1.1-2.2,1.4-5.1,1-7.5c-4.8-24.1-7.8-48.2-0.2-72.4c13.1-41.8,52.3-70.7,96.7-71.1c8-0.1,16.9,1.7,23.8-1.1
	c6.7-2.8,11.5-10.3,17-15.8c5.9-5.9,11.8-11.9,17.8-18c6.9,3.6,13.2,7.1,19.8,10.1c2.1,0.9,5.4,1,7.3-0.1c18.4-10.6,38-18.4,58.5-24
	c2.1-0.6,4.5-2.9,5.3-4.9c2.6-6.7,4.5-13.6,6.7-20.5c29.9,0,59.6,0,89.5,0c2.2,6.9,4.1,13.8,6.7,20.4c0.8,2.1,3.2,4.4,5.3,4.9
	c20.4,5.5,39.8,13.2,57.9,23.9c3.1,1.8,5.4,1.9,8.5,0.2c6.1-3.5,12.5-6.5,18.4-9.5c21.2,20.9,42.2,41.6,63.5,62.5
	c-3.3,6.2-6.9,12.6-10,19.3c-0.8,1.7-0.8,4.6,0.1,6.2c11,18.5,19.2,38,24.7,58.7c0.5,1.8,2.6,3.7,4.4,4.4c7,2.5,14.1,4.5,21.3,6.8
	c0,29.3,0,58.4,0,88.1c-6.8,2.1-13.9,4.1-20.8,6.7c-2.1,0.8-4.4,3.1-5,5.2c-5.6,20.1-13.3,39.2-24.3,57c-1.9,3.1-1.8,5.4-0.1,8.4
	c3.5,6,6.6,12.3,9.7,18.2c-21.1,20.8-42,41.3-63.5,62.4c-6-3.1-12.4-6.7-19.2-9.6c-2-0.9-5.4-0.9-7.3,0.2
	c-18.3,10.4-37.5,18.5-58,23.5c-3.7,0.9-5.2,2.7-6.1,5.9c-2,6.6-4.2,13.2-6.3,20.1c-21.8,0-43.4,0-64.3,0c0,31,0,61.6,0,92.6
	c-106.1,0-212.9,0-320.1,0c-0.1-1.2-0.3-2.7-0.3-4.1c0-21.5-0.1-43,0-64.6C93.3,532.6,136.5,470,203,443.5c2.2-0.9,4.3-3.5,5.2-5.8
	C209.6,434.1,209.8,430.2,210.6,426.1z M574.6,428.8c42.1-60,40.4-154.2-27.2-215.2c-65.8-59.4-155.9-51.6-204.5-17.5
	c21,21.7,29.6,37.9,32.8,64.5c2.1,17.9-0.7,35.5-4.3,53.1c-0.5,2.2-0.1,5,0.9,7c10.3,20.7-0.2,45.3-22.5,52.1c-3.9,1.2-8,1.6-12,2.4
	c-4.6,24.3-18.7,41.2-41.5,51c0.7,3.5,1.8,6.5,1.9,9.5c0.2,5.1,3,7.1,7.5,8.8c20.7,8.1,38.9,20.1,54.9,35.3c1.9,1.8,3.3,4.1,4.9,6.1
	c2.1-4.3,3.2-7.4,3.2-10.6c-0.3-9.6-1.2-19.2-1.5-28.8c-0.1-2.6,1.9-5.2,1.8-7.7c-0.4-8.6-1.8-17.2-2-25.8
	c-0.3-12.2,7.8-19.9,20.2-19.9c16.9-0.1,33.8,0,50.8,0c1.5,0,3-0.2,4.5-0.3c0-5.7,0-10.9,0-16.2c0.1-13,7.6-20.7,20.7-20.7
	c30.3,0,60.6,0,90.9,0c12.9,0,20.5,7.6,20.6,20.2c0.1,15.4-1.8,30.9,0,46.3C574.8,424.4,574.6,426.2,574.6,428.8z M614.7,473.3
	c-2.9-5.4-6-11-8.7-16.8c-0.8-1.7-0.7-4.6,0.3-6.1c14.5-22.2,24.9-46.1,30.1-72c0.6-3.1,2.3-4.4,5.3-5.2c6-1.7,11.9-3.7,17.8-5.6
	c0-20.4,0-40.4,0-60.7c-6-1.9-11.9-3.9-17.9-5.6c-3-0.8-4.6-2.2-5.2-5.3c-5.2-25.9-15.6-49.8-30.1-72c-1-1.5-1-4.4-0.2-6.1
	c2.6-5.8,5.8-11.4,8.6-16.5c-14.7-14.5-29.2-28.7-43.9-43.3c-5.3,2.7-10.9,5.8-16.8,8.4c-1.7,0.8-4.6,0.7-6.1-0.2
	c-22.5-14.3-46.7-24.5-73.1-29.7c-3.2-0.6-4.5-2.2-5.3-5.1c-1.7-5.9-3.7-11.8-5.6-17.4c-20.9,0-41.2,0-61.8,0
	c-1.9,6-3.9,11.6-5.5,17.4c-0.8,2.9-2.1,4.5-5.3,5.1c-26.3,5.2-50.5,15.4-73.1,29.7c-1.5,1-4.4,1-6.2,0.2
	c-5.9-2.6-11.5-5.8-16.6-8.4c-4.3,3.9-8.2,7.6-12.7,11.6c1.8,0.4,2.9,0.5,4,0.8c11.6,3.5,23.2,6.7,34.6,10.8c3.7,1.3,6,1.6,9.4-0.5
	c43.3-27.3,90.4-36.3,140.5-26c119.9,24.6,184.3,152,132.7,261.5c-33,70.1-109.6,113.5-187.2,106c-8.3-0.8-16.5-2.1-24.1-3.1
	c5.6,13.6,11.1,27.4,16.8,41.1c17.9,0,35.9,0,54.4,0c1.9-5.7,4-11.3,5.5-17.1c0.9-3.5,2.6-5.1,6.1-5.8c25.7-5,49.5-15,71.4-29.1
	c3-2,5.3-2.1,8.4-0.3c5.2,3,10.7,5.6,15.7,8.2C585.4,502.1,599.8,488,614.7,473.3z M187.3,329.2c0,12.2-0.1,24.4,0,36.6
	c0.3,22.3,16.1,41.8,38.5,44.7c15.1,2,30.6,1.2,45.9,1.2c27.1-0.1,47.6-20.4,47.8-47.1c0.1-23.8,0.1-47.6,0-71.5
	c0-8.4-3.3-11.6-11.7-11.6c-14.5,0-29.1,0-43.6,0c-15.8,0-29.5-5.3-41-16.1c-1.5-1.4-4-2.4-6.1-2.4c-16.9-0.4-29.6,11.7-29.7,28.5
	C187.3,304,187.3,316.6,187.3,329.2z M308.2,552.1c-0.6,0.4-1.3,0.7-1.9,1.1c-9.4-9.3-18.8-18.6-28.3-28c0.1,2,0.2,3.9,0.4,5.8
	c4.2,30.5,8.3,61,12.6,91.5c0.6,4.1-0.2,7.4-2.9,10.7c-5.3,6.4-10.1,13.2-15.5,20.3c22.3,0,43.8,0,65.9,0c0-31,0-61.7,0-92.4
	c6.5,0,12.5,0,19,0c0,31.1,0,61.8,0,92.3c12.8,0,25.1,0,37.5,0c0-16.9,0.2-33.4,0-49.8c-0.8-45.8-18.4-84.3-53-114.9
	c-7.6-6.7-16.3-12.2-25.5-18.9C313.7,498.4,310.9,525.3,308.2,552.1z M149.5,561.2c6.3,0,12.4,0,19.1,0c0,30.8,0,61.6,0,92.1
	c22,0,43.4,0,65.6,0c-5.6-7.3-10.9-13.8-15.5-20.7c-1.8-2.6-3-6.4-2.6-9.5c3.1-24.6,6.6-49.1,10-73.7c1.1-8.1,2-16.2,3-24.3
	c-0.5-0.2-0.9-0.4-1.4-0.6c-9.3,9.3-18.6,18.6-28.8,28.8c-2.9-28.1-5.6-54.9-8.4-82.4c-1.3,0.6-2.2,0.9-3,1.3
	c-42.8,26.4-68.4,64.1-74.2,113.6c-2.5,21.3-1.1,43-1.5,64.5c0,1.1,0.3,2.2,0.4,3.1c12.7,0,24.9,0,37.4,0
	C149.5,622.5,149.5,592.1,149.5,561.2z M353.5,302.6c0.5-1,1.1-1.7,1.1-2.3c0.6-14.1,2.7-28.3,1.3-42.1
	c-3.6-34.5-34.3-64.7-69.4-68.4c-17.3-1.8-34.9-1.3-52.4-1.3c-51.1,0-89.6,42.2-84.4,92.4c0.7,7.2,1.8,14.4,2.7,21.9
	c5.9-1.3,10.8-2.3,15.8-3.4c-1.5-29.1,11.4-47.9,40.3-55.1c-0.9-6.3-1.8-12.3-2.7-18.4c7,0,12.8,0,18.6,0
	c3.5,27.7,23.4,38.3,45,37.1c13.3-0.8,26.7-0.2,40.1-0.1c16.5,0.1,28.6,12.1,28.8,28.3c0,2.8,0,5.7,0,8.2
	C343.8,300.6,348.4,301.6,353.5,302.6z M254.2,499.9c-0.6,0-1.3,0.1-1.9,0.1c-0.4,1.8-1,3.5-1.2,5.4c-5,36.6-10.1,73.2-15,109.9
	c-0.4,2.8-1.5,6.5-0.3,8.5c5.4,8.1,11.5,15.8,17.7,23.9c6-7.8,11.4-14.7,16.5-21.8c1.1-1.5,1.6-3.9,1.4-5.8
	c-5.1-38.8-10.3-77.5-15.6-116.2C255.5,502.4,254.7,501.2,254.2,499.9z M555.5,374.9c-31.7,0-62.8,0-93.9,0c0,6.2,0,12.1,0,17.9
	c31.5,0,62.6,0,93.9,0C555.5,386.8,555.5,381,555.5,374.9z M461.4,430.1c31.7,0,62.8,0,93.9,0c0-6.2,0-12.1,0-17.9
	c-31.5,0-62.6,0-93.9,0C461.4,418.3,461.4,424,461.4,430.1z M461.5,467.6c21.3,0,41.9-0.8,62.5,0.3c12.4,0.7,21.6-2.9,28.9-12.3
	c0.2-0.3,0.6-0.5,0.8-0.8c0.8-1.7,1.6-3.4,2.6-5.4c-32.3,0-63.6,0-94.8,0C461.5,455.6,461.5,461.4,461.5,467.6z M230.1,430.5
	c-7.1,11.7-1.9,19.2,6.7,26.3c5.9,4.9,10.9,10.9,16.5,16.5c9-9,17.3-17,25.3-25.2c1.1-1.1,2-3,1.8-4.4c-0.6-4.5-1.8-8.9-2.7-13.2
	C261.2,430.5,245.3,430.5,230.1,430.5z M385.9,412.1c0,6.1,0,12,0,18.1c18.8,0,37.3,0,56.1,0c0-6.1,0-12,0-18.1
	C423.3,412.1,404.7,412.1,385.9,412.1z M385.9,449.3c0,6.4,0,12.1,0,17.9c18.9,0,37.6,0,56.1,0c0-6.2,0-11.9,0-17.9
	C423.3,449.3,404.8,449.3,385.9,449.3z M442.2,486.6c-19,0-37.6,0-56.1,0c-1,11.8-1,11.8,9.9,14.3c1.9,0.4,3.8,0.8,5.8,1.2
	c13.3,2.2,26.7,3.8,40.5,2.3C442.2,498.3,442.2,492.7,442.2,486.6z M239.3,485.5c-7.8-7.7-15.7-15.6-23.8-23.2
	c-1.1-1.1-3.4-1.4-5.1-1.2c-0.7,0.1-1.8,2.4-1.7,3.6c1.5,15.5,3.2,31,4.7,46.2C222.1,502.4,230.5,494.2,239.3,485.5z M267.7,485.1
	c9,8.9,17.4,17.2,25.7,25.3c1.5-14.7,3.2-30,4.7-45.3c0.1-1.4-0.8-3.6-1.9-4.1c-1.2-0.5-3.5,0-4.5,1
	C283.4,469.7,275.3,477.6,267.7,485.1z M168.2,319c-11.3,0.6-19.1,8.7-18.7,19.1c0.4,9.9,8.8,17.8,18.7,17.3
	C168.2,343.2,168.2,331.1,168.2,319z M338.8,319c0,12.3,0,24.5,0,36.7c9.8,0.4,18.9-8.7,18.6-18.9C357,327,349.3,319.4,338.8,319z
	 M508.7,488.4c-0.2-0.6-0.3-1.1-0.5-1.7c-15.6,0-31.2,0-46.7,0c0,5.4,0,10.4,0,16.9C477.7,498.4,493.2,493.4,508.7,488.4z"/>
<path class="st1" d="M614.7,473.3c-14.9,14.7-29.2,28.8-43.9,43.2c-5-2.6-10.5-5.1-15.7-8.2c-3.1-1.8-5.4-1.7-8.4,0.3
	c-21.9,14.2-45.6,24.1-71.4,29.1c-3.5,0.7-5.2,2.3-6.1,5.8c-1.5,5.8-3.6,11.4-5.5,17.1c-18.4,0-36.5,0-54.4,0
	c-5.6-13.8-11.2-27.5-16.8-41.1c7.6,1,15.8,2.3,24.1,3.1c77.6,7.5,154.2-35.9,187.2-106c51.6-109.5-12.8-236.9-132.7-261.5
	c-50.2-10.3-97.3-1.3-140.5,26c-3.4,2.1-5.7,1.9-9.4,0.5c-11.3-4.1-23-7.3-34.6-10.8c-1.1-0.3-2.2-0.5-4-0.8
	c4.4-4.1,8.4-7.7,12.7-11.6c5.1,2.6,10.8,5.8,16.6,8.4c1.7,0.8,4.6,0.7,6.2-0.2c22.5-14.3,46.8-24.5,73.1-29.7
	c3.2-0.6,4.5-2.2,5.3-5.1c1.6-5.8,3.6-11.4,5.5-17.4c20.5,0,40.9,0,61.8,0c1.8,5.6,3.9,11.4,5.6,17.4c0.8,2.9,2.1,4.5,5.3,5.1
	c26.3,5.2,50.5,15.4,73.1,29.7c1.5,1,4.4,1,6.1,0.2c5.9-2.6,11.5-5.7,16.8-8.4c14.7,14.5,29.2,28.7,43.9,43.3
	c-2.7,5.2-5.9,10.7-8.6,16.5c-0.8,1.7-0.8,4.6,0.2,6.1c14.5,22.2,24.9,46.1,30.1,72c0.6,3.1,2.2,4.4,5.2,5.3
	c6,1.6,11.9,3.7,17.9,5.6c0,20.4,0,40.3,0,60.7c-5.9,1.9-11.8,3.9-17.8,5.6c-2.9,0.8-4.6,2-5.3,5.2c-5.3,25.9-15.6,49.8-30.1,72
	c-1,1.5-1,4.4-0.3,6.1C608.6,462.3,611.8,467.9,614.7,473.3z"/>
<path class="st2" d="M187.3,329.2c0-12.6-0.1-25.2,0-37.8c0.1-16.8,12.8-28.9,29.7-28.5c2.1,0.1,4.6,1,6.1,2.4
	c11.5,10.8,25.2,16.1,41,16.1c14.5,0,29.1,0,43.6,0c8.4,0,11.7,3.3,11.7,11.6c0,23.8,0.1,47.6,0,71.5c-0.2,26.8-20.7,47.1-47.8,47.1
	c-15.3,0-30.8,0.8-45.9-1.2c-22.4-2.9-38.2-22.4-38.5-44.7C187.2,353.6,187.3,341.4,187.3,329.2z M207.3,358.7
	c3.9,19.3,24.7,34.6,46.5,34.5c21.5-0.1,42.1-15.4,45.9-34.5c-5.6-1.8-11.3-3.6-17.2-5.5c-5.3,13.4-14.6,21.2-29,21.3
	c-14.6,0-23.9-8.2-29.1-21.3C218.5,355.1,213.1,356.8,207.3,358.7z M225.1,309.5c0.1-5-4-9.3-9.2-9.4c-5.1-0.2-9.5,3.8-9.7,8.9
	c-0.2,5.2,4.1,9.7,9.4,9.7C220.8,318.7,225,314.6,225.1,309.5z M300.7,309.6c0.1-5-4-9.3-9.1-9.5c-5.1-0.2-9.5,3.7-9.8,8.8
	c-0.3,5.2,4,9.8,9.3,9.8C296.2,318.8,300.5,314.7,300.7,309.6z"/>
<path class="st3" d="M308.2,552.1c2.7-26.8,5.5-53.7,8.4-82.4c9.2,6.7,17.9,12.2,25.5,18.9c34.6,30.6,52.2,69.1,53,114.9
	c0.3,16.5,0,32.9,0,49.8c-12.4,0-24.7,0-37.5,0c0-30.5,0-61.2,0-92.3c-6.5,0-12.5,0-19,0c0,30.7,0,61.4,0,92.4c-22,0-43.5,0-65.9,0
	c5.4-7.1,10.2-13.9,15.5-20.3c2.7-3.3,3.5-6.6,2.9-10.7c-4.3-30.5-8.4-61-12.6-91.5c-0.3-1.9-0.3-3.8-0.4-5.8
	c9.5,9.4,18.9,18.7,28.3,28C306.9,552.9,307.5,552.5,308.2,552.1z"/>
<path class="st3" d="M149.5,561.2c0,30.9,0,61.3,0,92.2c-12.4,0-24.7,0-37.4,0c-0.1-0.9-0.4-2-0.4-3.1c0.4-21.5-1-43.2,1.5-64.5
	c5.8-49.4,31.4-87.2,74.2-113.6c0.8-0.5,1.7-0.7,3-1.3c2.8,27.4,5.5,54.3,8.4,82.4c10.2-10.2,19.5-19.5,28.8-28.8
	c0.5,0.2,0.9,0.4,1.4,0.6c-1,8.1-1.9,16.2-3,24.3c-3.3,24.6-6.9,49.1-10,73.7c-0.4,3,0.8,6.8,2.6,9.5c4.6,6.9,10,13.4,15.5,20.7
	c-22.1,0-43.6,0-65.6,0c0-30.5,0-61.2,0-92.1C161.9,561.2,155.8,561.2,149.5,561.2z"/>
<path d="M353.5,302.6c-5.1-1.1-9.7-2.1-15.1-3.2c0-2.5,0-5.3,0-8.2c-0.2-16.3-12.3-28.2-28.8-28.3c-13.4-0.1-26.8-0.7-40.1,0.1
	c-21.6,1.3-41.5-9.4-45-37.1c-5.8,0-11.6,0-18.6,0c0.9,6.1,1.8,12.1,2.7,18.4c-28.9,7.1-41.7,26-40.3,55.1c-5,1.1-9.9,2.1-15.8,3.4
	c-0.9-7.5-2-14.7-2.7-21.9c-5.2-50.2,33.2-92.5,84.4-92.4c17.5,0,35.1-0.6,52.4,1.3c35,3.7,65.8,33.9,69.4,68.4
	c1.4,13.9-0.7,28.1-1.3,42.1C354.6,301,354,301.7,353.5,302.6z"/>
<path class="st4" d="M254.2,499.9c0.5,1.3,1.4,2.5,1.6,3.9c5.3,38.7,10.5,77.5,15.6,116.2c0.2,1.9-0.3,4.3-1.4,5.8
	c-5.1,7.1-10.5,14-16.5,21.8c-6.1-8.2-12.3-15.8-17.7-23.9c-1.3-1.9-0.1-5.6,0.3-8.5c5-36.6,10-73.3,15-109.9
	c0.2-1.8,0.8-3.6,1.2-5.4C252.9,500,253.5,500,254.2,499.9z"/>
<path class="st3" d="M555.5,374.9c0,6.1,0,11.9,0,17.9c-31.3,0-62.4,0-93.9,0c0-5.8,0-11.7,0-17.9
	C492.7,374.9,523.8,374.9,555.5,374.9z"/>
<path class="st3" d="M461.4,430.1c0-6.1,0-11.8,0-17.9c31.3,0,62.4,0,93.9,0c0,5.8,0,11.7,0,17.9
	C524.3,430.1,493.1,430.1,461.4,430.1z"/>
<path class="st3" d="M461.5,467.6c0-6.3,0-12,0-18.2c31.2,0,62.4,0,94.8,0c-0.9,2-1.7,3.7-2.6,5.4c-0.2,0.3-0.6,0.5-0.8,0.8
	c-7.4,9.3-16.5,12.9-28.9,12.3C503.4,466.8,482.7,467.6,461.5,467.6z"/>
<path class="st3" d="M442.2,486.6c0,6.1,0,11.7,0,17.7c-13.7,1.5-27.1-0.1-40.5-2.3c-1.9-0.3-3.9-0.7-5.8-1.2
	c-10.9-2.5-10.9-2.5-9.9-14.3C404.6,486.6,423.2,486.6,442.2,486.6z"/>
<path class="st2" d="M230.1,430.5c15.2,0,31.1,0,47.6,0c0.9,4.3,2.1,8.7,2.7,13.2c0.2,1.4-0.8,3.3-1.8,4.4
	c-8.1,8.2-16.3,16.2-25.3,25.2c-5.6-5.7-10.6-11.6-16.5-16.5C228.2,449.8,223,442.2,230.1,430.5z"/>
<path class="st3" d="M385.9,412.1c18.8,0,37.3,0,56.1,0c0,6.1,0,12,0,18.1c-18.8,0-37.3,0-56.1,0
	C385.9,424.1,385.9,418.2,385.9,412.1z"/>
<path class="st3" d="M385.9,449.3c18.8,0,37.4,0,56.1,0c0,6,0,11.7,0,17.9c-18.5,0-37.2,0-56.1,0
	C385.9,461.4,385.9,455.7,385.9,449.3z"/>
<path class="st3" d="M239.3,485.5c-8.9,8.7-17.3,17-25.8,25.3c-1.6-15.2-3.3-30.7-4.7-46.2c-0.1-1.2,1-3.5,1.7-3.6
	c1.7-0.2,3.9,0.2,5.1,1.2C223.7,469.9,231.5,477.8,239.3,485.5z"/>
<path class="st3" d="M267.7,485.1c7.7-7.4,15.7-15.4,24-23.1c1-0.9,3.4-1.5,4.5-1c1.1,0.5,2,2.7,1.9,4.1
	c-1.4,15.3-3.1,30.6-4.7,45.3C285.1,502.3,276.7,494,267.7,485.1z"/>
<path class="st2" d="M168.2,319c0,12.2,0,24.3,0,36.4c-9.9,0.5-18.3-7.3-18.7-17.3C149.2,327.6,157,319.5,168.2,319z"/>
<path class="st2" d="M338.8,319c10.5,0.4,18.2,8,18.6,17.9c0.3,10.1-8.8,19.3-18.6,18.9C338.8,343.5,338.8,331.3,338.8,319z"/>
<path class="st3" d="M508.7,488.4c-15.5,5-31,10-47.2,15.2c0-6.5,0-11.5,0-16.9c15.5,0,31.1,0,46.7,0
	C508.4,487.2,508.6,487.8,508.7,488.4z"/>
<path class="st0" d="M442.5,300.3c0,6,0,11.8,0,18c-6.2,0-12.2,0-18.7,0c0-5.5,0-11.5,0-17.8c-9.2-0.9-17.4-3.8-22.4-11.2
	c-3.3-4.8-5-10.6-7.9-16.8c7.8,0,13.9,0,19.9,0c3.3,7.9,4.9,9,14,9c4.9,0,9.8,0.1,14.8-0.1c5.6-0.2,9.5-4,9.6-9.1
	c0.1-5.3-3.8-9.3-9.8-9.4c-5.7-0.2-11.4,0-17.1-0.1c-16.3-0.1-28.9-11.3-29.7-26.3c-0.8-15.3,10-27.4,26.3-29.5
	c0.5-0.1,1.1-0.2,1.8-0.4c0-5.9,0-11.7,0-17.9c6.2,0,12.2,0,18.7,0c0,5.5,0,11.5,0,17.8c9.2,1,17.4,3.7,22.4,11.2
	c3.2,4.8,5,10.6,7.9,16.8c-7.8,0-13.8,0-19.9,0c-3.3-7.9-4.9-9-14-9c-4.9,0-9.8-0.1-14.8,0.1c-5.6,0.2-9.5,4-9.6,9.1
	c-0.1,5.3,3.8,9.3,9.8,9.5c5.7,0.2,11.4,0,17.1,0.1c16.1,0.1,28.5,10.9,29.7,25.7c1.2,15.2-9.6,27.8-25.7,30.1
	C444.2,300.1,443.4,300.2,442.5,300.3z"/>
<path class="st5" d="M207.3,358.7c5.8-1.9,11.2-3.6,17-5.5c5.3,13.1,14.5,21.3,29.1,21.3c14.4,0,23.7-7.9,29-21.3
	c5.9,1.9,11.5,3.7,17.2,5.5c-3.8,19.1-24.4,34.4-45.9,34.5C232,393.3,211.1,378,207.3,358.7z"/>
<path class="st6" d="M225.1,309.5c-0.1,5-4.3,9.2-9.4,9.2c-5.3,0-9.7-4.5-9.4-9.7c0.2-5,4.6-9,9.7-8.9
	C221,300.3,225.2,304.5,225.1,309.5z"/>
<path class="st6" d="M300.7,309.6c-0.1,5-4.4,9.1-9.5,9.1c-5.3-0.1-9.6-4.6-9.3-9.8c0.3-5,4.7-9,9.8-8.8
	C296.7,300.3,300.8,304.6,300.7,309.6z"/>
</svg>
