<?xml version="1.0" encoding="utf-8"?>
<!-- Generator: Adobe Illustrator 23.0.2, SVG Export Plug-In . SVG Version: 6.00 Build 0)  -->
<svg version="1.1" id="Layer_1" xmlns="http://www.w3.org/2000/svg" xmlns:xlink="http://www.w3.org/1999/xlink" x="0px" y="0px"
	 viewBox="0 0 2500 2500" style="enable-background:new 0 0 2500 2500;" xml:space="preserve">
<path d="M419.55,2491.63c18.18-17.47,36.35-34.96,54.55-52.42c49.54-47.51,99.09-95.01,148.65-142.5c0.89-0.86,2.01-1.48,2.99-2.2
	c-68.3-67.8-136.05-135.06-204.24-202.75c0.22-0.2-0.97,0.81-2.07,1.91c-74.75,74.78-149.47,149.58-224.24,224.34
	c-35.41,35.4-70.98,70.65-106.31,106.12c-21.28,21.36-42.26,43.03-63.35,64.58c-0.84,0.86-1.46,1.94-2.18,2.92
	c-3.31,0-6.63,0.1-9.93-0.11c-0.46-0.03-0.83-1.55-1.25-2.37c1.72-1.37,3.62-2.57,5.15-4.12c19.98-20.31,39.78-40.8,59.87-61
	c35.14-35.34,70.46-70.5,105.69-105.75c1.27-1.27,2.41-2.68,3.79-4.22c-1.19-1.31-2.09-2.4-3.09-3.4
	C127.74,2254.78,71.88,2198.92,16,2143.08c-1.13-1.13-2.54-1.96-3.82-2.94c0-4.14,0-8.28,0-12.42
	c10.59,10.48,21.21,20.91,31.75,31.44c48.03,47.99,96.03,95.99,144,144.03c1.59,1.59,2.69,3.65,4.4,6.01
	c282.28-283.24,563.43-565.36,844.37-847.25c-66.78-66.78-133.21-133.21-200.15-200.16c-1.37,1.3-2.99,2.77-4.54,4.31
	c-91.89,91.94-183.84,183.82-275.65,275.83c-111.81,112.04-223.48,224.22-335.27,336.28c-35.37,35.46-71.01,70.67-106.36,106.15
	c-34.29,34.43-68.38,69.06-102.55,103.6c0-4.14,0-8.28,0-12.42c1.71-1.44,3.53-2.76,5.1-4.33
	c56.08-56.45,112.14-112.93,168.21-169.4c7.14-7.19,14.34-14.32,21.48-21.52c1.1-1.11,2.01-2.41,3.02-3.65
	c-0.86-0.97-1.37-1.62-1.95-2.2c-63.98-64.14-127.96-128.27-191.97-192.38c-1.1-1.1-2.58-1.82-3.88-2.72c0-7.87,0-15.73,0-23.6
	c1.69-1.47,3.49-2.84,5.07-4.43c35.78-36.15,71.47-72.38,107.31-108.48c25.66-25.85,51.5-51.53,77.25-77.29
	c1.55-1.55,3.04-3.17,4.62-4.83c-1.59-1.7-2.69-2.93-3.85-4.09c-62.34-62.35-124.68-124.71-187.04-187.04
	c-0.99-0.99-2.23-1.74-3.36-2.6c0-7.04,0-14.08,0-21.11c1.72-1.36,3.61-2.56,5.14-4.11c47.06-47.42,94.06-94.89,141.13-142.3
	c16.33-16.45,32.8-32.77,49.19-49.16c1.4-1.4,2.71-2.9,4.12-4.42c-1.15-1.28-1.79-2.08-2.52-2.8
	C144.86,978.71,80.48,914.31,16.06,849.93c-1.1-1.1-2.58-1.81-3.88-2.71c0-3.31,0-6.62,0-9.94c2.5,1.49,5.43,2.53,7.42,4.52
	c63.6,63.44,127.11,126.96,190.6,190.5c1.74,1.74,3.07,3.89,4.09,5.21c67.06-67.06,133.27-133.27,200.06-200.07
	c-67.23-67.25-135.46-135.5-203.11-203.16C284,561.55,355.8,489.76,428.31,417.26c483.62,485.02,968.31,971.11,1453.23,1457.42
	c-71.9,72.52-143.63,144.87-216.04,217.9c-68.38-68.99-136.34-137.55-204.94-206.76c-66.58,67.21-132.76,134-199.39,201.25
	c68.43,68,136.64,135.78,205.17,203.87c-2.26,2.5-3.52,4.03-4.92,5.43c-42.87,42.89-85.84,85.68-128.6,128.69
	c-21.86,21.99-43.33,44.37-64.98,66.57c-3.73,0-7.45,0-11.18,0c2.58-2.89,5.03-5.91,7.76-8.65c15.47-15.56,31.05-31,46.51-46.57
	c46.77-47.11,93.5-94.27,140.24-141.41c0.86-0.86,1.63-1.81,2.54-2.83c-67.89-67.47-135.66-134.82-203.82-202.55
	c-68.8,68.81-138.28,138.29-208.37,208.39c-67.72-68.2-135.18-136.14-202.86-204.3c-2.4,2.16-3.78,3.3-5.05,4.56
	c-66.47,66.42-132.53,133.25-199.55,199.12c-43.83,43.08-89.11,84.68-133.6,127.1c-22.28,21.24-44.23,42.83-66.3,64.28
	c-0.86,0.83-1.47,1.91-2.19,2.88C427.83,2491.63,423.69,2491.63,419.55,2491.63z M430.75,839.18
	C361.2,909,293.16,977.29,224.95,1045.77c65.72,66.27,131.51,132.61,197.04,198.68c69.34-68.29,138.12-136.04,207.21-204.08
	c209.07,209.73,419.18,420.49,630.05,632.02c-68.79,68.52-136.95,136.4-205.29,204.48c66.76,67.37,133.2,134.43,200.03,201.88
	c68.45-69.21,136.31-137.82,204.82-207.08c69.38,69.98,138.06,139.24,207.05,208.83c68.29-68.91,136.07-137.29,203.94-205.77
	C1388.76,1392.31,908,910.16,428.38,429.16c-68.56,68.55-136.38,136.38-206.56,206.56C290.94,703.02,360.72,770.98,430.75,839.18z
	 M1246.41,1672.37c-68.35-68.88-135.73-136.76-203.01-204.56c-205.32,205.86-409.94,411.01-614.73,616.34
	c68.35,68.01,135.95,135.26,204.38,203.35c67.66-68.23,135.64-136.78,204.55-206.27c68.5,69.03,135.94,136.99,202.73,204.3
	c68.32-68.32,135.83-135.83,203.46-203.47c-67.07-67.84-134.64-136.17-202.7-205.01C1109.65,1808.7,1177.9,1740.67,1246.41,1672.37z
	 M217.1,1870.34c204.3-204.92,408.81-410.04,613.34-615.2c-66.98-67.44-133.72-134.64-198.89-200.26
	c-69.32,67.54-138.46,134.9-206.67,201.36c-68.78-67.01-138.49-134.92-208.29-202.93c-66.6,67.06-134.19,135.14-202.71,204.14
	c67.99,67.98,135.84,135.82,203.81,203.78c-68.06,68.67-136.17,137.39-204.49,206.32C81.13,1735.11,148.77,1802.39,217.1,1870.34z"
	/>
<path d="M1257.9,0.18c4.47,4.58,8.91,9.2,13.43,13.73c64.08,64.1,128.18,128.19,192.27,192.3c1.57,1.57,3.04,3.26,5.45,5.86
	c-68.49,68.52-136.71,136.77-204.61,204.69c67.19,67.2,134.03,134.03,202.47,202.48c0.9-1.49,1.82-4.02,3.55-5.74
	c128.86-128.98,257.86-257.82,386.68-386.84c73.81-73.92,147.35-148.1,220.98-222.19c1.25-1.25,2.15-2.84,3.22-4.28
	c2.48,0,4.97,0,7.45,0c1.52,1.83,2.76,3.5,0.02,5.54c-1.97,1.46-3.57,3.44-5.33,5.19c-67.47,67.47-135.01,134.87-202.4,202.42
	c-135.03,135.35-269.99,270.79-404.99,406.17c-1.46,1.46-3.18,2.65-6.46,5.34c68.26,66.48,135.78,132.24,203.29,197.99
	c-0.51,0.86-1.02,1.71-1.54,2.57c1.59-1.49,3.23-2.93,4.76-4.47c50.7-50.87,101.49-101.66,152.08-152.63
	c146.49-147.61,292.93-295.26,439.33-442.96c72.96-73.61,145.78-147.35,218.66-221.05c1.3-1.32,2.5-2.74,3.74-4.12
	c2.07,0,4.14,0,6.21,0c0.58,3.99-0.96,6.87-3.84,9.77c-63.72,63.91-127.33,127.93-190.99,191.89c-1.6,1.61-3.56,2.86-5.39,4.3
	c6.49,7.18,12.01,13.82,18.07,19.91c57.69,57.94,115.38,115.87,173.37,173.51c6.34,6.3,9.54,12.37,9.07,21.48
	c-0.34,6.67-2.07,11.34-6.84,16.1c-60.7,60.49-121.18,121.2-181.75,181.82c-1.89,1.89-4.18,3.37-6.56,5.25
	c1.7,2.05,2.5,3.18,3.46,4.14c62.31,62.61,124.64,125.2,186.97,187.79c6.53,6.56,6.46,21.62-0.16,28.24
	c-63.81,63.82-127.61,127.65-191.43,191.46c-1.31,1.31-2.84,2.4-4.77,4.02c2.39,2.63,4.22,4.75,6.17,6.76
	c3.03,3.12,6.15,6.14,9.21,9.23c60.5,60.91,120.94,121.87,181.6,182.61c4.46,4.46,3.75,9.01,3.59,15.88
	c-67.94-68.41-134.86-135.8-202.13-203.54c-66.17,66.67-132.14,133.14-198.36,199.86c68.01,67.99,136,135.97,204.5,204.46
	c-72.49,73.1-144.22,145.45-216.24,218.08c-2.02-1.88-3.66-3.33-5.21-4.88c-36.01-36-72.04-71.98-108-108.03
	c-149.79-150.18-299.58-300.36-449.33-450.58c-108.83-109.17-217.55-218.46-326.4-327.61c-185.01-185.51-370.1-370.94-555.11-556.44
	c-3.74-3.75-6.98-8.01-12.09-13.92c2.7-1.87,5.77-3.38,8.07-5.67c67.1-66.96,134.13-134,201.14-201.06
	c1.44-1.44,2.53-3.22,3.78-4.84c2.48,0,4.97,0,7.45,0c0.67,0.78,1.29,1.6,2.01,2.33c65.37,65.38,130.75,130.75,196.14,196.1
	c1.1,1.1,2.4,2.01,3.67,3.07c1.07-1,1.83-1.68,2.56-2.41c65.09-65.07,130.18-130.15,195.24-195.25c1.11-1.11,1.87-2.56,2.79-3.85
	C1252.94,0.18,1255.42,0.18,1257.9,0.18z M2083.15,1662.1c68.75-69.37,136.53-137.77,205.02-206.88
	c-68.51-68.5-136.51-136.51-204.76-204.75c67.99-68.54,136.07-137.18,203.34-204.99c-67.68-67.67-134.78-134.77-202.61-202.6
	c-67.63,67.64-135.75,135.76-204.24,204.25c-209.13-209.81-418.27-419.63-627.75-629.79c68.65-68.67,136.89-136.92,204.5-204.55
	c-68.27-68.24-135.51-135.46-202.84-202.76c-67.56,67.56-135.59,135.6-204.04,204.05c-68.51-68.5-136.65-136.65-204.05-204.05
	c-68.26,68.22-136.24,136.17-204.27,204.16c3.2,3.66,6.62,8.05,10.52,11.96c146.81,147.3,293.66,294.55,440.51,441.81
	c146.99,147.4,293.98,294.81,440.97,442.21c146.7,147.11,293.39,294.23,440.1,441.33c34.2,34.29,68.5,68.49,102.72,102.77
	C2078.46,1656.48,2080.38,1658.94,2083.15,1662.1z M2287.06,626.19c70.77-70.2,139.45-138.32,209.72-208.02
	c-68.74-67.99-136.81-135.33-204.84-202.63c-204.6,205.18-409.38,410.55-614.15,615.9c67.99,67.74,135.7,135.18,204.34,203.57
	c67.77-67.79,136.05-136.08,204.86-204.92c67.63,67.76,135.42,135.67,203.05,203.44c68.06-68.08,135.66-135.69,204.2-204.25
	C2425.74,762.12,2357.07,694.82,2287.06,626.19z"/>
<path d="M1660.31,2491.63c18.52-18.62,36.98-37.3,55.56-55.85c148.06-147.76,296.16-295.48,444.21-443.26
	c110.25-110.05,220.45-220.17,330.68-330.25c1.26-1.25,2.67-2.36,4.69-4.13c1.15,6.04,1.2,10.2-3.21,14.57
	c-104.59,103.79-209.1,207.67-313.46,311.7c-147.7,147.25-295.29,294.61-442.88,441.98c-20.32,20.29-40.34,40.87-60.46,61.36
	c-1.09,1.11-1.82,2.57-2.72,3.87C1668.59,2491.63,1664.45,2491.63,1660.31,2491.63z"/>
<path d="M12.18,417.49c32.4-33.15,64.82-66.27,97.2-99.44c29.06-29.77,58.14-59.52,87.1-89.39
	C269.2,153.67,341.87,78.62,414.54,3.57c0.97-1,1.69-2.26,2.53-3.4c2.48,0,4.97,0,7.45,0c2.95,3.36-0.09,5.05-1.99,7.01
	C384.28,46.46,346.01,85.73,307.75,125c-30.03,30.82-60.13,61.58-90.09,92.48C152.61,284.6,87.62,351.77,22.63,418.94
	c-1.86,1.92-3.45,4.1-5.04,5.99c-2.42-1.66-3.91-2.69-5.41-3.72C12.18,419.97,12.18,418.73,12.18,417.49z"/>
<path d="M2080.11,2491.63c-2.62-2.58-1.31-4.28,0.92-6.43c14.93-14.33,29.74-28.78,44.55-43.23
	c120.69-117.72,241.38-235.44,362.07-353.16c1.75-1.71,3.56-3.35,5.32-5.01c4.56,4.47,4.49,7.01-0.08,11.44
	c-22.85,22.21-45.73,44.39-68.58,66.6c-89.47,86.97-178.98,173.91-268.37,260.96c-22.2,21.62-44.03,43.6-66,65.45
	c-0.96,0.96-1.59,2.24-2.38,3.37C2085.08,2491.63,2082.59,2491.63,2080.11,2491.63z"/>
</svg>
