<?xml version="1.0" encoding="utf-8"?>
<!-- Generator: Adobe Illustrator 23.0.2, SVG Export Plug-In . SVG Version: 6.00 Build 0)  -->
<svg version="1.1" id="Layer_1" xmlns="http://www.w3.org/2000/svg" xmlns:xlink="http://www.w3.org/1999/xlink" x="0px" y="0px"
	 viewBox="0 0 768 768" style="enable-background:new 0 0 768 768;" xml:space="preserve">
<style type="text/css">
	.st0{fill:#9D6F4C;}
	.st1{fill:#E5C19B;}
	.st2{fill:#4C453F;}
	.st3{fill:#8E633F;}
	.st4{fill:#E9E8DF;}
	.st5{fill:#DFDAD2;}
	.st6{fill:#4D4D4D;}
	.st7{fill:#E7E6DD;}
	.st8{fill:#E7E7DE;}
	.st9{fill:#926845;}
	.st10{fill:#C6C5B1;}
	.st11{fill:#E8E7DE;}
	.st12{fill:#C7C6B1;}
	.st13{fill:#3B3B39;}
</style>
<path class="st0" d="M652.28,736.64c-61.32,9.76-122.88,17.06-184.8,20.54c-7.27,0.41-14.5,1.65-21.75,2.5c-34.2,0-68.4,0-102.6,0
	c-9.22-0.96-18.42-2.23-27.66-2.85c-78.5-5.2-156.39-15.69-233.73-31.1c-1.03-0.21-2.04-0.53-4.53-1.18
	c2.46-24.26,4.36-48.46,7.56-72.45c1.83-13.72,5.33-27.24,8.88-40.61c7.34-27.62,24.56-46.24,47.77-59.05
	c25.06-13.84,52.43-19.32,79.59-25.5c23.71-5.39,47.93-8.66,70.17-20.04c0.53-0.27,1.29,0.01,1.95,0.03
	c3.99,6.93,7.99,13.87,11.98,20.8c0.47,2.24,0.52,4.73,1.49,6.68c6.06,12.15,12.32,24.19,18.52,36.26
	c2.24,4.35,4.49,8.69,6.93,13.41c3.92-4.63,7.05-8.33,10.19-12.04c9.58,10.62,19.08,21.33,28.8,31.8c2.04,2.2,4.88,3.55,7.35,5.29
	c8.82,17.88,30.02,18.52,41.32,1.25c0.79-0.31,1.83-0.38,2.34-0.98c10.62-12.28,21.18-24.63,31.74-36.96
	c0.37-0.1,0.73-0.19,1.1-0.29c1.81,3.82,3.62,7.65,6.1,12.9c2.53-4.34,4.19-7,5.67-9.78c5.43-10.22,10.63-20.58,16.34-30.61
	c0.97-1.7,4.15-3.11,6.06-2.81c7.73,1.21,15.35,3.2,23.04,4.8c27.86,5.8,55.53,12.27,80.84,26.94
	c21.51,12.47,36.61,30.66,43.98,56.17C646.98,664.61,650.72,700.43,652.28,736.64z"/>
<path class="st1" d="M566.8,270.57c5.73,24.33,2.92,47.25-10.38,68.1c-2.51,3.94-6.09,7.86-10.02,9.76
	c-4.83,2.33-6.52,5.3-7.69,10.72c-7.97,37-21.6,71.08-46.19,99.09c-4.04,4.6-8.52,8.75-12.79,13.1
	c-12.82,7.93-25.41,16.34-38.55,23.59c-7.27,4.01-15.46,6.06-23.24,9c-1.7,0.88-3.39,1.76-5.09,2.64
	c-10.08,0.04-20.16,0.09-30.23,0.13c-1.8-1.35-3.44-3.2-5.43-3.97c-5.52-2.14-11.58-3-16.73-5.85
	c-14.69-8.1-29.04-16.94-43.52-25.49c-10.69-13.63-22.43-26.48-31.84-41.08c-14.25-22.12-21.82-47.63-27.62-73.72
	c-0.51-2.31-2.48-4.45-4.18-6.21c-5.42-5.63-12.73-10-16.24-16.73c-9.85-18.91-14.29-39.27-7.76-60.96
	c0.66-2.18,0.52-4.63,0.75-6.96c0.92-0.4,2.29-0.51,2.7-1.25c3.73-6.64,9.1-9.99,15.29-9.67c2.3-6.06,3.79-11.75,6.45-16.7
	c8.26-15.37,20.43-26.39,34.93-34.45c14.17-7.88,29.41-11.64,45.16-14.03c28.42-4.32,55.97-1.61,82.33,10.73
	c14.84,6.95,29.1,15.34,43.77,22.74c14.92,7.52,30.42,12.14,47.08,8.33c13.7-3.13,26.07-9.19,36.63-22.06
	c1.11,16.37,2.08,30.84,3.09,45.71C558.28,254.21,562.37,262.62,566.8,270.57z"/>
<path class="st2" d="M566.8,270.57c-4.43-7.95-8.53-16.36-19.33-15.51c-1-14.87-1.98-29.33-3.09-45.71
	c-10.56,12.87-22.92,18.93-36.63,22.06c-16.66,3.81-32.16-0.81-47.08-8.33c-14.67-7.4-28.92-15.79-43.77-22.74
	C390.55,188,363,185.29,334.58,189.61c-15.75,2.4-30.98,6.15-45.16,14.03c-14.5,8.06-26.67,19.09-34.93,34.45
	c-2.66,4.95-4.15,10.64-6.45,16.7c-6.19-0.31-11.56,3.04-15.29,9.67c-0.41,0.73-1.78,0.85-2.7,1.25c-5.88-27.92-11.5-56-8.95-84.81
	c0.87-9.8,4.32-19.6,8.05-28.71c1.71-4.18,6.57-7.51,10.7-9.67c3.26-1.71,4.27-3.41,4.94-7.04c7.68-41.44,31.14-68.69,66.49-84.9
	c33.56-15.4,68.84-16.75,104.51-14.31c23.35,1.6,46.67,4.17,70.04,4.79c8.84,0.23,18.11-2.82,26.61-6.09
	c14.52-5.58,32.06,0.83,42.96,17.05c11.73,17.46,15.2,37.66,14.9,58.4c-0.24,16.45-2.71,32.87-4.43,49.28
	c-0.39,3.72-0.46,6.06,2.98,8.82c8.19,6.57,9.07,17.12,9.25,26.98C578.59,221.2,573.98,246.14,566.8,270.57z"/>
<path class="st3" d="M652.28,736.64c-1.56-36.21-5.3-72.03-15.36-106.85c-7.37-25.52-22.47-43.71-43.98-56.17
	c-25.32-14.67-52.98-21.14-80.84-26.94c-7.68-1.6-15.3-3.59-23.04-4.8c-1.91-0.3-5.09,1.11-6.06,2.81
	c-5.71,10.03-10.91,20.39-16.34,30.61c-1.48,2.78-3.14,5.44-5.67,9.78c-2.49-5.25-4.29-9.08-6.1-12.9c0.88-1.42,1.77-2.83,2.65-4.25
	c1.5,1.12,3,2.25,4.81,3.61c6.62-10.89,12.98-21.34,19.34-31.8c7.31-11.38,14.62-22.75,21.93-34.13
	c20.72,11.44,43.52,14.84,65.89,19.84c28.61,6.39,57.49,11.76,84.04,25.86c26.51,14.08,44.04,35.63,51.7,67.29
	c7.51,31.04,11.44,62.37,12.8,94.25c0.09,2.12,0.49,4.22,0.66,6.34c0.15,1.83,0.17,3.67,0.28,6.5
	C696.58,729.36,674.43,733,652.28,736.64z"/>
<path class="st4" d="M316.94,471.4c14.48,8.55,28.83,17.38,43.52,25.49c5.15,2.84,11.21,3.71,16.73,5.85
	c1.99,0.77,3.63,2.61,5.43,3.97c-7.08,9.55-14.17,19.1-21.25,28.66c-2.73,3.24-5.72,6.28-8.14,9.77
	c-4.85,6.98-9.39,14.2-14.07,21.32c-2.15,1.61-4.31,3.23-6.61,4.95c-9.15-14.55-18.3-29.1-27.46-43.65
	c-3.99-6.93-7.99-13.87-11.98-20.8C301.07,495.09,309.01,483.24,316.94,471.4z"/>
<path class="st5" d="M503.62,505.6c-7.31,11.38-14.62,22.75-21.93,34.13c-16.52-4.15-33.69-6.69-47.49-18.58
	c-5.9-5.09-10.86-11.44-16.25-17.21c7.78-2.93,15.97-4.99,23.24-8.99c13.14-7.25,25.73-15.66,38.55-23.59
	C487.7,482.76,495.66,494.18,503.62,505.6z"/>
<path class="st6" d="M361.38,535.35c7.08-9.55,14.17-19.1,21.25-28.66c10.08-0.04,20.16-0.09,30.24-0.13
	c5.2,6.53,10.55,12.93,15.52,19.66c2.36,3.2,3.99,7.02,5.95,10.56c-0.54,0.5-1.08,1-1.62,1.49c-5.44,6.6-10.89,13.21-16.33,19.81
	c-9.9,0-19.8,0-29.7,0c-0.08,0.58-0.17,1.16-0.25,1.74c10.06,2.24,20.13,4.47,30.19,6.71c1.03,14.62,2.06,29.23,3.09,43.85
	c-11.29,17.27-32.5,16.63-41.32-1.25c0.82-10.54,1.43-21.11,2.49-31.62c1.9-18.79,2.02-18.78-10.26-32.43
	c-2.12-2.36-4.34-4.61-6.51-6.91C363.21,537.24,362.3,536.3,361.38,535.35z"/>
<path class="st7" d="M364.12,538.18c2.17,2.3,4.39,4.55,6.51,6.91c12.28,13.65,12.16,13.64,10.26,32.43
	c-1.06,10.51-1.68,21.08-2.49,31.62c-2.47-1.74-5.31-3.08-7.35-5.28c-9.72-10.47-19.22-21.18-28.8-31.8
	c-0.27-0.86-0.54-1.71-0.8-2.57c5.88-8.84,11.68-17.74,17.69-26.48C360.43,541.11,362.44,539.77,364.12,538.18z"/>
<path class="st8" d="M419.72,610.39c-1.03-14.62-2.06-29.23-3.09-43.85c-0.08-2.82-0.16-5.63-0.24-8.45
	c5.44-6.6,10.89-13.21,16.33-19.81c7.03,11.39,14.06,22.78,21.09,34.17c-10.57,12.33-21.13,24.68-31.74,36.96
	C421.54,610.01,420.51,610.08,419.72,610.39z"/>
<path class="st9" d="M341.44,569.48c0.27,0.86,0.54,1.71,0.8,2.57c-3.14,3.71-6.27,7.41-10.19,12.04c-2.44-4.72-4.7-9.06-6.93-13.41
	c-6.2-12.07-12.46-24.11-18.52-36.26c-0.97-1.95-1.01-4.44-1.49-6.68c9.15,14.55,18.3,29.1,27.46,43.65
	c2.3-1.72,4.46-3.34,6.61-4.95C339.93,567.45,340.68,568.47,341.44,569.48z"/>
<path class="st10" d="M453.8,572.45c-7.03-11.39-14.06-22.78-21.09-34.17c0.54-0.5,1.08-1,1.62-1.49c0.78,0.31,1.88,0.37,2.31,0.98
	c7.02,10.01,13.96,20.08,20.91,30.14c-0.88,1.42-1.77,2.83-2.65,4.25C454.53,572.26,454.17,572.36,453.8,572.45z"/>
<path class="st11" d="M457.55,567.91c-6.96-10.06-13.89-20.14-20.91-30.14c-0.43-0.61-1.52-0.67-2.31-0.98
	c-1.96-3.54-3.58-7.37-5.95-10.56c-4.97-6.73-10.32-13.12-15.52-19.66c1.7-0.88,3.39-1.76,5.09-2.64
	c5.39,5.77,10.35,12.12,16.25,17.21c13.8,11.9,30.96,14.43,47.49,18.58c-6.36,10.45-12.71,20.91-19.34,31.8
	C460.55,570.16,459.05,569.04,457.55,567.91z"/>
<path class="st12" d="M341.44,569.48c-0.75-1.01-1.51-2.03-2.26-3.04c4.67-7.12,9.21-14.35,14.07-21.32
	c2.43-3.49,5.41-6.52,8.14-9.77c0.91,0.94,1.83,1.89,2.74,2.83c-1.69,1.59-3.7,2.92-5,4.82
	C353.12,551.74,347.31,560.64,341.44,569.48z"/>
<path class="st13" d="M416.38,558.09c0.08,2.82,0.16,5.63,0.24,8.45c-10.06-2.24-20.13-4.47-30.19-6.71
	c0.08-0.58,0.17-1.16,0.25-1.74C396.58,558.09,406.48,558.09,416.38,558.09z"/>
</svg>
