<?xml version="1.0" encoding="utf-8"?>
<!-- Generator: Adobe Illustrator 23.0.2, SVG Export Plug-In . SVG Version: 6.00 Build 0)  -->
<svg version="1.1" id="Layer_1" xmlns="http://www.w3.org/2000/svg" xmlns:xlink="http://www.w3.org/1999/xlink" x="0px" y="0px"
	 viewBox="0 0 768 768" style="enable-background:new 0 0 768 768;" xml:space="preserve">
<style type="text/css">
	.st0{fill:#020202;}
	.st1{fill:#FBFBFB;}
	.st2{fill:#F5F5F5;}
	.st3{fill:#D3D3D3;}
	.st4{fill:#002060;}
	.st5{fill:#75AE2C;}
	.st6{fill:#D6B6D4;}
	.st7{fill:#040404;}
	.st8{fill:#030303;}
	.st9{fill:#040403;}
	.st10{fill:#F4CB57;}
	.st11{fill:#040402;}
</style>
<path class="st0" d="M122.1,216.3c0-24.9,0-49.8,0-74.7c3.6-8.4,9.8-14.4,18.6-17.9c95.1,0,190.3,0,285.4,0c1.6,1.3,3.4,2.6,4.9,4.1
	c32.7,31.5,65.4,63,98.2,94.4c3.1,3,4.3,6.1,4.3,10.2c-0.2,18.9,0,37.9-0.1,56.8c0,3,1,4.5,3.6,6.2c9,5.9,18.3,11.6,26.4,18.5
	c23.3,20.2,37.7,45.5,44.1,75c1.5,6.8,0,9.4-6.3,11.9c-6,0.1-8.7-3-9.9-8.4c-15.7-74.7-96-118.6-169.7-91.7
	c-49.9,18.2-77.8,54.2-83.6,105.3c-2.3,20.6,1,40.8,10.5,59.8c0.3,0.7,0.7,1.5,1,2.2c0.3,0.7,0.7,1.4,1,2.1c0.5,1.3,1,2.6,1.6,3.8
	c35.4,65.1,124,85.9,186.6,43.6c18.2-12.3,32.6-27.7,41.8-47.4c7.7-13.7,11.4-28.6,12.8-43.9c0.5-5.5,2.6-9,8.7-9.4
	c6.8,1.8,8.4,3.9,7.7,10.8c-0.6,5.9-1.6,11.8-2.7,17.6c-3.4,16.8-10.4,32.2-19.5,46.1c6.8,6.6,13.3,12.9,19.9,19.2
	c5.9-3,8.4-2.7,13.2,1.9c13.5,13,26.9,26.1,40.6,38.9c9,8.4,17.8,16.8,20.9,29c0,4.9,0,9.8,0,14.7c-0.4,0.5-1,0.9-1.2,1.5
	c-7.8,28.8-45.8,37.4-67.3,15c-15.2-15.8-31.6-30.6-47.4-45.8c-5.4-5.2-5.7-7.2-2.8-13.1c-6.7-6.5-13.2-12.8-19.8-19.2
	c-0.9,0.5-2.1,1.5-3.4,1.9c-6.1,2-6.9,6.2-6.8,11.8c0.3,29.3-0.4,58.6,0.3,87.8c0.5,17.6-12.5,27.7-28.6,27.7
	c-94.2-0.4-188.4-0.2-282.6-0.2c-25,0-49.9,0-74.9,0c-9.5,0-16.8-3.9-21.9-11.6c-1.3-2-2.3-4.2-3.5-6.3c0-134,0-267.9,0-401.9
	c2.9-1.8,5.8-3.5,8.7-5.3c6.3,1.5,7.8,5.7,7.8,11.5c-0.1,125.9-0.1,251.9-0.1,377.8c0,2.1,0.1,4.2,0.2,6.3
	c-0.6,11.5,1.4,13.7,13.2,13.7c117.4,0,234.8,0,352.2,0c1.8,0,3.7,0.2,5.5-0.1c4.2-0.7,6.9-3,7.3-7.3c0.2-2.1-0.1-4.2-0.1-6.3
	c0-28.7,0-57.4,0-86.3c-1,0.2-1.7,0.3-2.4,0.5c-17.2,5.9-34.9,8.2-53.1,8.1c-58-0.2-115.9-0.1-173.9-0.1c-1.6,0-3.3,0.1-4.9-0.1
	c-4.2-0.5-6.7-2.9-7.2-6.7c-0.6-4.2,1.6-7.2,5.7-8.4c1.8-0.6,3.9-0.5,5.9-0.5c34.6,0,69.3,0,103.9,0c1.8,0,3.7,0,5.3,0
	c-9.3-6.7-18.2-13.4-27.3-19.7c-2-1.4-4.7-2.6-7.2-2.6c-14-0.2-28.1-0.1-42.1-0.1c-11.5,0-23,0.1-34.4,0c-6.1-0.1-9.7-3-9.9-7.6
	c-0.2-4.9,3.5-8.2,9.7-8.2c19.9-0.1,39.7,0,59.6,0c1.7,0,3.5-0.1,6.2-0.3c-14.1-17.9-22.9-37.2-27.4-58.5c-2.5,0-4.5,0-6.4,0
	c-10.9,0-21.9,0-32.8,0c-4,0-7.6-1.6-8.3-5.5c-0.4-2.5,0.4-6,2.1-8c1.4-1.6,4.8-2.2,7.4-2.2c11.8-0.2,23.6-0.1,35.6-0.1
	c0-7.8,0-15.1,0-22.9c-1.8,0-3.6,0-5.4,0c-10.6,0-21.1,0.1-31.7,0c-5.1-0.1-8.6-3.2-8.7-7.6c-0.1-4.6,3.4-7.9,8.7-8.2
	c1.6-0.1,3.3,0,4.9,0c11.6,0,23.3,0,35.1,0c4.4-20.7,13.5-39.1,26.9-56.5c-17.4,0-33.4,0-49.4,0c-6.2,0-12.4,0.1-18.6-0.2
	c-4.7-0.2-7.3-3.1-7.5-7.5c-0.2-4.2,2.3-6.9,6.6-7.8c1.7-0.4,3.6-0.4,5.4-0.4c24.6,0,49.2,0,73.8-0.1c1.9,0,4.3,0,5.7-1
	c9.8-7,19.4-14.2,29.2-21.5c-1.5,0-3.3,0-5,0c-34.6,0-69.3,0-103.9,0c-2,0-4.1,0-5.9-0.5c-4.2-1.2-6.3-4.2-5.7-8.4
	c0.5-3.9,3-6.3,7.2-6.8c1.3-0.1,2.5-0.1,3.8-0.1c59.6,0,119.2,0,178.8,0c5.3,0,10.6,0,15.8,0.8c11.9,2,23.8,4.5,35.8,6.8
	c0-11.5,0-23.7,0-35.9c0-3.8,0-7.5,0-11.5c-24.8,0-49.1-0.1-73.4,0.1c-7.2,0.1-13.6-1.4-19.4-5.4c-6.6-6.1-8.9-13.5-8.8-22.2
	c0.3-21.9,0.1-43.8,0.1-65.7c0-1.5-0.2-3-0.2-4.5c-0.9-0.1-1.4-0.2-2-0.2c-88.1,0-176.2,0-264.4,0c-7.2,0-10,2.9-10,10.1
	c0,20.8-0.1,41.7,0,62.5c0,5.3-2.2,8.7-7.7,9.7C127.9,220,125,218.2,122.1,216.3z M566.7,516c-2.9,2.4-5.9,4.9-8.2,6.8
	c6.1,6.1,11.8,11.8,17.7,17.8c2.8-2.9,5.6-5.7,8.5-8.6c3.4-3.2,6.8-6.5,9.8-9.3c-6.1-6-11.7-11.6-17.7-17.5
	C573.4,508.8,570.1,512.4,566.7,516z M659.4,601.6c8.4-8.6,8.4-20.9-0.3-29.7c-8.6-8.6-17.5-16.9-26.2-25.3
	c-6.5-6.3-13-12.7-18.7-18.3c-8.3,7.5-16.1,14.6-23.9,21.6c-2.9,2.6-5.7,5.2-8.2,7.5c16.2,15.9,31.7,31.9,48.1,47
	C638.2,611.8,651.4,609.8,659.4,601.6z M431.6,151.5c0,21-0.1,41.5,0.1,62c0,5.5,3.4,8.1,9.8,8.2c20.2,0,40.5,0,60.7,0
	c0.8,0,1.5-0.3,2-0.4C480,198.1,456,175,431.6,151.5z"/>
<path class="st1" d="M122.1,216.3c2.9,1.9,5.8,3.7,8.7,5.6c0,5.2,0,10.3,0,15.5c-2.9,1.8-5.8,3.5-8.7,5.3
	C122.1,233.9,122.1,225.1,122.1,216.3z"/>
<path class="st2" d="M140.6,123.7c-8.8,3.5-15,9.5-18.6,17.9c0-5.9,0-11.8,0-17.9C128.2,123.7,134.4,123.7,140.6,123.7z"/>
<path class="st3" d="M130.8,237.4c0-5.2,0-10.3,0-15.5c5.5-1.1,7.8-4.4,7.7-9.7c-0.1-20.8-0.1-41.7,0-62.5c0-7.2,2.8-10.1,10-10.1
	c88.1,0,176.2,0,264.4,0c0.5,0,1.1,0.1,2,0.2c0.1,1.5,0.2,3,0.2,4.5c0,21.9,0.2,43.8-0.1,65.7c-0.1,8.7,2.2,16.2,8.8,22.2
	c0.1,10.9,6.3,16.7,17.6,16.7c25.1,0,50.2,0,75.2,0c0,12.2,0,24.4,0,35.9c-12.1-2.3-23.9-4.8-35.8-6.8c-5.2-0.9-10.5-0.8-15.8-0.8
	c-59.6-0.1-119.2,0-178.8,0c-1.3,0-2.6-0.1-3.8,0.1c-4.2,0.5-6.7,2.9-7.2,6.8c-0.6,4.2,1.6,7.2,5.7,8.4c1.9,0.5,3.9,0.5,5.9,0.5
	c34.6,0,69.3,0,103.9,0c1.8,0,3.5,0,5,0c-9.7,7.2-19.3,14.5-29.2,21.5c-1.4,1-3.8,1-5.7,1c-24.6,0.1-49.2,0-73.8,0.1
	c-1.8,0-3.7,0-5.4,0.4c-4.3,0.9-6.7,3.6-6.6,7.8c0.2,4.4,2.8,7.3,7.5,7.5c6.2,0.3,12.4,0.2,18.6,0.2c16,0,32,0,49.4,0
	c-13.4,17.4-22.4,35.8-26.9,56.5c-11.8,0-23.5,0-35.1,0c-1.6,0-3.3-0.1-4.9,0c-5.4,0.3-8.9,3.6-8.7,8.2c0.1,4.4,3.6,7.5,8.7,7.6
	c10.6,0.1,21.1,0,31.7,0c1.8,0,3.5,0,5.4,0c0,7.8,0,15.1,0,22.9c-12.1,0-23.9-0.1-35.6,0.1c-2.5,0-6,0.6-7.4,2.2
	c-1.7,1.9-2.6,5.4-2.1,8c0.7,3.9,4.3,5.4,8.3,5.5c10.9,0.1,21.9,0,32.8,0c2,0,4,0,6.4,0c4.5,21.3,13.2,40.6,27.4,58.5
	c-2.7,0.1-4.5,0.3-6.2,0.3c-19.9,0-39.7,0-59.6,0c-6.2,0-10,3.3-9.7,8.2c0.2,4.7,3.8,7.6,9.9,7.6c11.5,0.1,23,0,34.4,0
	c14,0,28.1-0.1,42.1,0.1c2.4,0,5.2,1.2,7.2,2.6c9.1,6.3,18,12.9,27.3,19.7c-1.6,0-3.4,0-5.3,0c-34.6,0-69.3,0-103.9,0
	c-2,0-4.1-0.1-5.9,0.5c-4.1,1.3-6.3,4.3-5.7,8.4c0.5,3.9,3,6.3,7.2,6.7c1.6,0.2,3.3,0.1,4.9,0.1c58,0,115.9-0.1,173.9,0.1
	c18.2,0.1,35.9-2.2,53.1-8.1c0.7-0.2,1.4-0.3,2.4-0.5c0,28.9,0,57.6,0,86.3c-3.5,0.7-7,2-10.5,2c-119,0.1-238,0.1-357,0
	c-3.5,0-7-1.3-10.5-2c-0.1-2.1-0.2-4.2-0.2-6.3c0-125.9,0-251.9,0.1-377.8C138.6,243,137.1,238.9,130.8,237.4z M251,528.3
	c0-5.4,0.1-10.9,0-16.3c-0.1-11.3-7.8-18.7-19.5-18.8c-11.3-0.1-22.6-0.1-33.9,0c-11.3,0.1-19.1,7.1-19.4,17.9
	c-0.3,11.4-0.3,22.8,0,34.2c0.3,10.8,7.9,17.9,19.2,18c11.5,0.2,22.9,0.2,34.4,0c11.5-0.2,19-7.6,19.1-18.7
	C251.1,539.1,251,533.7,251,528.3z M251,304.5c0-5.6,0.1-11.2,0-16.8c-0.2-10.8-7.7-18.3-18.8-18.5c-11.6-0.2-23.3-0.2-35,0
	c-11,0.2-18.7,7.1-19,17.7c-0.3,11.6-0.3,23.1,0,34.7c0.3,10.5,8,17.6,19,17.7c11.6,0.2,23.3,0.2,35,0c11.1-0.2,18.6-7.7,18.8-18.5
	C251.1,315.4,251,309.9,251,304.5z M214.6,380.2C214.6,380.2,214.6,380.2,214.6,380.2c-5.8,0-11.7-0.1-17.5,0
	c-11.1,0.2-18.6,7-18.9,17.7c-0.3,11.5-0.4,23.1,0,34.7c0.3,10.4,7.9,17.3,18.6,17.4c11.8,0.2,23.7,0.2,35.5,0
	c10.6-0.1,18.4-7.3,18.6-17.4c0.2-11.7,0.3-23.5,0-35.2c-0.2-9.7-7.7-16.8-17.8-17.1C227,380,220.8,380.2,214.6,380.2z"/>
<path class="st4" d="M601.1,400.8c0.3,5.3,0.6,10.5,0.8,15.8c-6,0.5-8.2,4-8.7,9.4c-1.4,15.4-5,30.2-12.8,43.9
	c-1.8,1.6-3.9,2.9-5.4,4.7c-9.6,12.2-20.8,22.9-34,31.4c-29.1,18.6-61.1,25.3-95.5,20.5c-38-5.2-68.1-23.5-90.9-53
	c-1.1-1.4-2.8-2.5-4.2-3.7c-0.3-0.7-0.7-1.4-1-2.1c-0.3-0.7-0.7-1.5-1-2.2c-9.5-18.9-12.9-39.1-10.5-59.8c5.8-51,33.7-87,83.6-105.3
	c73.7-26.9,154,17,169.7,91.7C592.3,397.7,595.1,400.9,601.1,400.8z M374.4,452.8c2.4,4.7,4.7,9.3,7.1,14c-4.2,5.4-4.3,8.1,0,13
	c27.9,32.1,63.5,45.1,106.1,36.9c55.7-10.7,92.1-62.1,83.7-116.2c-8.3-53.9-59.8-92.1-116.7-86.6c-66.5,6.4-110.8,69.8-91.8,131.3
	C364.9,451.7,367.3,453.2,374.4,452.8z"/>
<path class="st3" d="M138.7,632.9c3.5,0.7,7,2,10.5,2c119,0.1,238,0.1,357,0c3.5,0,7-1.3,10.5-2c0.1,2.1,0.3,4.2,0.1,6.3
	c-0.4,4.2-3,6.6-7.3,7.3c-1.8,0.3-3.6,0.1-5.5,0.1c-117.4,0-234.8,0-352.2,0C140.1,646.6,138,644.5,138.7,632.9z"/>
<path class="st5" d="M431.6,151.5C456,175,480,198.1,504,221.2c-0.5,0.1-1.2,0.4-2,0.4c-20.2,0-40.5,0.1-60.7,0
	c-6.3,0-9.7-2.7-9.8-8.2C431.5,193,431.6,172.5,431.6,151.5z"/>
<path class="st4" d="M590.2,549.8c7.8-7,15.6-14.1,23.9-21.6c5.8,5.7,12.2,12,18.7,18.3c8.7,8.4,17.6,16.7,26.2,25.3
	c8.8,8.8,8.8,21.1,0.3,29.7c-11.1,0.9-19.4-3.9-26.9-11.3C618.6,576.5,604.3,563.3,590.2,549.8z"/>
<path class="st4" d="M350.5,469.9c1.4,1.2,3.1,2.3,4.2,3.7c22.9,29.5,52.9,47.8,90.9,53c34.4,4.7,66.4-1.9,95.5-20.5
	c13.3-8.5,24.4-19.2,34-31.4c1.4-1.8,3.6-3.2,5.4-4.7c-9.2,19.7-23.6,35.1-41.8,47.4c-62.6,42.3-151.2,21.5-186.6-43.6
	C351.4,472.5,351,471.2,350.5,469.9z"/>
<path class="st3" d="M516.7,249c-25.1,0-50.2,0-75.2,0c-11.3,0-17.5-5.9-17.6-16.7c5.8,4,12.2,5.4,19.4,5.4
	c24.3-0.2,48.6-0.1,73.4-0.1C516.7,241.4,516.7,245.2,516.7,249z"/>
<path class="st4" d="M590.2,549.8c14.1,13.4,28.4,26.7,42.3,40.4c7.5,7.4,15.8,12.3,26.9,11.3c-8,8.2-21.2,10.2-29.3,2.7
	c-16.4-15.1-31.9-31-48.1-47C584.5,555,587.3,552.4,590.2,549.8z"/>
<path class="st4" d="M566.7,516c3.4-3.6,6.7-7.2,10.1-10.9c6,5.9,11.6,11.5,17.7,17.5c-3,2.8-6.4,6.1-9.8,9.3
	C578.7,526.7,572.7,521.3,566.7,516z"/>
<path class="st4" d="M566.7,516c6,5.3,12,10.7,18,16c-2.8,2.9-5.6,5.8-8.5,8.6c-6-6-11.6-11.7-17.7-17.8
	C560.8,520.9,563.8,518.4,566.7,516z"/>
<path class="st6" d="M348.4,465.7c0.3,0.7,0.7,1.5,1,2.2C349.1,467.1,348.8,466.4,348.4,465.7z"/>
<path class="st7" d="M251,528.3c0,5.4,0.1,10.9,0,16.3c-0.2,11-7.7,18.5-19.1,18.7c-11.5,0.2-22.9,0.2-34.4,0
	c-11.3-0.2-18.9-7.2-19.2-18c-0.3-11.4-0.3-22.8,0-34.2c0.3-10.8,8.1-17.8,19.4-17.9c11.3-0.1,22.6-0.1,33.9,0
	c11.8,0.1,19.4,7.5,19.5,18.8C251.1,517.4,251,522.8,251,528.3z M195,536c-0.1,1.5-0.4,3.1-0.4,4.6c-0.1,6.8-0.1,6.8,7.3,6.8
	c7.2,0,14.5,0,21.7,0c11.6,0,11.6,0,10.9-11.4c0.1-7.7,0.1-15.4,0.2-23.1c0.1-2.9-1.1-4.1-4.1-4.1c-10.5,0.1-21.1,0.1-31.6,0
	c-3.1,0-4.2,1.2-4.2,4.1C194.9,520.7,194.9,528.4,195,536z"/>
<path class="st7" d="M251,304.5c0,5.4,0.1,10.9,0,16.3c-0.2,10.7-7.7,18.3-18.8,18.5c-11.6,0.2-23.3,0.2-35,0
	c-10.9-0.1-18.7-7.2-19-17.7c-0.3-11.6-0.3-23.1,0-34.7c0.3-10.5,8-17.5,19-17.7c11.6-0.2,23.3-0.2,35,0
	c11.1,0.2,18.6,7.7,18.8,18.5C251.1,293.3,251,298.9,251,304.5z M195,312c-0.1,1.7-0.2,3.5-0.4,5.2c-0.7,5,1.4,6.8,6.7,6.5
	c7.4-0.4,14.9-0.1,22.3-0.1c11.6,0,11.6,0,10.9-11.5c0.1-7.7,0-15.3,0.2-23c0.1-2.9-1.2-4.1-4.2-4.1c-10.5,0.1-21,0.1-31.6,0
	c-3,0-4.3,1.1-4.2,4C194.8,296.6,194.9,304.3,195,312z"/>
<path class="st8" d="M214.6,380.2c6.2,0,12.4-0.2,18.6,0c10,0.3,17.5,7.4,17.8,17.1c0.3,11.7,0.3,23.5,0,35.2
	c-0.2,10.1-8,17.3-18.6,17.4c-11.8,0.2-23.7,0.2-35.5,0c-10.7-0.1-18.2-7.1-18.6-17.4c-0.4-11.5-0.3-23.1,0-34.7
	c0.3-10.6,7.8-17.4,18.9-17.7C203,380.1,208.8,380.2,214.6,380.2C214.6,380.2,214.6,380.2,214.6,380.2z M195.1,423.5
	c-0.2,1.4-0.3,2.8-0.5,4.1c-0.9,5.3,1.3,7.1,6.9,6.7c7.6-0.5,15.3-0.1,22.9-0.1c10.8,0,10.8,0,10-10.7c0.1-7.9,0.1-15.7,0.2-23.6
	c0-2.5-0.6-3.9-3.6-3.9c-10.9,0.1-21.8-0.1-32.7,0.2c-1.2,0-3.4,2.1-3.5,3.2C194.7,407.4,194.9,415.4,195.1,423.5z"/>
<path class="st9" d="M374.4,452.8c-7.2,0.4-9.6-1.2-11.6-7.6c-19.1-61.5,25.2-124.9,91.8-131.3c56.9-5.5,108.4,32.7,116.7,86.6
	c8.4,54.2-28,105.6-83.7,116.2c-42.6,8.2-78.2-4.8-106.1-36.9c-4.3-5-4.2-7.6,0-13c6.7-2.3,8.6-1.8,13.5,4
	c24.9,29.2,64.3,40.1,100.9,27.4c23.8-8.3,41.5-23.4,51.7-46l0,0c0.3-0.7,0.7-1.5,1-2.2l0,0.1c0.3-0.7,0.7-1.5,1-2.2
	c6.1-13.5,7.6-27.6,5.7-42.1c-4.8-38.6-36.1-69.8-75.9-75.5c-40.8-5.9-80.7,15.2-96.9,51.4c-9.5,21.1-9.5,42.5-2.5,64.1
	C378.1,448,376.3,450.4,374.4,452.8z"/>
<path class="st3" d="M547.6,452.2c-10.2,22.6-27.9,37.7-51.7,46c-36.6,12.7-76,1.8-100.9-27.4c-4.9-5.8-6.8-6.3-13.5-4
	c-2.4-4.7-4.7-9.3-7.1-14c1.8-2.4,3.7-4.8,5.5-7.2c1.3,1.7,2.4,3.5,3.9,5c8,8,15.2,17.1,24.4,23.6c20.9,14.6,44.6,20.5,70.5,16.8
	c25-3.5,45.6-14.2,61.9-32.8C542.6,455.9,545.3,454.1,547.6,452.2z"/>
<path class="st5" d="M195,536c-0.1-7.7-0.1-15.4-0.3-23.1c-0.1-2.9,1.1-4.1,4.2-4.1c10.5,0.1,21.1,0.1,31.6,0c3.1,0,4.2,1.2,4.1,4.1
	c-0.2,7.7-0.2,15.4-0.2,23.1C221.3,536.1,208.1,536.1,195,536z"/>
<path class="st5" d="M195,536c13.1,0,26.3,0,39.4,0.1c0.8,11.4,0.8,11.4-10.9,11.4c-7.2,0-14.5,0-21.7,0c-7.3,0-7.3,0-7.3-6.8
	C194.6,539.1,194.8,537.6,195,536z"/>
<path class="st5" d="M195,312c-0.1-7.7-0.1-15.3-0.3-23c-0.1-2.9,1.2-4.1,4.2-4c10.5,0.1,21,0.1,31.6,0c3,0,4.2,1.1,4.2,4.1
	c-0.2,7.7-0.2,15.3-0.2,23C221.3,312,208.1,312,195,312z"/>
<path class="st5" d="M195,312c13.2,0,26.3,0,39.5,0.1c0.7,11.5,0.7,11.5-10.9,11.5c-7.4,0-14.9-0.3-22.3,0.1
	c-5.3,0.3-7.4-1.4-6.7-6.5C194.8,315.4,194.8,313.7,195,312z"/>
<path class="st5" d="M195.1,423.5c-0.1-8-0.4-16-0.2-24.1c0-1.1,2.2-3.2,3.5-3.2c10.9-0.3,21.8-0.1,32.7-0.2c3,0,3.7,1.4,3.6,3.9
	c-0.1,7.9-0.2,15.7-0.2,23.6C221.3,423.5,208.2,423.5,195.1,423.5z"/>
<path class="st5" d="M195.1,423.5c13.1,0,26.2,0,39.3,0.1c0.8,10.7,0.8,10.7-10,10.7c-7.6,0-15.3-0.4-22.9,0.1
	c-5.6,0.4-7.8-1.4-6.9-6.7C194.8,426.2,194.9,424.8,195.1,423.5z"/>
<path class="st3" d="M547.6,452.2c-2.3,2-5,3.7-6.9,6c-16.2,18.7-36.9,29.3-61.9,32.8c-25.9,3.6-49.7-2.2-70.5-16.8
	c-9.2-6.5-16.4-15.6-24.4-23.6c-1.5-1.5-2.6-3.3-3.9-5c-7-21.7-7-43.1,2.5-64.1c16.3-36.1,56.1-57.3,96.9-51.4
	c39.9,5.8,71.1,36.9,75.9,75.5c1.8,14.5,0.3,28.6-5.7,42.1c-0.3,0.7-0.7,1.5-1,2.2c0,0,0-0.1,0-0.1
	C548.3,450.7,547.9,451.4,547.6,452.2L547.6,452.2z M454.9,403.3c-0.4-0.4-1.2-1.6-2.3-2.6c-11.4-10.2-27-10.3-37.1-0.1
	c-9.9,10-9.3,24.9,1.6,35.3c6.6,6.3,13.3,12.5,19.9,18.7c12.5,11.7,27.2,11.6,39.4-0.4c13.4-13.1,26.8-26.3,40.1-39.5
	c11-10.9,11.4-25.9,1.1-35.7c-10.5-10-26.2-9.4-37.5,1.3C472.2,387.9,463.8,395.2,454.9,403.3z"/>
<path class="st10" d="M548.6,450c0.3-0.7,0.7-1.5,1-2.2C549.2,448.5,548.9,449.2,548.6,450z"/>
<path class="st10" d="M547.6,452.2c0.3-0.7,0.7-1.5,1-2.2C548.3,450.7,547.9,451.4,547.6,452.2z"/>
<path class="st11" d="M454.9,403.3c8.9-8,17.2-15.4,25.3-23c11.3-10.7,27-11.4,37.5-1.3c10.3,9.9,9.9,24.8-1.1,35.7
	c-13.3,13.2-26.7,26.4-40.1,39.5c-12.2,12-27,12.1-39.4,0.4c-6.7-6.2-13.3-12.4-19.9-18.7c-10.9-10.4-11.5-25.2-1.6-35.3
	c10.1-10.2,25.7-10.1,37.1,0.1C453.7,401.6,454.5,402.8,454.9,403.3z M507.1,391.8c-4.7-5.4-9.5-5.8-14.7-0.8
	c-9.7,9.4-19.2,19-28.9,28.5c-4.7,4.6-9,4.7-13.7,0.6c-3.2-2.8-6.1-6-9.4-8.7c-5.6-4.6-11.7-3-14.6,3.7c0.8,3,0.6,6.8,2.5,8.8
	c6.9,7.2,14.3,13.9,21.7,20.6c4.4,4,9.3,4,13.5-0.1c14.2-13.8,28.2-27.7,42.2-41.7C508.9,399.6,509.9,395.8,507.1,391.8z"/>
<path class="st5" d="M425.7,415.1c2.9-6.7,9.1-8.4,14.6-3.7c3.3,2.7,6.2,5.9,9.4,8.7c4.7,4.2,9,4,13.7-0.6
	c9.7-9.4,19.2-19.1,28.9-28.5c5.2-5,10-4.6,14.7,0.8c-0.8,1.3-1.4,2.9-2.4,3.9c-11.8,11.8-23.7,23.7-35.7,35.4
	c-7.1,7-17.3,6.8-24.8,0C438.2,425.7,431.9,420.4,425.7,415.1z"/>
<path class="st5" d="M425.7,415.1c6.2,5.4,12.5,10.6,18.5,16.1c7.4,6.8,17.6,7,24.8,0c12-11.7,23.8-23.5,35.7-35.4
	c1.1-1.1,1.6-2.6,2.4-3.9c2.8,4,1.8,7.7-1.4,10.9c-14,14-28.1,27.9-42.2,41.7c-4.2,4.1-9.1,4.1-13.5,0.1
	c-7.4-6.7-14.9-13.4-21.7-20.6C426.3,421.8,426.5,418,425.7,415.1z"/>
</svg>
