<?xml version="1.0" encoding="utf-8"?>
<!-- Generator: Adobe Illustrator 23.0.2, SVG Export Plug-In . SVG Version: 6.00 Build 0)  -->
<svg version="1.1" id="Layer_1" xmlns="http://www.w3.org/2000/svg" xmlns:xlink="http://www.w3.org/1999/xlink" x="0px" y="0px"
	 viewBox="0 0 768 768" style="enable-background:new 0 0 768 768;" xml:space="preserve">
<style type="text/css">
	.st0{fill:#3B4A51;}
	.st1{fill:#465A61;}
	.st2{fill:#CC2F44;}
	.st3{fill:#E53950;}
	.st4{fill:#CB2E43;}
	.st5{fill:#FE9E00;}
	.st6{fill:#FCBE00;}
	.st7{fill:#596C76;}
	.st8{fill:#697C86;}
	.st9{fill:#A7D2D7;}
	.st10{fill:#C5E1E6;}
	.st11{fill:#FE9F01;}
	.st12{fill:#A8D2D7;}
	.st13{fill:#FCBE01;}
	.st14{fill:#3D4B52;}
	.st15{fill:#495D63;}
	.st16{fill:#3C4B51;}
	.st17{fill:#485C63;}
</style>
<path class="st0" d="M692.09,703.72c5.69,0.07,11.42,0.57,17.06,0.12c12.39-0.99,21.11,3.62,25.84,15.15c0,3.65,0,7.3,0,10.95
	c-2.94,7.13-8.02,12.15-15.23,15.06c-113.09,0-226.18,0-339.27,0c0.01-13.62,0.01-27.23,0.02-40.85c6.92-0.15,13.83-0.3,20.75-0.45
	c20.77,0,41.54,0,62.3,0c20.78,0,41.55,0,62.33,0c13.84,0,27.69,0.01,41.53,0.01c20.76,0,41.53,0,62.29,0
	C650.51,703.71,671.3,703.71,692.09,703.72z"/>
<path class="st1" d="M380.52,704.15c-0.01,13.62-0.01,27.23-0.02,40.85c-112.17,0-224.33,0-336.5,0c-9.8-2.18-15.82-8.09-18-17.8
	c0-2.74,0-5.48,0-8.21c5.24-11.54,14.31-16.2,26.93-15.14c5.24,0.44,10.55,0.01,15.82-0.02c20.82,0.02,41.63,0.03,62.45,0.05
	c20.84-0.01,41.68-0.02,62.53-0.03c13.77-0.05,27.54-0.09,41.31-0.14c20.78,0,41.56,0,62.34-0.01c20.82,0.01,41.63,0.01,62.44,0.02
	C366.72,703.86,373.62,704.01,380.52,704.15z"/>
<path class="st2" d="M640.84,44c3.11,1.13,6.19,2.36,9.33,3.38c27.48,8.91,45.72,38.11,41.47,66.47
	c-4.47,29.87-29.69,52.62-59.12,53.32c-0.91,0.02-1.83-0.13-2.75-0.2c-0.01-40.99-0.01-81.99-0.02-122.98
	C633.45,44,637.14,44,640.84,44z"/>
<path class="st3" d="M629.76,44c0.01,40.99,0.01,81.99,0.02,122.98c-12.6,0.33-23.82-4.1-34.69-9.78
	c-11.47-8.56-19.73-19.51-24.9-32.75c-4.12-16.63-3.53-32.72,5.02-48.11c8.01-14.42,19.93-23.99,35.59-29.24
	c2.26-0.76,4.34-2.05,6.5-3.1C621.45,44,625.6,44,629.76,44z"/>
<path class="st4" d="M692.09,703.72c-20.79,0-41.58-0.01-62.37-0.01c0.02-151.37,0.04-302.74,0.06-454.11
	c14.29-0.07,28.59-0.35,42.87-0.16c10.66,0.14,18.99,8.7,19.4,19.27c0.08,2.05,0.02,4.1,0.02,6.16
	C692.08,417.82,692.09,560.77,692.09,703.72z"/>
<path class="st3" d="M629.78,249.6c-0.02,151.37-0.04,302.74-0.06,454.11c-20.76,0-41.53,0-62.29,0
	c0-142.59,0.01-285.18,0.01-427.77c0-19.81,6.87-26.59,27.04-26.55C606.25,249.4,618.01,249.52,629.78,249.6z"/>
<path class="st5" d="M525.9,703.7c-20.78,0-41.55,0-62.33,0c0.01-110.29,0.02-220.58,0.02-330.88c14.29-0.07,28.58-0.35,42.86-0.16
	c11.19,0.15,19.39,9.02,19.42,20.6c0.07,30.09,0.02,60.17,0.02,90.26C525.9,556.91,525.9,630.31,525.9,703.7z"/>
<path class="st6" d="M463.6,372.82c-0.01,110.29-0.02,220.58-0.02,330.88c-20.77,0-41.54,0-62.3,0c0-101.74,0-203.48,0-305.23
	c0-18.87,7.14-25.9,26.35-25.87C439.61,372.62,451.6,372.75,463.6,372.82z"/>
<path class="st7" d="M193.73,703.85c-20.84,0.01-41.68,0.02-62.53,0.03c0.02-82.97,0.05-165.94,0.07-248.91
	c14.29-0.07,28.58-0.37,42.86-0.15c11.43,0.18,19.4,9.16,19.41,21.33c0.03,56.07,0,112.14,0.02,168.21
	C193.57,664.19,193.67,684.02,193.73,703.85z"/>
<path class="st8" d="M131.27,454.97c-0.02,82.97-0.05,165.94-0.07,248.91c-20.82-0.02-41.63-0.03-62.45-0.05
	c0.06-53.96,0.12-107.93,0.17-161.89c0.02-21.86-0.1-43.72,0.05-65.58c0.09-13.08,8.44-21.43,21.55-21.56
	C104.1,454.66,117.69,454.9,131.27,454.97z"/>
<path class="st9" d="M359.82,703.72c-20.82-0.01-41.63-0.01-62.44-0.02c0.04-55.56,0.07-111.12,0.11-166.68
	c13.58-0.04,27.16-0.16,40.75-0.1c13.28,0.05,21.46,8.17,21.48,21.36C359.78,606.75,359.79,655.24,359.82,703.72z"/>
<path class="st10" d="M297.48,537.02c-0.04,55.56-0.07,111.12-0.11,166.68c-20.78,0-41.56,0-62.34,0.01
	c0.02-47.8,0.04-95.6,0.07-143.4c0.01-15.57,7.94-23.41,23.71-23.4C271.7,536.9,284.59,536.98,297.48,537.02z"/>
<path class="st7" d="M175.6,355.81c-9.38,4.88-18.51,10.32-28.23,14.4c-4.81,2.02-10.69,1.51-16.09,2.15c0-40.91,0-81.83,0-122.74
	c32.08-1.08,60.93,25.75,62.21,57.88c0.15,3.86,0.08,7.73,0.12,11.6c-4.2,9.68-8.27,19.42-12.67,29.01
	C179.65,350.89,177.4,353.25,175.6,355.81z"/>
<path class="st11" d="M523.27,209.86c6.92,27.47,0.32,50.73-22.6,68.41c-10.75,8.29-23.21,12.51-37.07,11.93
	c0-40.91,0-81.82,0-122.73c9.45,2.19,18.93,4.28,28.34,6.62c2.39,0.59,4.58,1.98,6.86,3C509.63,186.06,518.51,196.45,523.27,209.86z
	"/>
<path class="st12" d="M354.25,365.99c5.63,15.77,7.76,31.53,1.95,47.9c-8.45,23.82-33.04,41.17-58.72,40.73
	c0-40.99,0-81.97,0-122.96c9.13,1.76,18.26,3.52,27.38,5.28c4.03,2.84,8.63,5.14,11.97,8.63
	C343.03,352.01,348.49,359.14,354.25,365.99z"/>
<path class="st13" d="M463.6,167.47c0,40.91,0,81.82,0,122.73c-8.99-1.81-17.98-3.61-26.98-5.42C423.97,277.76,414.1,268,407,255.49
	c-5.3-14.37-7.71-28.88-2.99-43.96C412.38,184.84,435.21,167.87,463.6,167.47z"/>
<path class="st8" d="M131.28,249.61c0,40.91,0,81.83,0,122.74c-34.91-0.4-62.62-27.84-62.31-61.71
	C69.28,276.8,96.63,250.01,131.28,249.61z"/>
<path class="st10" d="M297.49,331.65c0,40.99,0,81.97,0,122.96c-30.52,0.08-57.14-22.46-61.04-51.87
	c-0.77-5.8-0.94-11.69-1.39-17.53c3.4-13,8.21-25.3,17.76-35.28c0.37-0.39,0.19-1.29,0.27-1.95c9.01-4.58,17.78-9.74,27.12-13.51
	C285.47,332.35,291.69,332.52,297.49,331.65z"/>
<path class="st14" d="M523.27,209.86c-4.76-13.41-13.64-23.8-24.48-32.77c23.8-17.55,47.59-35.09,71.39-52.64
	c5.18,13.24,13.43,24.19,24.9,32.75c-22.06,16.28-44.11,32.57-66.18,48.84C527.09,207.39,525.15,208.59,523.27,209.86z"/>
<path class="st15" d="M253.08,347.99c-0.08,0.66,0.1,1.56-0.27,1.95c-9.55,9.98-14.36,22.28-17.76,35.28
	c-19.82-9.8-39.64-19.6-59.45-29.41c1.8-2.56,4.05-4.91,5.33-7.7c4.41-9.59,8.47-19.33,12.67-29.01
	C213.43,328.72,233.25,338.36,253.08,347.99z"/>
<path class="st16" d="M407,255.49c7.1,12.51,16.97,22.26,29.62,29.28c-18.19,17.9-36.37,35.79-54.56,53.69
	c-0.52-2.31-1.48-4.61-1.5-6.93c-0.14-16.46-0.09-32.92-0.1-49.39C389.31,273.27,398.16,264.38,407,255.49z"/>
<path class="st17" d="M380.47,282.16c0.01,16.46-0.04,32.93,0.1,49.39c0.02,2.31,0.97,4.62,1.5,6.93
	c-9.27,9.17-18.54,18.34-27.81,27.52c-5.76-6.85-11.22-13.98-17.41-20.42c-3.34-3.48-7.94-5.79-11.97-8.63
	C343.4,318.68,361.93,300.42,380.47,282.16z"/>
</svg>
